<ttFont>
    <TTGlyph name=".notdef" xMin="193" yMin="0" xMax="1034" yMax="1462">
      <contour>
        <pt x="193" y="1462" on="1"/>
        <pt x="1034" y="1462" on="1"/>
        <pt x="1034" y="0" on="1"/>
        <pt x="193" y="0" on="1"/>
      </contour>
      <contour>
        <pt x="297" y="104" on="1"/>
        <pt x="930" y="104" on="1"/>
        <pt x="930" y="1358" on="1"/>
        <pt x="297" y="1358" on="1"/>
      </contour>
    </TTGlyph>
    <TTGlyph name="uni10A0" xMin="106" yMin="-20" xMax="1511" yMax="1462">
      <contour>
        <pt x="106" y="1462" on="1"/>
        <pt x="1470" y="1462" on="1"/>
        <pt x="1470" y="1204" on="1"/>
        <pt x="930" y="1204" on="1"/>
        <pt x="695" y="1204" on="0"/>
        <pt x="444" y="944" on="0"/>
        <pt x="444" y="696" on="1"/>
        <pt x="444" y="475" on="0"/>
        <pt x="635" y="240" on="0"/>
        <pt x="815" y="240" on="1"/>
        <pt x="1186" y="240" on="0"/>
        <pt x="1186" y="733" on="1"/>
        <pt x="1511" y="733" on="1"/>
        <pt x="1511" y="370" on="0"/>
        <pt x="1151" y="-20" on="0"/>
        <pt x="815" y="-20" on="1"/>
        <pt x="486" y="-20" on="0"/>
        <pt x="119" y="352" on="0"/>
        <pt x="119" y="690" on="1"/>
        <pt x="119" y="1012" on="0"/>
        <pt x="354" y="1204" on="1"/>
        <pt x="106" y="1204" on="1"/>
      </contour>
    </TTGlyph>
    <TTGlyph name="uni10A1" xMin="111" yMin="0" xMax="1321" yMax="1462">
      <contour>
        <pt x="111" y="987" on="1"/>
        <pt x="111" y="1113" on="0"/>
        <pt x="190" y="1379" on="0"/>
        <pt x="248" y="1462" on="1"/>
        <pt x="567" y="1462" on="1"/>
        <pt x="505" y="1377" on="0"/>
        <pt x="430" y="1132" on="0"/>
        <pt x="430" y="1001" on="1"/>
        <pt x="430" y="837" on="0"/>
        <pt x="562" y="692" on="0"/>
        <pt x="702" y="692" on="1"/>
        <pt x="1012" y="692" on="0"/>
        <pt x="1012" y="1079" on="1"/>
        <pt x="1012" y="1462" on="1"/>
        <pt x="1321" y="1462" on="1"/>
        <pt x="1321" y="0" on="1"/>
        <pt x="1012" y="0" on="1"/>
        <pt x="1012" y="373" on="1"/>
        <pt x="1012" y="480" on="0"/>
        <pt x="1026" y="637" on="1"/>
        <pt x="1010" y="637" on="1"/>
        <pt x="879" y="434" on="0"/>
        <pt x="612" y="434" on="1"/>
        <pt x="378" y="434" on="0"/>
        <pt x="111" y="727" on="0"/>
      </contour>
    </TTGlyph>
    <TTGlyph name="uni10A2" xMin="51" yMin="-233" xMax="1645" yMax="1483">
      <contour>
        <pt x="893" y="920" on="1"/>
        <pt x="893" y="1075" on="0"/>
        <pt x="765" y="1223" on="0"/>
        <pt x="625" y="1223" on="1"/>
        <pt x="485" y="1223" on="0"/>
        <pt x="360" y="1070" on="0"/>
        <pt x="360" y="920" on="1"/>
        <pt x="360" y="901" on="1"/>
        <pt x="51" y="901" on="1"/>
        <pt x="51" y="946" on="1"/>
        <pt x="51" y="1108" on="0"/>
        <pt x="188" y="1350" on="0"/>
        <pt x="451" y="1483" on="0"/>
        <pt x="633" y="1483" on="1"/>
        <pt x="902" y="1483" on="0"/>
        <pt x="1202" y="1197" on="0"/>
        <pt x="1202" y="942" on="1"/>
        <pt x="1202" y="254" on="1"/>
        <pt x="1645" y="254" on="1"/>
        <pt x="1645" y="-233" on="1"/>
        <pt x="1362" y="-233" on="1"/>
        <pt x="1362" y="0" on="1"/>
        <pt x="893" y="0" on="1"/>
      </contour>
    </TTGlyph>
    <TTGlyph name="uni10A3" xMin="119" yMin="-20" xMax="1470" yMax="1462">
      <contour>
        <pt x="160" y="1462" on="1"/>
        <pt x="1430" y="1462" on="1"/>
        <pt x="1430" y="1208" on="1"/>
        <pt x="936" y="1208" on="1"/>
        <pt x="936" y="1110" on="1"/>
        <pt x="1195" y="1081" on="0"/>
        <pt x="1470" y="792" on="0"/>
        <pt x="1470" y="549" on="1"/>
        <pt x="1470" y="280" on="0"/>
        <pt x="1115" y="-20" on="0"/>
        <pt x="795" y="-20" on="1"/>
        <pt x="474" y="-20" on="0"/>
        <pt x="119" y="279" on="0"/>
        <pt x="119" y="551" on="1"/>
        <pt x="119" y="796" on="0"/>
        <pt x="393" y="1079" on="0"/>
        <pt x="653" y="1110" on="1"/>
        <pt x="653" y="1208" on="1"/>
        <pt x="160" y="1208" on="1"/>
      </contour>
      <contour>
        <pt x="438" y="549" on="1"/>
        <pt x="438" y="395" on="0"/>
        <pt x="616" y="233" on="0"/>
        <pt x="795" y="233" on="1"/>
        <pt x="1151" y="233" on="0"/>
        <pt x="1151" y="549" on="1"/>
        <pt x="1151" y="870" on="0"/>
        <pt x="797" y="870" on="1"/>
        <pt x="621" y="870" on="0"/>
        <pt x="438" y="707" on="0"/>
      </contour>
    </TTGlyph>
    <TTGlyph name="uni10A4" xMin="51" yMin="0" xMax="1202" yMax="1483">
      <contour>
        <pt x="893" y="920" on="1"/>
        <pt x="893" y="1075" on="0"/>
        <pt x="765" y="1223" on="0"/>
        <pt x="625" y="1223" on="1"/>
        <pt x="485" y="1223" on="0"/>
        <pt x="360" y="1070" on="0"/>
        <pt x="360" y="920" on="1"/>
        <pt x="360" y="901" on="1"/>
        <pt x="51" y="901" on="1"/>
        <pt x="51" y="946" on="1"/>
        <pt x="51" y="1108" on="0"/>
        <pt x="188" y="1350" on="0"/>
        <pt x="451" y="1483" on="0"/>
        <pt x="633" y="1483" on="1"/>
        <pt x="902" y="1483" on="0"/>
        <pt x="1202" y="1197" on="0"/>
        <pt x="1202" y="942" on="1"/>
        <pt x="1202" y="0" on="1"/>
        <pt x="893" y="0" on="1"/>
      </contour>
    </TTGlyph>
    <TTGlyph name="uni10A5" xMin="51" yMin="0" xMax="1645" yMax="1483">
      <contour>
        <pt x="893" y="920" on="1"/>
        <pt x="893" y="1075" on="0"/>
        <pt x="765" y="1223" on="0"/>
        <pt x="625" y="1223" on="1"/>
        <pt x="485" y="1223" on="0"/>
        <pt x="360" y="1070" on="0"/>
        <pt x="360" y="920" on="1"/>
        <pt x="360" y="901" on="1"/>
        <pt x="51" y="901" on="1"/>
        <pt x="51" y="946" on="1"/>
        <pt x="51" y="1108" on="0"/>
        <pt x="188" y="1350" on="0"/>
        <pt x="451" y="1483" on="0"/>
        <pt x="633" y="1483" on="1"/>
        <pt x="902" y="1483" on="0"/>
        <pt x="1202" y="1197" on="0"/>
        <pt x="1202" y="942" on="1"/>
        <pt x="1202" y="901" on="1"/>
        <pt x="1645" y="901" on="1"/>
        <pt x="1645" y="414" on="1"/>
        <pt x="1362" y="414" on="1"/>
        <pt x="1362" y="647" on="1"/>
        <pt x="1202" y="647" on="1"/>
        <pt x="1202" y="0" on="1"/>
        <pt x="893" y="0" on="1"/>
      </contour>
    </TTGlyph>
    <TTGlyph name="uni10A6" xMin="41" yMin="-20" xMax="1407" yMax="1462">
      <contour>
        <pt x="565" y="545" on="1"/>
        <pt x="565" y="391" on="0"/>
        <pt x="689" y="238" on="0"/>
        <pt x="827" y="238" on="1"/>
        <pt x="954" y="238" on="0"/>
        <pt x="1087" y="399" on="0"/>
        <pt x="1087" y="561" on="1"/>
        <pt x="1087" y="726" on="0"/>
        <pt x="960" y="881" on="0"/>
        <pt x="829" y="881" on="1"/>
        <pt x="689" y="881" on="0"/>
        <pt x="565" y="723" on="0"/>
      </contour>
      <contour>
        <pt x="41" y="1208" on="1"/>
        <pt x="41" y="1462" on="1"/>
        <pt x="565" y="1462" on="1"/>
        <pt x="565" y="1233" on="1"/>
        <pt x="565" y="1196" on="0"/>
        <pt x="558" y="1059" on="1"/>
        <pt x="551" y="969" on="1"/>
        <pt x="567" y="969" on="1"/>
        <pt x="638" y="1063" on="0"/>
        <pt x="799" y="1139" on="0"/>
        <pt x="920" y="1139" on="1"/>
        <pt x="1146" y="1139" on="0"/>
        <pt x="1407" y="829" on="0"/>
        <pt x="1407" y="561" on="1"/>
        <pt x="1407" y="289" on="0"/>
        <pt x="1096" y="-20" on="0"/>
        <pt x="823" y="-20" on="1"/>
        <pt x="565" y="-20" on="0"/>
        <pt x="256" y="292" on="0"/>
        <pt x="256" y="561" on="1"/>
        <pt x="256" y="1208" on="1"/>
      </contour>
    </TTGlyph>
    <TTGlyph name="uni10A7" xMin="119" yMin="0" xMax="1774" yMax="1462">
      <contour>
        <pt x="119" y="745" on="1"/>
        <pt x="119" y="1087" on="0"/>
        <pt x="517" y="1462" on="0"/>
        <pt x="872" y="1462" on="1"/>
        <pt x="1331" y="1462" on="1"/>
        <pt x="1331" y="901" on="1"/>
        <pt x="1774" y="901" on="1"/>
        <pt x="1774" y="414" on="1"/>
        <pt x="1491" y="414" on="1"/>
        <pt x="1491" y="647" on="1"/>
        <pt x="1331" y="647" on="1"/>
        <pt x="1331" y="0" on="1"/>
        <pt x="918" y="0" on="1"/>
        <pt x="530" y="0" on="0"/>
        <pt x="119" y="384" on="0"/>
      </contour>
      <contour>
        <pt x="440" y="737" on="1"/>
        <pt x="440" y="256" on="0"/>
        <pt x="889" y="256" on="1"/>
        <pt x="1022" y="256" on="1"/>
        <pt x="1022" y="1208" on="1"/>
        <pt x="856" y="1208" on="1"/>
        <pt x="440" y="1208" on="0"/>
      </contour>
    </TTGlyph>
    <TTGlyph name="uni10A8" xMin="41" yMin="0" xMax="922" yMax="1462">
      <contour>
        <pt x="922" y="0" on="1"/>
        <pt x="612" y="0" on="1"/>
        <pt x="612" y="1204" on="1"/>
        <pt x="41" y="1204" on="1"/>
        <pt x="41" y="1462" on="1"/>
        <pt x="922" y="1462" on="1"/>
      </contour>
    </TTGlyph>
    <TTGlyph name="uni10A9" xMin="154" yMin="0" xMax="1294" yMax="1462">
      <contour>
        <pt x="463" y="739" on="1"/>
        <pt x="463" y="594" on="0"/>
        <pt x="591" y="459" on="0"/>
        <pt x="721" y="459" on="1"/>
        <pt x="862" y="459" on="0"/>
        <pt x="985" y="598" on="0"/>
        <pt x="985" y="754" on="1"/>
        <pt x="985" y="898" on="0"/>
        <pt x="859" y="1036" on="0"/>
        <pt x="727" y="1036" on="1"/>
        <pt x="586" y="1036" on="0"/>
        <pt x="463" y="897" on="0"/>
      </contour>
      <contour>
        <pt x="1294" y="0" on="1"/>
        <pt x="985" y="0" on="1"/>
        <pt x="985" y="156" on="1"/>
        <pt x="985" y="231" on="0"/>
        <pt x="999" y="360" on="1"/>
        <pt x="983" y="360" on="1"/>
        <pt x="914" y="273" on="0"/>
        <pt x="751" y="201" on="0"/>
        <pt x="631" y="201" on="1"/>
        <pt x="411" y="201" on="0"/>
        <pt x="154" y="490" on="0"/>
        <pt x="154" y="741" on="1"/>
        <pt x="154" y="1462" on="1"/>
        <pt x="463" y="1462" on="1"/>
        <pt x="463" y="1339" on="1"/>
        <pt x="463" y="1321" on="0"/>
        <pt x="456" y="1209" on="1"/>
        <pt x="449" y="1135" on="1"/>
        <pt x="465" y="1135" on="1"/>
        <pt x="534" y="1222" on="0"/>
        <pt x="697" y="1294" on="0"/>
        <pt x="817" y="1294" on="1"/>
        <pt x="1037" y="1294" on="0"/>
        <pt x="1294" y="1005" on="0"/>
        <pt x="1294" y="754" on="1"/>
      </contour>
    </TTGlyph>
    <TTGlyph name="uni10AA" xMin="51" yMin="-20" xMax="1645" yMax="1462">
      <contour>
        <pt x="803" y="545" on="1"/>
        <pt x="803" y="391" on="0"/>
        <pt x="927" y="238" on="0"/>
        <pt x="1065" y="238" on="1"/>
        <pt x="1192" y="238" on="0"/>
        <pt x="1325" y="399" on="0"/>
        <pt x="1325" y="561" on="1"/>
        <pt x="1325" y="722" on="0"/>
        <pt x="1200" y="881" on="0"/>
        <pt x="1067" y="881" on="1"/>
        <pt x="927" y="881" on="0"/>
        <pt x="803" y="723" on="0"/>
      </contour>
      <contour>
        <pt x="803" y="1462" on="1"/>
        <pt x="803" y="1233" on="1"/>
        <pt x="803" y="1211" on="0"/>
        <pt x="802" y="1165" on="0"/>
        <pt x="788" y="969" on="1"/>
        <pt x="805" y="969" on="1"/>
        <pt x="876" y="1063" on="0"/>
        <pt x="1037" y="1139" on="0"/>
        <pt x="1157" y="1139" on="1"/>
        <pt x="1384" y="1139" on="0"/>
        <pt x="1645" y="830" on="0"/>
        <pt x="1645" y="561" on="1"/>
        <pt x="1645" y="289" on="0"/>
        <pt x="1333" y="-20" on="0"/>
        <pt x="1061" y="-20" on="1"/>
        <pt x="801" y="-20" on="0"/>
        <pt x="494" y="293" on="0"/>
        <pt x="494" y="561" on="1"/>
        <pt x="494" y="1208" on="1"/>
        <pt x="334" y="1208" on="1"/>
        <pt x="334" y="975" on="1"/>
        <pt x="51" y="975" on="1"/>
        <pt x="51" y="1462" on="1"/>
      </contour>
    </TTGlyph>
    <TTGlyph name="uni10AB" xMin="111" yMin="-20" xMax="1704" yMax="1462">
      <contour>
        <pt x="217" y="1204" on="1"/>
        <pt x="217" y="1462" on="1"/>
        <pt x="1262" y="1462" on="1"/>
        <pt x="1262" y="1042" on="1"/>
        <pt x="1704" y="1042" on="1"/>
        <pt x="1704" y="555" on="1"/>
        <pt x="1421" y="555" on="1"/>
        <pt x="1421" y="793" on="1"/>
        <pt x="1262" y="793" on="1"/>
        <pt x="1262" y="561" on="1"/>
        <pt x="1262" y="384" on="0"/>
        <pt x="1123" y="121" on="0"/>
        <pt x="864" y="-20" on="0"/>
        <pt x="694" y="-20" on="1"/>
        <pt x="423" y="-20" on="0"/>
        <pt x="111" y="263" on="0"/>
        <pt x="111" y="512" on="1"/>
        <pt x="111" y="768" on="0"/>
        <pt x="395" y="1042" on="0"/>
        <pt x="662" y="1042" on="1"/>
        <pt x="952" y="1042" on="1"/>
        <pt x="952" y="1204" on="1"/>
      </contour>
      <contour>
        <pt x="952" y="788" on="1"/>
        <pt x="688" y="788" on="1"/>
        <pt x="557" y="788" on="0"/>
        <pt x="430" y="652" on="0"/>
        <pt x="430" y="512" on="1"/>
        <pt x="430" y="375" on="0"/>
        <pt x="563" y="238" on="0"/>
        <pt x="690" y="238" on="1"/>
        <pt x="828" y="238" on="0"/>
        <pt x="952" y="391" on="0"/>
        <pt x="952" y="545" on="1"/>
      </contour>
    </TTGlyph>
    <TTGlyph name="uni10AC" xMin="184" yMin="0" xMax="1384" yMax="1462">
      <contour>
        <pt x="494" y="1061" on="1"/>
        <pt x="494" y="1039" on="0"/>
        <pt x="493" y="993" on="0"/>
        <pt x="479" y="797" on="1"/>
        <pt x="489" y="797" on="1"/>
        <pt x="626" y="987" on="0"/>
        <pt x="893" y="987" on="1"/>
        <pt x="1123" y="987" on="0"/>
        <pt x="1384" y="710" on="0"/>
        <pt x="1384" y="477" on="1"/>
        <pt x="1384" y="0" on="1"/>
        <pt x="1075" y="0" on="1"/>
        <pt x="1075" y="440" on="1"/>
        <pt x="1075" y="576" on="0"/>
        <pt x="944" y="729" on="0"/>
        <pt x="803" y="729" on="1"/>
        <pt x="633" y="729" on="0"/>
        <pt x="494" y="550" on="0"/>
        <pt x="494" y="342" on="1"/>
        <pt x="494" y="0" on="1"/>
        <pt x="184" y="0" on="1"/>
        <pt x="184" y="1462" on="1"/>
        <pt x="1309" y="1462" on="1"/>
        <pt x="1309" y="1204" on="1"/>
        <pt x="494" y="1204" on="1"/>
      </contour>
    </TTGlyph>
    <TTGlyph name="uni10AD" xMin="119" yMin="-379" xMax="1511" yMax="1485">
      <contour>
        <pt x="1198" y="-39" on="1"/>
        <pt x="1198" y="-93" on="0"/>
        <pt x="1259" y="-150" on="0"/>
        <pt x="1307" y="-150" on="1"/>
        <pt x="1379" y="-150" on="0"/>
        <pt x="1460" y="-125" on="1"/>
        <pt x="1460" y="-350" on="1"/>
        <pt x="1364" y="-379" on="0"/>
        <pt x="1231" y="-379" on="1"/>
        <pt x="895" y="-379" on="0"/>
        <pt x="895" y="-109" on="1"/>
        <pt x="895" y="-59" on="0"/>
        <pt x="909" y="-14" on="1"/>
        <pt x="867" y="-20" on="0"/>
        <pt x="815" y="-20" on="1"/>
        <pt x="479" y="-20" on="0"/>
        <pt x="119" y="370" on="0"/>
        <pt x="119" y="735" on="1"/>
        <pt x="119" y="1100" on="0"/>
        <pt x="480" y="1485" on="0"/>
        <pt x="817" y="1485" on="1"/>
        <pt x="1154" y="1485" on="0"/>
        <pt x="1511" y="1097" on="0"/>
        <pt x="1511" y="733" on="1"/>
        <pt x="1511" y="342" on="0"/>
        <pt x="1280" y="127" on="1"/>
        <pt x="1198" y="51" on="0"/>
      </contour>
      <contour>
        <pt x="444" y="733" on="1"/>
        <pt x="444" y="488" on="0"/>
        <pt x="630" y="240" on="0"/>
        <pt x="815" y="240" on="1"/>
        <pt x="1186" y="240" on="0"/>
        <pt x="1186" y="733" on="1"/>
        <pt x="1186" y="1227" on="0"/>
        <pt x="817" y="1227" on="1"/>
        <pt x="632" y="1227" on="0"/>
        <pt x="444" y="978" on="0"/>
      </contour>
    </TTGlyph>
    <TTGlyph name="uni10AE" xMin="41" yMin="-20" xMax="1524" yMax="1462">
      <contour>
        <pt x="633" y="567" on="1"/>
        <pt x="633" y="398" on="0"/>
        <pt x="769" y="240" on="0"/>
        <pt x="926" y="240" on="1"/>
        <pt x="1077" y="240" on="0"/>
        <pt x="1214" y="399" on="0"/>
        <pt x="1214" y="569" on="1"/>
        <pt x="1214" y="1462" on="1"/>
        <pt x="1524" y="1462" on="1"/>
        <pt x="1524" y="516" on="1"/>
        <pt x="1524" y="354" on="0"/>
        <pt x="1380" y="110" on="0"/>
        <pt x="1105" y="-20" on="0"/>
        <pt x="918" y="-20" on="1"/>
        <pt x="636" y="-20" on="0"/>
        <pt x="324" y="267" on="0"/>
        <pt x="324" y="520" on="1"/>
        <pt x="324" y="1208" on="1"/>
        <pt x="41" y="1208" on="1"/>
        <pt x="41" y="1462" on="1"/>
        <pt x="633" y="1462" on="1"/>
      </contour>
    </TTGlyph>
    <TTGlyph name="uni10AF" xMin="41" yMin="0" xMax="1434" yMax="1462">
      <contour>
        <pt x="680" y="1462" on="1"/>
        <pt x="618" y="1377" on="0"/>
        <pt x="543" y="1132" on="0"/>
        <pt x="543" y="1001" on="1"/>
        <pt x="543" y="837" on="0"/>
        <pt x="675" y="692" on="0"/>
        <pt x="815" y="692" on="1"/>
        <pt x="972" y="692" on="0"/>
        <pt x="1124" y="886" on="0"/>
        <pt x="1124" y="1079" on="1"/>
        <pt x="1124" y="1462" on="1"/>
        <pt x="1434" y="1462" on="1"/>
        <pt x="1434" y="0" on="1"/>
        <pt x="1124" y="0" on="1"/>
        <pt x="1124" y="373" on="1"/>
        <pt x="1124" y="468" on="0"/>
        <pt x="1139" y="637" on="1"/>
        <pt x="1128" y="637" on="1"/>
        <pt x="1067" y="539" on="0"/>
        <pt x="859" y="434" on="0"/>
        <pt x="725" y="434" on="1"/>
        <pt x="490" y="434" on="0"/>
        <pt x="223" y="727" on="0"/>
        <pt x="223" y="987" on="1"/>
        <pt x="223" y="1085" on="0"/>
        <pt x="256" y="1206" on="1"/>
        <pt x="41" y="1206" on="1"/>
        <pt x="41" y="1462" on="1"/>
      </contour>
    </TTGlyph>
    <TTGlyph name="uni10B0" xMin="51" yMin="-20" xMax="1645" yMax="1462">
      <contour>
        <pt x="1645" y="901" on="1"/>
        <pt x="1645" y="414" on="1"/>
        <pt x="1362" y="414" on="1"/>
        <pt x="1362" y="647" on="1"/>
        <pt x="1202" y="647" on="1"/>
        <pt x="1202" y="520" on="1"/>
        <pt x="1202" y="267" on="0"/>
        <pt x="903" y="-20" on="0"/>
        <pt x="633" y="-20" on="1"/>
        <pt x="452" y="-20" on="0"/>
        <pt x="190" y="111" on="0"/>
        <pt x="51" y="353" on="0"/>
        <pt x="51" y="516" on="1"/>
        <pt x="51" y="561" on="1"/>
        <pt x="360" y="561" on="1"/>
        <pt x="360" y="543" on="1"/>
        <pt x="360" y="392" on="0"/>
        <pt x="485" y="240" on="0"/>
        <pt x="625" y="240" on="1"/>
        <pt x="764" y="240" on="0"/>
        <pt x="893" y="388" on="0"/>
        <pt x="893" y="543" on="1"/>
        <pt x="893" y="1462" on="1"/>
        <pt x="1202" y="1462" on="1"/>
        <pt x="1202" y="901" on="1"/>
      </contour>
    </TTGlyph>
    <TTGlyph name="uni10B1" xMin="174" yMin="-20" xMax="1325" yMax="1462">
      <contour>
        <pt x="483" y="543" on="1"/>
        <pt x="483" y="388" on="0"/>
        <pt x="611" y="240" on="0"/>
        <pt x="752" y="240" on="1"/>
        <pt x="892" y="240" on="0"/>
        <pt x="1016" y="391" on="0"/>
        <pt x="1016" y="543" on="1"/>
        <pt x="1016" y="582" on="1"/>
        <pt x="1325" y="582" on="1"/>
        <pt x="1325" y="516" on="1"/>
        <pt x="1325" y="354" on="0"/>
        <pt x="1186" y="110" on="0"/>
        <pt x="923" y="-20" on="0"/>
        <pt x="743" y="-20" on="1"/>
        <pt x="474" y="-20" on="0"/>
        <pt x="174" y="268" on="0"/>
        <pt x="174" y="520" on="1"/>
        <pt x="174" y="1462" on="1"/>
        <pt x="483" y="1462" on="1"/>
      </contour>
    </TTGlyph>
    <TTGlyph name="uni10B2" xMin="184" yMin="0" xMax="1194" yMax="1462">
      <contour>
        <pt x="494" y="774" on="1"/>
        <pt x="596" y="774" on="1"/>
        <pt x="739" y="774" on="0"/>
        <pt x="881" y="887" on="0"/>
        <pt x="881" y="995" on="1"/>
        <pt x="881" y="1104" on="0"/>
        <pt x="762" y="1208" on="0"/>
        <pt x="635" y="1208" on="1"/>
        <pt x="494" y="1208" on="1"/>
      </contour>
      <contour>
        <pt x="184" y="1462" on="1"/>
        <pt x="651" y="1462" on="1"/>
        <pt x="917" y="1462" on="0"/>
        <pt x="1194" y="1233" on="0"/>
        <pt x="1194" y="1006" on="1"/>
        <pt x="1194" y="770" on="0"/>
        <pt x="899" y="520" on="0"/>
        <pt x="627" y="520" on="1"/>
        <pt x="494" y="520" on="1"/>
        <pt x="494" y="258" on="1"/>
        <pt x="1124" y="258" on="1"/>
        <pt x="1124" y="0" on="1"/>
        <pt x="184" y="0" on="1"/>
      </contour>
    </TTGlyph>
    <TTGlyph name="uni10B3" xMin="119" yMin="-379" xMax="1577" yMax="1485">
      <contour>
        <pt x="1511" y="733" on="1"/>
        <pt x="1511" y="447" on="0"/>
        <pt x="1399" y="264" on="1"/>
        <pt x="1482" y="216" on="0"/>
        <pt x="1577" y="51" on="0"/>
        <pt x="1577" y="-49" on="1"/>
        <pt x="1577" y="-205" on="0"/>
        <pt x="1387" y="-379" on="0"/>
        <pt x="1204" y="-379" on="1"/>
        <pt x="1151" y="-379" on="0"/>
        <pt x="1083" y="-362" on="1"/>
        <pt x="1083" y="-137" on="1"/>
        <pt x="1143" y="-150" on="0"/>
        <pt x="1186" y="-150" on="1"/>
        <pt x="1234" y="-150" on="0"/>
        <pt x="1294" y="-93" on="0"/>
        <pt x="1294" y="-39" on="1"/>
        <pt x="1294" y="-7" on="0"/>
        <pt x="1259" y="61" on="0"/>
        <pt x="1225" y="84" on="1"/>
        <pt x="1060" y="-20" on="0"/>
        <pt x="815" y="-20" on="1"/>
        <pt x="479" y="-20" on="0"/>
        <pt x="119" y="370" on="0"/>
        <pt x="119" y="735" on="1"/>
        <pt x="119" y="1100" on="0"/>
        <pt x="480" y="1485" on="0"/>
        <pt x="817" y="1485" on="1"/>
        <pt x="1154" y="1485" on="0"/>
        <pt x="1511" y="1097" on="0"/>
      </contour>
      <contour>
        <pt x="444" y="733" on="1"/>
        <pt x="444" y="488" on="0"/>
        <pt x="630" y="240" on="0"/>
        <pt x="815" y="240" on="1"/>
        <pt x="1186" y="240" on="0"/>
        <pt x="1186" y="733" on="1"/>
        <pt x="1186" y="1227" on="0"/>
        <pt x="817" y="1227" on="1"/>
        <pt x="632" y="1227" on="0"/>
        <pt x="444" y="978" on="0"/>
      </contour>
    </TTGlyph>
    <TTGlyph name="uni10B4" xMin="92" yMin="0" xMax="1669" yMax="1483">
      <contour>
        <pt x="1020" y="571" on="1"/>
        <pt x="1188" y="571" on="0"/>
        <pt x="1378" y="756" on="0"/>
        <pt x="1378" y="907" on="1"/>
        <pt x="1378" y="1055" on="0"/>
        <pt x="1185" y="1229" on="0"/>
        <pt x="1020" y="1229" on="1"/>
      </contour>
      <contour>
        <pt x="741" y="0" on="1"/>
        <pt x="741" y="332" on="1"/>
        <pt x="548" y="332" on="0"/>
        <pt x="259" y="469" on="0"/>
        <pt x="92" y="740" on="0"/>
        <pt x="92" y="905" on="1"/>
        <pt x="92" y="1087" on="0"/>
        <pt x="273" y="1345" on="0"/>
        <pt x="625" y="1483" on="0"/>
        <pt x="879" y="1483" on="1"/>
        <pt x="1262" y="1483" on="0"/>
        <pt x="1669" y="1187" on="0"/>
        <pt x="1669" y="905" on="1"/>
        <pt x="1669" y="740" on="0"/>
        <pt x="1502" y="469" on="0"/>
        <pt x="1213" y="332" on="0"/>
        <pt x="1020" y="332" on="1"/>
        <pt x="1020" y="0" on="1"/>
      </contour>
      <contour>
        <pt x="741" y="1229" on="1"/>
        <pt x="577" y="1229" on="0"/>
        <pt x="383" y="1056" on="0"/>
        <pt x="383" y="907" on="1"/>
        <pt x="383" y="755" on="0"/>
        <pt x="574" y="571" on="0"/>
        <pt x="741" y="571" on="1"/>
      </contour>
    </TTGlyph>
    <TTGlyph name="uni10B5" xMin="51" yMin="0" xMax="1315" yMax="1462">
      <contour>
        <pt x="528" y="0" on="1"/>
        <pt x="528" y="827" on="1"/>
        <pt x="51" y="827" on="1"/>
        <pt x="51" y="1315" on="1"/>
        <pt x="334" y="1315" on="1"/>
        <pt x="334" y="1081" on="1"/>
        <pt x="528" y="1081" on="1"/>
        <pt x="528" y="1462" on="1"/>
        <pt x="838" y="1462" on="1"/>
        <pt x="838" y="1081" on="1"/>
        <pt x="1315" y="1081" on="1"/>
        <pt x="1315" y="594" on="1"/>
        <pt x="1032" y="594" on="1"/>
        <pt x="1032" y="827" on="1"/>
        <pt x="838" y="827" on="1"/>
        <pt x="838" y="0" on="1"/>
      </contour>
    </TTGlyph>
    <TTGlyph name="uni10B6" xMin="174" yMin="0" xMax="1374" yMax="1483">
      <contour>
        <pt x="174" y="0" on="1"/>
        <pt x="174" y="946" on="1"/>
        <pt x="174" y="1108" on="0"/>
        <pt x="317" y="1350" on="0"/>
        <pt x="591" y="1483" on="0"/>
        <pt x="780" y="1483" on="1"/>
        <pt x="1062" y="1483" on="0"/>
        <pt x="1374" y="1194" on="0"/>
        <pt x="1374" y="942" on="1"/>
        <pt x="1374" y="0" on="1"/>
        <pt x="1065" y="0" on="1"/>
        <pt x="1065" y="895" on="1"/>
        <pt x="1065" y="1065" on="0"/>
        <pt x="928" y="1223" on="0"/>
        <pt x="772" y="1223" on="1"/>
        <pt x="620" y="1223" on="0"/>
        <pt x="483" y="1063" on="0"/>
        <pt x="483" y="893" on="1"/>
        <pt x="483" y="0" on="1"/>
      </contour>
    </TTGlyph>
    <TTGlyph name="uni10B7" xMin="154" yMin="0" xMax="1354" yMax="1462">
      <contour>
        <pt x="1044" y="360" on="1"/>
        <pt x="1044" y="456" on="0"/>
        <pt x="1059" y="625" on="1"/>
        <pt x="1049" y="625" on="1"/>
        <pt x="911" y="434" on="0"/>
        <pt x="645" y="434" on="1"/>
        <pt x="415" y="434" on="0"/>
        <pt x="154" y="711" on="0"/>
        <pt x="154" y="944" on="1"/>
        <pt x="154" y="1462" on="1"/>
        <pt x="463" y="1462" on="1"/>
        <pt x="463" y="981" on="1"/>
        <pt x="463" y="834" on="0"/>
        <pt x="598" y="692" on="0"/>
        <pt x="735" y="692" on="1"/>
        <pt x="899" y="692" on="0"/>
        <pt x="1044" y="877" on="0"/>
        <pt x="1044" y="1079" on="1"/>
        <pt x="1044" y="1462" on="1"/>
        <pt x="1354" y="1462" on="1"/>
        <pt x="1354" y="0" on="1"/>
        <pt x="1044" y="0" on="1"/>
      </contour>
    </TTGlyph>
    <TTGlyph name="uni10B8" xMin="184" yMin="-20" xMax="1384" yMax="1462">
      <contour>
        <pt x="1384" y="520" on="1"/>
        <pt x="1384" y="266" on="0"/>
        <pt x="1072" y="-20" on="0"/>
        <pt x="791" y="-20" on="1"/>
        <pt x="602" y="-20" on="0"/>
        <pt x="328" y="111" on="0"/>
        <pt x="184" y="354" on="0"/>
        <pt x="184" y="516" on="1"/>
        <pt x="184" y="530" on="1"/>
        <pt x="494" y="530" on="1"/>
        <pt x="494" y="510" on="1"/>
        <pt x="494" y="378" on="0"/>
        <pt x="630" y="240" on="0"/>
        <pt x="782" y="240" on="1"/>
        <pt x="935" y="240" on="0"/>
        <pt x="1075" y="385" on="0"/>
        <pt x="1075" y="541" on="1"/>
        <pt x="1075" y="636" on="0"/>
        <pt x="1090" y="805" on="1"/>
        <pt x="1079" y="805" on="1"/>
        <pt x="941" y="614" on="0"/>
        <pt x="684" y="614" on="1"/>
        <pt x="450" y="614" on="0"/>
        <pt x="184" y="888" on="0"/>
        <pt x="184" y="1124" on="1"/>
        <pt x="184" y="1462" on="1"/>
        <pt x="494" y="1462" on="1"/>
        <pt x="494" y="1161" on="1"/>
        <pt x="494" y="1012" on="0"/>
        <pt x="622" y="872" on="0"/>
        <pt x="756" y="872" on="1"/>
        <pt x="928" y="872" on="0"/>
        <pt x="1075" y="1053" on="0"/>
        <pt x="1075" y="1260" on="1"/>
        <pt x="1075" y="1462" on="1"/>
        <pt x="1384" y="1462" on="1"/>
      </contour>
    </TTGlyph>
    <TTGlyph name="uni10B9" xMin="184" yMin="0" xMax="1384" yMax="1462">
      <contour>
        <pt x="494" y="1102" on="1"/>
        <pt x="494" y="1080" on="0"/>
        <pt x="493" y="1034" on="0"/>
        <pt x="479" y="838" on="1"/>
        <pt x="489" y="838" on="1"/>
        <pt x="626" y="1028" on="0"/>
        <pt x="893" y="1028" on="1"/>
        <pt x="1123" y="1028" on="0"/>
        <pt x="1384" y="751" on="0"/>
        <pt x="1384" y="518" on="1"/>
        <pt x="1384" y="0" on="1"/>
        <pt x="1075" y="0" on="1"/>
        <pt x="1075" y="481" on="1"/>
        <pt x="1075" y="617" on="0"/>
        <pt x="944" y="770" on="0"/>
        <pt x="803" y="770" on="1"/>
        <pt x="633" y="770" on="0"/>
        <pt x="494" y="591" on="0"/>
        <pt x="494" y="383" on="1"/>
        <pt x="494" y="0" on="1"/>
        <pt x="184" y="0" on="1"/>
        <pt x="184" y="1462" on="1"/>
        <pt x="494" y="1462" on="1"/>
      </contour>
    </TTGlyph>
    <TTGlyph name="uni10BA" xMin="119" yMin="-20" xMax="1360" yMax="1483">
      <contour>
        <pt x="1051" y="57" on="1"/>
        <pt x="916" y="-20" on="0"/>
        <pt x="752" y="-20" on="1"/>
        <pt x="450" y="-20" on="0"/>
        <pt x="119" y="375" on="0"/>
        <pt x="119" y="733" on="1"/>
        <pt x="119" y="1087" on="0"/>
        <pt x="524" y="1483" on="0"/>
        <pt x="883" y="1483" on="1"/>
        <pt x="1108" y="1483" on="0"/>
        <pt x="1317" y="1393" on="1"/>
        <pt x="1214" y="1145" on="1"/>
        <pt x="1054" y="1225" on="0"/>
        <pt x="881" y="1225" on="1"/>
        <pt x="680" y="1225" on="0"/>
        <pt x="438" y="955" on="0"/>
        <pt x="438" y="727" on="1"/>
        <pt x="438" y="493" on="0"/>
        <pt x="623" y="238" on="0"/>
        <pt x="795" y="238" on="1"/>
        <pt x="942" y="238" on="0"/>
        <pt x="1051" y="299" on="1"/>
        <pt x="1051" y="604" on="1"/>
        <pt x="1360" y="604" on="1"/>
        <pt x="1360" y="0" on="1"/>
        <pt x="1051" y="0" on="1"/>
      </contour>
    </TTGlyph>
    <TTGlyph name="uni10BB" xMin="111" yMin="-20" xMax="1704" yMax="1462">
      <contour>
        <pt x="1262" y="561" on="1"/>
        <pt x="1262" y="384" on="0"/>
        <pt x="1123" y="121" on="0"/>
        <pt x="864" y="-20" on="0"/>
        <pt x="694" y="-20" on="1"/>
        <pt x="423" y="-20" on="0"/>
        <pt x="111" y="263" on="0"/>
        <pt x="111" y="512" on="1"/>
        <pt x="111" y="768" on="0"/>
        <pt x="395" y="1042" on="0"/>
        <pt x="662" y="1042" on="1"/>
        <pt x="952" y="1042" on="1"/>
        <pt x="952" y="1462" on="1"/>
        <pt x="1262" y="1462" on="1"/>
        <pt x="1262" y="1042" on="1"/>
        <pt x="1704" y="1042" on="1"/>
        <pt x="1704" y="555" on="1"/>
        <pt x="1421" y="555" on="1"/>
        <pt x="1421" y="793" on="1"/>
        <pt x="1262" y="793" on="1"/>
      </contour>
      <contour>
        <pt x="952" y="788" on="1"/>
        <pt x="688" y="788" on="1"/>
        <pt x="557" y="788" on="0"/>
        <pt x="430" y="652" on="0"/>
        <pt x="430" y="512" on="1"/>
        <pt x="430" y="375" on="0"/>
        <pt x="563" y="238" on="0"/>
        <pt x="690" y="238" on="1"/>
        <pt x="828" y="238" on="0"/>
        <pt x="952" y="391" on="0"/>
        <pt x="952" y="545" on="1"/>
      </contour>
    </TTGlyph>
    <TTGlyph name="uni10BC" xMin="184" yMin="0" xMax="1194" yMax="1462">
      <contour>
        <pt x="494" y="0" on="1"/>
        <pt x="184" y="0" on="1"/>
        <pt x="184" y="1462" on="1"/>
        <pt x="651" y="1462" on="1"/>
        <pt x="919" y="1462" on="0"/>
        <pt x="1194" y="1248" on="0"/>
        <pt x="1194" y="1038" on="1"/>
        <pt x="1194" y="819" on="0"/>
        <pt x="899" y="588" on="0"/>
        <pt x="627" y="588" on="1"/>
        <pt x="494" y="588" on="1"/>
        <pt x="494" y="475" on="1"/>
        <pt x="965" y="475" on="1"/>
        <pt x="965" y="70" on="1"/>
        <pt x="682" y="70" on="1"/>
        <pt x="682" y="221" on="1"/>
        <pt x="494" y="221" on="1"/>
      </contour>
      <contour>
        <pt x="494" y="842" on="1"/>
        <pt x="596" y="842" on="1"/>
        <pt x="881" y="842" on="0"/>
        <pt x="881" y="1028" on="1"/>
        <pt x="881" y="1119" on="0"/>
        <pt x="762" y="1208" on="0"/>
        <pt x="635" y="1208" on="1"/>
        <pt x="494" y="1208" on="1"/>
      </contour>
    </TTGlyph>
    <TTGlyph name="uni10BD" xMin="92" yMin="-20" xMax="1120" yMax="1483">
      <contour>
        <pt x="578" y="-20" on="1"/>
        <pt x="348" y="-20" on="0"/>
        <pt x="92" y="191" on="0"/>
        <pt x="92" y="375" on="1"/>
        <pt x="92" y="430" on="0"/>
        <pt x="106" y="479" on="1"/>
        <pt x="408" y="479" on="1"/>
        <pt x="395" y="438" on="0"/>
        <pt x="395" y="395" on="1"/>
        <pt x="395" y="321" on="0"/>
        <pt x="495" y="236" on="0"/>
        <pt x="590" y="236" on="1"/>
        <pt x="702" y="236" on="0"/>
        <pt x="817" y="315" on="0"/>
        <pt x="817" y="391" on="1"/>
        <pt x="817" y="434" on="0"/>
        <pt x="763" y="504" on="0"/>
        <pt x="660" y="570" on="0"/>
        <pt x="514" y="635" on="1"/>
        <pt x="389" y="689" on="0"/>
        <pt x="254" y="782" on="0"/>
        <pt x="176" y="878" on="0"/>
        <pt x="133" y="995" on="0"/>
        <pt x="133" y="1067" on="1"/>
        <pt x="133" y="1262" on="0"/>
        <pt x="383" y="1483" on="0"/>
        <pt x="606" y="1483" on="1"/>
        <pt x="838" y="1483" on="0"/>
        <pt x="1087" y="1277" on="0"/>
        <pt x="1087" y="1085" on="1"/>
        <pt x="1087" y="1065" on="1"/>
        <pt x="1085" y="1044" on="1"/>
        <pt x="782" y="1044" on="1"/>
        <pt x="784" y="1065" on="1"/>
        <pt x="784" y="1083" on="1"/>
        <pt x="784" y="1151" on="0"/>
        <pt x="702" y="1225" on="0"/>
        <pt x="604" y="1225" on="1"/>
        <pt x="523" y="1225" on="0"/>
        <pt x="436" y="1143" on="0"/>
        <pt x="436" y="1077" on="1"/>
        <pt x="436" y="1037" on="0"/>
        <pt x="478" y="976" on="0"/>
        <pt x="565" y="920" on="0"/>
        <pt x="735" y="844" on="1"/>
        <pt x="890" y="776" on="0"/>
        <pt x="1046" y="655" on="0"/>
        <pt x="1120" y="506" on="0"/>
        <pt x="1120" y="406" on="1"/>
        <pt x="1120" y="204" on="0"/>
        <pt x="837" y="-20" on="0"/>
      </contour>
    </TTGlyph>
    <TTGlyph name="uni10BE" xMin="184" yMin="0" xMax="1384" yMax="1462">
      <contour>
        <pt x="1309" y="258" on="1"/>
        <pt x="1309" y="0" on="1"/>
        <pt x="184" y="0" on="1"/>
        <pt x="184" y="1462" on="1"/>
        <pt x="494" y="1462" on="1"/>
        <pt x="494" y="1079" on="1"/>
        <pt x="494" y="872" on="0"/>
        <pt x="632" y="692" on="0"/>
        <pt x="803" y="692" on="1"/>
        <pt x="943" y="692" on="0"/>
        <pt x="1075" y="836" on="0"/>
        <pt x="1075" y="981" on="1"/>
        <pt x="1075" y="1462" on="1"/>
        <pt x="1384" y="1462" on="1"/>
        <pt x="1384" y="944" on="1"/>
        <pt x="1384" y="707" on="0"/>
        <pt x="1117" y="434" on="0"/>
        <pt x="877" y="434" on="1"/>
        <pt x="742" y="434" on="0"/>
        <pt x="554" y="529" on="0"/>
        <pt x="489" y="625" on="1"/>
        <pt x="479" y="625" on="1"/>
        <pt x="494" y="430" on="0"/>
        <pt x="494" y="360" on="1"/>
        <pt x="494" y="258" on="1"/>
      </contour>
    </TTGlyph>
    <TTGlyph name="uni10BF" xMin="41" yMin="0" xMax="1292" yMax="1462">
      <contour>
        <pt x="242" y="1217" on="1"/>
        <pt x="41" y="1217" on="1"/>
        <pt x="41" y="1462" on="1"/>
        <pt x="1260" y="1462" on="1"/>
        <pt x="1260" y="1235" on="1"/>
        <pt x="936" y="723" on="1"/>
        <pt x="1292" y="190" on="1"/>
        <pt x="952" y="190" on="1"/>
        <pt x="735" y="539" on="1"/>
        <pt x="403" y="0" on="1"/>
        <pt x="72" y="0" on="1"/>
        <pt x="549" y="739" on="1"/>
      </contour>
      <contour>
        <pt x="752" y="922" on="1"/>
        <pt x="924" y="1217" on="1"/>
        <pt x="573" y="1217" on="1"/>
      </contour>
    </TTGlyph>
    <TTGlyph name="uni10C0" xMin="51" yMin="-20" xMax="1645" yMax="1462">
      <contour>
        <pt x="803" y="543" on="1"/>
        <pt x="803" y="388" on="0"/>
        <pt x="931" y="240" on="0"/>
        <pt x="1071" y="240" on="1"/>
        <pt x="1211" y="240" on="0"/>
        <pt x="1335" y="391" on="0"/>
        <pt x="1335" y="543" on="1"/>
        <pt x="1335" y="582" on="1"/>
        <pt x="1645" y="582" on="1"/>
        <pt x="1645" y="516" on="1"/>
        <pt x="1645" y="354" on="0"/>
        <pt x="1506" y="111" on="0"/>
        <pt x="1243" y="-20" on="0"/>
        <pt x="1063" y="-20" on="1"/>
        <pt x="794" y="-20" on="0"/>
        <pt x="494" y="266" on="0"/>
        <pt x="494" y="520" on="1"/>
        <pt x="494" y="1208" on="1"/>
        <pt x="334" y="1208" on="1"/>
        <pt x="334" y="975" on="1"/>
        <pt x="51" y="975" on="1"/>
        <pt x="51" y="1462" on="1"/>
        <pt x="803" y="1462" on="1"/>
      </contour>
    </TTGlyph>
    <TTGlyph name="uni10C1" xMin="184" yMin="0" xMax="1534" yMax="1462">
      <contour>
        <pt x="1012" y="592" on="1"/>
        <pt x="1012" y="881" on="0"/>
        <pt x="772" y="881" on="1"/>
        <pt x="620" y="881" on="0"/>
        <pt x="494" y="704" on="0"/>
        <pt x="494" y="494" on="1"/>
        <pt x="494" y="0" on="1"/>
        <pt x="184" y="0" on="1"/>
        <pt x="184" y="1462" on="1"/>
        <pt x="494" y="1462" on="1"/>
        <pt x="494" y="1212" on="1"/>
        <pt x="494" y="1143" on="0"/>
        <pt x="479" y="948" on="1"/>
        <pt x="496" y="948" on="1"/>
        <pt x="620" y="1139" on="0"/>
        <pt x="866" y="1139" on="1"/>
        <pt x="1058" y="1139" on="0"/>
        <pt x="1296" y="915" on="0"/>
        <pt x="1317" y="711" on="1"/>
        <pt x="1534" y="711" on="1"/>
        <pt x="1534" y="455" on="1"/>
        <pt x="1012" y="455" on="1"/>
      </contour>
    </TTGlyph>
    <TTGlyph name="uni10C2" xMin="98" yMin="-20" xMax="1247" yMax="1462">
      <contour>
        <pt x="483" y="238" on="1"/>
        <pt x="696" y="238" on="0"/>
        <pt x="928" y="455" on="0"/>
        <pt x="928" y="647" on="1"/>
        <pt x="928" y="839" on="0"/>
        <pt x="718" y="1032" on="0"/>
        <pt x="487" y="1032" on="1"/>
        <pt x="145" y="1032" on="1"/>
        <pt x="145" y="1462" on="1"/>
        <pt x="428" y="1462" on="1"/>
        <pt x="428" y="1290" on="1"/>
        <pt x="516" y="1290" on="1"/>
        <pt x="877" y="1290" on="0"/>
        <pt x="1247" y="960" on="0"/>
        <pt x="1247" y="645" on="1"/>
        <pt x="1247" y="444" on="0"/>
        <pt x="1064" y="142" on="0"/>
        <pt x="719" y="-20" on="0"/>
        <pt x="487" y="-20" on="1"/>
        <pt x="379" y="-20" on="0"/>
        <pt x="199" y="14" on="0"/>
        <pt x="98" y="55" on="1"/>
        <pt x="98" y="315" on="1"/>
        <pt x="319" y="238" on="0"/>
      </contour>
    </TTGlyph>
    <TTGlyph name="uni10C3" xMin="102" yMin="0" xMax="1313" yMax="1462">
      <contour>
        <pt x="102" y="862" on="1"/>
        <pt x="102" y="965" on="0"/>
        <pt x="179" y="1185" on="0"/>
        <pt x="240" y="1257" on="1"/>
        <pt x="559" y="1257" on="1"/>
        <pt x="497" y="1191" on="0"/>
        <pt x="422" y="1002" on="0"/>
        <pt x="422" y="901" on="1"/>
        <pt x="422" y="773" on="0"/>
        <pt x="555" y="662" on="0"/>
        <pt x="696" y="662" on="1"/>
        <pt x="1004" y="662" on="0"/>
        <pt x="1004" y="1049" on="1"/>
        <pt x="1004" y="1462" on="1"/>
        <pt x="1313" y="1462" on="1"/>
        <pt x="1313" y="0" on="1"/>
        <pt x="1004" y="0" on="1"/>
        <pt x="1004" y="342" on="1"/>
        <pt x="1004" y="452" on="0"/>
        <pt x="1018" y="606" on="1"/>
        <pt x="1001" y="606" on="1"/>
        <pt x="875" y="403" on="0"/>
        <pt x="575" y="403" on="1"/>
        <pt x="358" y="403" on="0"/>
        <pt x="102" y="649" on="0"/>
      </contour>
    </TTGlyph>
    <TTGlyph name="uni10C4" xMin="156" yMin="0" xMax="1354" yMax="1462">
      <contour>
        <pt x="600" y="475" on="1"/>
        <pt x="388" y="510" on="0"/>
        <pt x="156" y="787" on="0"/>
        <pt x="156" y="1004" on="1"/>
        <pt x="156" y="1462" on="1"/>
        <pt x="465" y="1462" on="1"/>
        <pt x="465" y="1051" on="1"/>
        <pt x="465" y="881" on="0"/>
        <pt x="602" y="723" on="0"/>
        <pt x="758" y="723" on="1"/>
        <pt x="909" y="723" on="0"/>
        <pt x="1044" y="880" on="0"/>
        <pt x="1044" y="1053" on="1"/>
        <pt x="1044" y="1462" on="1"/>
        <pt x="1354" y="1462" on="1"/>
        <pt x="1354" y="999" on="1"/>
        <pt x="1354" y="791" on="0"/>
        <pt x="1121" y="513" on="0"/>
        <pt x="909" y="475" on="1"/>
        <pt x="909" y="0" on="1"/>
        <pt x="600" y="0" on="1"/>
      </contour>
    </TTGlyph>
    <TTGlyph name="uni10C5" xMin="86" yMin="-20" xMax="1669" yMax="1462">
      <contour>
        <pt x="705" y="1092" on="1"/>
        <pt x="705" y="1286" on="0"/>
        <pt x="940" y="1462" on="0"/>
        <pt x="1182" y="1462" on="1"/>
        <pt x="1424" y="1462" on="0"/>
        <pt x="1669" y="1290" on="0"/>
        <pt x="1669" y="1122" on="1"/>
        <pt x="1669" y="766" on="0"/>
        <pt x="1143" y="766" on="1"/>
        <pt x="1014" y="766" on="1"/>
        <pt x="1014" y="633" on="1"/>
        <pt x="1407" y="633" on="1"/>
        <pt x="1407" y="403" on="1"/>
        <pt x="1014" y="403" on="1"/>
        <pt x="1014" y="379" on="1"/>
        <pt x="1014" y="192" on="0"/>
        <pt x="769" y="-20" on="0"/>
        <pt x="545" y="-20" on="1"/>
        <pt x="330" y="-20" on="0"/>
        <pt x="86" y="159" on="0"/>
        <pt x="86" y="309" on="1"/>
        <pt x="86" y="477" on="0"/>
        <pt x="295" y="633" on="0"/>
        <pt x="530" y="633" on="1"/>
        <pt x="705" y="633" on="1"/>
      </contour>
      <contour>
        <pt x="1014" y="995" on="1"/>
        <pt x="1133" y="995" on="1"/>
        <pt x="1250" y="995" on="0"/>
        <pt x="1350" y="1044" on="0"/>
        <pt x="1350" y="1114" on="1"/>
        <pt x="1350" y="1175" on="0"/>
        <pt x="1275" y="1233" on="0"/>
        <pt x="1186" y="1233" on="1"/>
        <pt x="1093" y="1233" on="0"/>
        <pt x="1014" y="1164" on="0"/>
        <pt x="1014" y="1083" on="1"/>
      </contour>
      <contour>
        <pt x="553" y="209" on="1"/>
        <pt x="634" y="209" on="0"/>
        <pt x="705" y="278" on="0"/>
        <pt x="705" y="358" on="1"/>
        <pt x="705" y="403" on="1"/>
        <pt x="567" y="403" on="1"/>
        <pt x="486" y="403" on="0"/>
        <pt x="406" y="359" on="0"/>
        <pt x="406" y="305" on="1"/>
        <pt x="406" y="209" on="0"/>
      </contour>
    </TTGlyph>
    <TTGlyph name="uni10D0" xMin="86" yMin="-20" xMax="1155" yMax="1118">
      <contour>
        <pt x="397" y="457" on="1"/>
        <pt x="397" y="341" on="0"/>
        <pt x="509" y="225" on="0"/>
        <pt x="627" y="225" on="1"/>
        <pt x="730" y="225" on="0"/>
        <pt x="844" y="334" on="0"/>
        <pt x="844" y="432" on="1"/>
        <pt x="844" y="502" on="0"/>
        <pt x="771" y="613" on="0"/>
        <pt x="680" y="674" on="1"/>
        <pt x="546" y="765" on="0"/>
        <pt x="453" y="956" on="0"/>
        <pt x="453" y="1118" on="1"/>
        <pt x="758" y="1118" on="1"/>
        <pt x="758" y="1050" on="0"/>
        <pt x="783" y="974" on="0"/>
        <pt x="841" y="905" on="0"/>
        <pt x="891" y="874" on="1"/>
        <pt x="1026" y="787" on="0"/>
        <pt x="1155" y="583" on="0"/>
        <pt x="1155" y="442" on="1"/>
        <pt x="1155" y="227" on="0"/>
        <pt x="869" y="-20" on="0"/>
        <pt x="623" y="-20" on="1"/>
        <pt x="357" y="-20" on="0"/>
        <pt x="86" y="223" on="0"/>
        <pt x="86" y="455" on="1"/>
        <pt x="86" y="526" on="0"/>
        <pt x="119" y="623" on="1"/>
        <pt x="432" y="623" on="1"/>
        <pt x="415" y="582" on="0"/>
        <pt x="397" y="488" on="0"/>
      </contour>
    </TTGlyph>
    <TTGlyph name="uni10D1" xMin="92" yMin="-20" xMax="1176" yMax="1556">
      <contour>
        <pt x="1176" y="561" on="1"/>
        <pt x="1176" y="288" on="0"/>
        <pt x="888" y="-20" on="0"/>
        <pt x="631" y="-20" on="1"/>
        <pt x="470" y="-20" on="0"/>
        <pt x="224" y="121" on="0"/>
        <pt x="92" y="385" on="0"/>
        <pt x="92" y="561" on="1"/>
        <pt x="92" y="803" on="0"/>
        <pt x="322" y="1102" on="0"/>
        <pt x="537" y="1133" on="1"/>
        <pt x="553" y="1157" on="0"/>
        <pt x="553" y="1188" on="1"/>
        <pt x="553" y="1245" on="0"/>
        <pt x="463" y="1245" on="1"/>
        <pt x="354" y="1245" on="0"/>
        <pt x="260" y="1392" on="0"/>
        <pt x="260" y="1556" on="1"/>
        <pt x="543" y="1556" on="1"/>
        <pt x="543" y="1495" on="0"/>
        <pt x="578" y="1460" on="0"/>
        <pt x="641" y="1460" on="1"/>
        <pt x="717" y="1460" on="0"/>
        <pt x="815" y="1361" on="0"/>
        <pt x="815" y="1280" on="1"/>
        <pt x="815" y="1185" on="0"/>
        <pt x="778" y="1122" on="1"/>
        <pt x="965" y="1080" on="0"/>
        <pt x="1176" y="785" on="0"/>
      </contour>
      <contour>
        <pt x="403" y="561" on="1"/>
        <pt x="403" y="395" on="0"/>
        <pt x="512" y="225" on="0"/>
        <pt x="635" y="225" on="1"/>
        <pt x="757" y="225" on="0"/>
        <pt x="864" y="394" on="0"/>
        <pt x="864" y="561" on="1"/>
        <pt x="864" y="727" on="0"/>
        <pt x="756" y="893" on="0"/>
        <pt x="633" y="893" on="1"/>
        <pt x="511" y="893" on="0"/>
        <pt x="403" y="728" on="0"/>
      </contour>
    </TTGlyph>
    <TTGlyph name="uni10D2" xMin="92" yMin="-492" xMax="1176" yMax="1139">
      <contour>
        <pt x="1176" y="90" on="1"/>
        <pt x="1176" y="-185" on="0"/>
        <pt x="887" y="-492" on="0"/>
        <pt x="631" y="-492" on="1"/>
        <pt x="470" y="-492" on="0"/>
        <pt x="224" y="-351" on="0"/>
        <pt x="92" y="-87" on="0"/>
        <pt x="92" y="90" on="1"/>
        <pt x="92" y="364" on="0"/>
        <pt x="378" y="668" on="0"/>
        <pt x="637" y="668" on="1"/>
        <pt x="686" y="666" on="1"/>
        <pt x="723" y="733" on="0"/>
        <pt x="723" y="809" on="1"/>
        <pt x="723" y="869" on="0"/>
        <pt x="663" y="922" on="0"/>
        <pt x="616" y="922" on="1"/>
        <pt x="516" y="922" on="0"/>
        <pt x="516" y="819" on="1"/>
        <pt x="516" y="797" on="0"/>
        <pt x="522" y="770" on="1"/>
        <pt x="279" y="770" on="1"/>
        <pt x="270" y="804" on="0"/>
        <pt x="270" y="842" on="1"/>
        <pt x="270" y="985" on="0"/>
        <pt x="453" y="1139" on="0"/>
        <pt x="616" y="1139" on="1"/>
        <pt x="782" y="1139" on="0"/>
        <pt x="969" y="967" on="0"/>
        <pt x="969" y="815" on="1"/>
        <pt x="969" y="705" on="0"/>
        <pt x="909" y="602" on="1"/>
        <pt x="1036" y="533" on="0"/>
        <pt x="1176" y="269" on="0"/>
      </contour>
      <contour>
        <pt x="403" y="90" on="1"/>
        <pt x="403" y="-76" on="0"/>
        <pt x="512" y="-246" on="0"/>
        <pt x="635" y="-246" on="1"/>
        <pt x="757" y="-246" on="0"/>
        <pt x="864" y="-77" on="0"/>
        <pt x="864" y="90" on="1"/>
        <pt x="864" y="256" on="0"/>
        <pt x="756" y="422" on="0"/>
        <pt x="633" y="422" on="1"/>
        <pt x="511" y="422" on="0"/>
        <pt x="403" y="257" on="0"/>
      </contour>
    </TTGlyph>
    <TTGlyph name="uni10D3" xMin="111" yMin="-492" xMax="1784" yMax="1139">
      <contour>
        <pt x="1090" y="561" on="1"/>
        <pt x="1090" y="385" on="0"/>
        <pt x="1179" y="225" on="0"/>
        <pt x="1276" y="225" on="1"/>
        <pt x="1379" y="225" on="0"/>
        <pt x="1473" y="394" on="0"/>
        <pt x="1473" y="561" on="1"/>
        <pt x="1473" y="893" on="0"/>
        <pt x="1278" y="893" on="1"/>
        <pt x="1180" y="893" on="0"/>
        <pt x="1090" y="726" on="0"/>
      </contour>
      <contour>
        <pt x="422" y="565" on="1"/>
        <pt x="422" y="286" on="0"/>
        <pt x="609" y="2" on="0"/>
        <pt x="819" y="-43" on="1"/>
        <pt x="1024" y="-86" on="0"/>
        <pt x="1259" y="-230" on="0"/>
        <pt x="1331" y="-346" on="1"/>
        <pt x="1122" y="-492" on="1"/>
        <pt x="1047" y="-387" on="0"/>
        <pt x="828" y="-283" on="0"/>
        <pt x="670" y="-283" on="1"/>
        <pt x="582" y="-283" on="0"/>
        <pt x="395" y="-336" on="0"/>
        <pt x="313" y="-381" on="1"/>
        <pt x="205" y="-154" on="1"/>
        <pt x="276" y="-109" on="0"/>
        <pt x="391" y="-76" on="1"/>
        <pt x="258" y="8" on="0"/>
        <pt x="111" y="343" on="0"/>
        <pt x="111" y="575" on="1"/>
        <pt x="111" y="838" on="0"/>
        <pt x="368" y="1139" on="0"/>
        <pt x="594" y="1139" on="1"/>
        <pt x="832" y="1139" on="0"/>
        <pt x="934" y="969" on="1"/>
        <pt x="942" y="969" on="1"/>
        <pt x="1004" y="1061" on="0"/>
        <pt x="1168" y="1139" on="0"/>
        <pt x="1284" y="1139" on="1"/>
        <pt x="1515" y="1139" on="0"/>
        <pt x="1784" y="830" on="0"/>
        <pt x="1784" y="561" on="1"/>
        <pt x="1784" y="292" on="0"/>
        <pt x="1515" y="-20" on="0"/>
        <pt x="1292" y="-20" on="1"/>
        <pt x="1041" y="-20" on="0"/>
        <pt x="786" y="272" on="0"/>
        <pt x="786" y="561" on="1"/>
        <pt x="786" y="739" on="0"/>
        <pt x="707" y="893" on="0"/>
        <pt x="606" y="893" on="1"/>
        <pt x="519" y="893" on="0"/>
        <pt x="422" y="724" on="0"/>
      </contour>
    </TTGlyph>
    <TTGlyph name="uni10D4" xMin="86" yMin="-492" xMax="1192" yMax="1139">
      <contour>
        <pt x="156" y="512" on="1"/>
        <pt x="137" y="585" on="0"/>
        <pt x="137" y="655" on="1"/>
        <pt x="137" y="877" on="0"/>
        <pt x="418" y="1139" on="0"/>
        <pt x="657" y="1139" on="1"/>
        <pt x="919" y="1139" on="0"/>
        <pt x="1192" y="845" on="0"/>
        <pt x="1192" y="549" on="1"/>
        <pt x="1192" y="92" on="1"/>
        <pt x="1192" y="-186" on="0"/>
        <pt x="903" y="-492" on="0"/>
        <pt x="633" y="-492" on="1"/>
        <pt x="365" y="-492" on="0"/>
        <pt x="86" y="-248" on="0"/>
        <pt x="86" y="-16" on="1"/>
        <pt x="86" y="93" on="0"/>
        <pt x="135" y="203" on="1"/>
        <pt x="446" y="203" on="1"/>
        <pt x="427" y="160" on="0"/>
        <pt x="397" y="42" on="0"/>
        <pt x="397" y="-8" on="1"/>
        <pt x="397" y="-125" on="0"/>
        <pt x="506" y="-246" on="0"/>
        <pt x="629" y="-246" on="1"/>
        <pt x="767" y="-246" on="0"/>
        <pt x="881" y="-65" on="0"/>
        <pt x="881" y="129" on="1"/>
        <pt x="881" y="543" on="1"/>
        <pt x="881" y="729" on="0"/>
        <pt x="780" y="893" on="0"/>
        <pt x="655" y="893" on="1"/>
        <pt x="550" y="893" on="0"/>
        <pt x="449" y="774" on="0"/>
        <pt x="449" y="649" on="1"/>
        <pt x="449" y="591" on="0"/>
        <pt x="473" y="514" on="1"/>
      </contour>
    </TTGlyph>
    <TTGlyph name="uni10D5" xMin="61" yMin="-492" xMax="1163" yMax="1139">
      <contour>
        <pt x="121" y="653" on="1"/>
        <pt x="111" y="691" on="0"/>
        <pt x="111" y="741" on="1"/>
        <pt x="111" y="928" on="0"/>
        <pt x="382" y="1139" on="0"/>
        <pt x="623" y="1139" on="1"/>
        <pt x="861" y="1139" on="0"/>
        <pt x="1135" y="917" on="0"/>
        <pt x="1135" y="725" on="1"/>
        <pt x="1135" y="606" on="0"/>
        <pt x="1009" y="423" on="0"/>
        <pt x="895" y="373" on="1"/>
        <pt x="1021" y="326" on="0"/>
        <pt x="1163" y="122" on="0"/>
        <pt x="1163" y="-14" on="1"/>
        <pt x="1163" y="-238" on="0"/>
        <pt x="871" y="-492" on="0"/>
        <pt x="608" y="-492" on="1"/>
        <pt x="356" y="-492" on="0"/>
        <pt x="61" y="-276" on="0"/>
        <pt x="61" y="-88" on="1"/>
        <pt x="61" y="-9" on="0"/>
        <pt x="90" y="66" on="1"/>
        <pt x="401" y="66" on="1"/>
        <pt x="383" y="22" on="0"/>
        <pt x="373" y="-35" on="0"/>
        <pt x="373" y="-70" on="1"/>
        <pt x="373" y="-159" on="0"/>
        <pt x="497" y="-246" on="0"/>
        <pt x="608" y="-246" on="1"/>
        <pt x="852" y="-246" on="0"/>
        <pt x="852" y="-10" on="1"/>
        <pt x="852" y="120" on="0"/>
        <pt x="716" y="238" on="0"/>
        <pt x="559" y="238" on="1"/>
        <pt x="342" y="238" on="1"/>
        <pt x="342" y="483" on="1"/>
        <pt x="561" y="483" on="1"/>
        <pt x="687" y="483" on="0"/>
        <pt x="823" y="605" on="0"/>
        <pt x="823" y="719" on="1"/>
        <pt x="823" y="804" on="0"/>
        <pt x="717" y="893" on="0"/>
        <pt x="623" y="893" on="1"/>
        <pt x="529" y="893" on="0"/>
        <pt x="422" y="815" on="0"/>
        <pt x="422" y="739" on="1"/>
        <pt x="422" y="688" on="0"/>
        <pt x="434" y="653" on="1"/>
      </contour>
    </TTGlyph>
    <TTGlyph name="uni10D6" xMin="-20" yMin="-20" xMax="1292" yMax="1577">
      <contour>
        <pt x="1292" y="561" on="1"/>
        <pt x="1292" y="288" on="0"/>
        <pt x="1004" y="-20" on="0"/>
        <pt x="748" y="-20" on="1"/>
        <pt x="587" y="-20" on="0"/>
        <pt x="341" y="121" on="0"/>
        <pt x="209" y="385" on="0"/>
        <pt x="209" y="561" on="1"/>
        <pt x="209" y="701" on="0"/>
        <pt x="244" y="799" on="1"/>
        <pt x="119" y="833" on="0"/>
        <pt x="-20" y="1031" on="0"/>
        <pt x="-20" y="1176" on="1"/>
        <pt x="-20" y="1361" on="0"/>
        <pt x="186" y="1577" on="0"/>
        <pt x="360" y="1577" on="1"/>
        <pt x="533" y="1577" on="0"/>
        <pt x="743" y="1357" on="0"/>
        <pt x="743" y="1176" on="1"/>
        <pt x="743" y="1157" on="1"/>
        <pt x="741" y="1139" on="1"/>
        <pt x="754" y="1139" on="1"/>
        <pt x="915" y="1139" on="0"/>
        <pt x="1160" y="999" on="0"/>
        <pt x="1292" y="736" on="0"/>
      </contour>
      <contour>
        <pt x="520" y="561" on="1"/>
        <pt x="520" y="395" on="0"/>
        <pt x="629" y="225" on="0"/>
        <pt x="752" y="225" on="1"/>
        <pt x="873" y="225" on="0"/>
        <pt x="981" y="394" on="0"/>
        <pt x="981" y="561" on="1"/>
        <pt x="981" y="727" on="0"/>
        <pt x="872" y="893" on="0"/>
        <pt x="750" y="893" on="1"/>
        <pt x="628" y="893" on="0"/>
        <pt x="520" y="728" on="0"/>
      </contour>
      <contour>
        <pt x="246" y="1176" on="1"/>
        <pt x="246" y="999" on="0"/>
        <pt x="362" y="999" on="1"/>
        <pt x="421" y="999" on="0"/>
        <pt x="477" y="1085" on="0"/>
        <pt x="477" y="1176" on="1"/>
        <pt x="477" y="1267" on="0"/>
        <pt x="419" y="1352" on="0"/>
        <pt x="360" y="1352" on="1"/>
        <pt x="302" y="1352" on="0"/>
        <pt x="246" y="1267" on="0"/>
      </contour>
    </TTGlyph>
    <TTGlyph name="uni10D7" xMin="92" yMin="-20" xMax="1765" yMax="1139">
      <contour>
        <pt x="786" y="561" on="1"/>
        <pt x="786" y="732" on="0"/>
        <pt x="700" y="893" on="0"/>
        <pt x="610" y="893" on="1"/>
        <pt x="501" y="893" on="0"/>
        <pt x="403" y="732" on="0"/>
        <pt x="403" y="561" on="1"/>
        <pt x="403" y="394" on="0"/>
        <pt x="497" y="225" on="0"/>
        <pt x="600" y="225" on="1"/>
        <pt x="696" y="225" on="0"/>
        <pt x="786" y="383" on="0"/>
      </contour>
      <contour>
        <pt x="584" y="-20" on="1"/>
        <pt x="360" y="-20" on="0"/>
        <pt x="92" y="292" on="0"/>
        <pt x="92" y="561" on="1"/>
        <pt x="92" y="830" on="0"/>
        <pt x="364" y="1139" on="0"/>
        <pt x="602" y="1139" on="1"/>
        <pt x="717" y="1139" on="0"/>
        <pt x="879" y="1058" on="0"/>
        <pt x="934" y="969" on="1"/>
        <pt x="942" y="969" on="1"/>
        <pt x="1044" y="1139" on="0"/>
        <pt x="1282" y="1139" on="1"/>
        <pt x="1510" y="1139" on="0"/>
        <pt x="1765" y="835" on="0"/>
        <pt x="1765" y="575" on="1"/>
        <pt x="1765" y="417" on="0"/>
        <pt x="1702" y="161" on="0"/>
        <pt x="1626" y="0" on="1"/>
        <pt x="1309" y="0" on="1"/>
        <pt x="1454" y="261" on="0"/>
        <pt x="1454" y="565" on="1"/>
        <pt x="1454" y="720" on="0"/>
        <pt x="1355" y="893" on="0"/>
        <pt x="1270" y="893" on="1"/>
        <pt x="1169" y="893" on="0"/>
        <pt x="1090" y="737" on="0"/>
        <pt x="1090" y="561" on="1"/>
        <pt x="1090" y="286" on="0"/>
        <pt x="825" y="-20" on="0"/>
      </contour>
    </TTGlyph>
    <TTGlyph name="uni10D8" xMin="111" yMin="0" xMax="1190" yMax="1139">
      <contour>
        <pt x="651" y="1139" on="1"/>
        <pt x="899" y="1139" on="0"/>
        <pt x="1190" y="834" on="0"/>
        <pt x="1190" y="575" on="1"/>
        <pt x="1190" y="417" on="0"/>
        <pt x="1127" y="161" on="0"/>
        <pt x="1051" y="0" on="1"/>
        <pt x="733" y="0" on="1"/>
        <pt x="879" y="262" on="0"/>
        <pt x="879" y="565" on="1"/>
        <pt x="879" y="720" on="0"/>
        <pt x="757" y="893" on="0"/>
        <pt x="649" y="893" on="1"/>
        <pt x="541" y="893" on="0"/>
        <pt x="422" y="719" on="0"/>
        <pt x="422" y="569" on="1"/>
        <pt x="422" y="425" on="0"/>
        <pt x="492" y="159" on="0"/>
        <pt x="567" y="0" on="1"/>
        <pt x="250" y="0" on="1"/>
        <pt x="171" y="165" on="0"/>
        <pt x="111" y="425" on="0"/>
        <pt x="111" y="575" on="1"/>
        <pt x="111" y="833" on="0"/>
        <pt x="407" y="1139" on="0"/>
      </contour>
    </TTGlyph>
    <TTGlyph name="uni10D9" xMin="-10" yMin="-492" xMax="1092" yMax="1139">
      <contour>
        <pt x="414" y="1139" on="1"/>
        <pt x="541" y="1139" on="1"/>
        <pt x="803" y="1139" on="0"/>
        <pt x="1063" y="929" on="0"/>
        <pt x="1063" y="725" on="1"/>
        <pt x="1063" y="606" on="0"/>
        <pt x="937" y="423" on="0"/>
        <pt x="823" y="373" on="1"/>
        <pt x="948" y="327" on="0"/>
        <pt x="1092" y="123" on="0"/>
        <pt x="1092" y="-14" on="1"/>
        <pt x="1092" y="-239" on="0"/>
        <pt x="798" y="-492" on="0"/>
        <pt x="537" y="-492" on="1"/>
        <pt x="284" y="-492" on="0"/>
        <pt x="-10" y="-276" on="0"/>
        <pt x="-10" y="-88" on="1"/>
        <pt x="-10" y="-6" on="0"/>
        <pt x="18" y="66" on="1"/>
        <pt x="330" y="66" on="1"/>
        <pt x="312" y="28" on="0"/>
        <pt x="301" y="-34" on="0"/>
        <pt x="301" y="-70" on="1"/>
        <pt x="301" y="-159" on="0"/>
        <pt x="425" y="-246" on="0"/>
        <pt x="537" y="-246" on="1"/>
        <pt x="780" y="-246" on="0"/>
        <pt x="780" y="-10" on="1"/>
        <pt x="780" y="120" on="0"/>
        <pt x="644" y="238" on="0"/>
        <pt x="487" y="238" on="1"/>
        <pt x="414" y="238" on="1"/>
        <pt x="414" y="483" on="1"/>
        <pt x="489" y="483" on="1"/>
        <pt x="612" y="483" on="0"/>
        <pt x="752" y="596" on="0"/>
        <pt x="752" y="692" on="1"/>
        <pt x="752" y="796" on="0"/>
        <pt x="640" y="893" on="0"/>
        <pt x="526" y="893" on="1"/>
        <pt x="414" y="893" on="1"/>
      </contour>
    </TTGlyph>
    <TTGlyph name="uni10DA" xMin="111" yMin="-492" xMax="2259" yMax="1139">
      <contour>
        <pt x="422" y="569" on="1"/>
        <pt x="422" y="414" on="0"/>
        <pt x="536" y="169" on="0"/>
        <pt x="747" y="35" on="0"/>
        <pt x="887" y="35" on="1"/>
        <pt x="1148" y="35" on="0"/>
        <pt x="1534" y="-133" on="0"/>
        <pt x="1700" y="-315" on="1"/>
        <pt x="1522" y="-492" on="1"/>
        <pt x="1264" y="-211" on="0"/>
        <pt x="866" y="-211" on="1"/>
        <pt x="747" y="-211" on="0"/>
        <pt x="527" y="-295" on="0"/>
        <pt x="444" y="-375" on="1"/>
        <pt x="283" y="-182" on="1"/>
        <pt x="380" y="-99" on="0"/>
        <pt x="498" y="-49" on="1"/>
        <pt x="376" y="13" on="0"/>
        <pt x="201" y="212" on="0"/>
        <pt x="111" y="452" on="0"/>
        <pt x="111" y="575" on="1"/>
        <pt x="111" y="842" on="0"/>
        <pt x="343" y="1139" on="0"/>
        <pt x="549" y="1139" on="1"/>
        <pt x="660" y="1139" on="0"/>
        <pt x="815" y="1062" on="0"/>
        <pt x="877" y="969" on="1"/>
        <pt x="887" y="969" on="1"/>
        <pt x="938" y="1058" on="0"/>
        <pt x="1084" y="1139" on="0"/>
        <pt x="1184" y="1139" on="1"/>
        <pt x="1387" y="1139" on="0"/>
        <pt x="1483" y="969" on="1"/>
        <pt x="1491" y="969" on="1"/>
        <pt x="1545" y="1061" on="0"/>
        <pt x="1697" y="1139" on="0"/>
        <pt x="1808" y="1139" on="1"/>
        <pt x="1944" y="1139" on="0"/>
        <pt x="2147" y="1007" on="0"/>
        <pt x="2259" y="752" on="0"/>
        <pt x="2259" y="575" on="1"/>
        <pt x="2259" y="417" on="0"/>
        <pt x="2196" y="161" on="0"/>
        <pt x="2120" y="0" on="1"/>
        <pt x="1802" y="0" on="1"/>
        <pt x="1948" y="259" on="0"/>
        <pt x="1948" y="565" on="1"/>
        <pt x="1948" y="719" on="0"/>
        <pt x="1856" y="893" on="0"/>
        <pt x="1776" y="893" on="1"/>
        <pt x="1699" y="893" on="0"/>
        <pt x="1636" y="773" on="0"/>
        <pt x="1636" y="625" on="1"/>
        <pt x="1636" y="418" on="1"/>
        <pt x="1333" y="418" on="1"/>
        <pt x="1333" y="625" on="1"/>
        <pt x="1333" y="776" on="0"/>
        <pt x="1261" y="893" on="0"/>
        <pt x="1184" y="893" on="1"/>
        <pt x="1108" y="893" on="0"/>
        <pt x="1036" y="769" on="0"/>
        <pt x="1036" y="625" on="1"/>
        <pt x="1036" y="418" on="1"/>
        <pt x="733" y="418" on="1"/>
        <pt x="733" y="625" on="1"/>
        <pt x="733" y="760" on="0"/>
        <pt x="663" y="893" on="0"/>
        <pt x="580" y="893" on="1"/>
        <pt x="502" y="893" on="0"/>
        <pt x="422" y="722" on="0"/>
      </contour>
    </TTGlyph>
    <TTGlyph name="uni10DB" xMin="92" yMin="-20" xMax="1176" yMax="1567">
      <contour>
        <pt x="864" y="537" on="1"/>
        <pt x="864" y="692" on="0"/>
        <pt x="757" y="846" on="0"/>
        <pt x="635" y="846" on="1"/>
        <pt x="512" y="846" on="0"/>
        <pt x="403" y="691" on="0"/>
        <pt x="403" y="537" on="1"/>
        <pt x="403" y="382" on="0"/>
        <pt x="511" y="225" on="0"/>
        <pt x="633" y="225" on="1"/>
        <pt x="747" y="225" on="0"/>
        <pt x="864" y="387" on="0"/>
      </contour>
      <contour>
        <pt x="598" y="1321" on="1"/>
        <pt x="504" y="1321" on="0"/>
        <pt x="428" y="1262" on="0"/>
        <pt x="428" y="1208" on="1"/>
        <pt x="428" y="1186" on="0"/>
        <pt x="446" y="1147" on="1"/>
        <pt x="176" y="1147" on="1"/>
        <pt x="156" y="1194" on="0"/>
        <pt x="156" y="1241" on="1"/>
        <pt x="156" y="1396" on="0"/>
        <pt x="387" y="1567" on="0"/>
        <pt x="600" y="1567" on="1"/>
        <pt x="884" y="1567" on="0"/>
        <pt x="1176" y="1170" on="0"/>
        <pt x="1176" y="780" on="1"/>
        <pt x="1176" y="363" on="0"/>
        <pt x="914" y="-20" on="0"/>
        <pt x="623" y="-20" on="1"/>
        <pt x="376" y="-20" on="0"/>
        <pt x="92" y="275" on="0"/>
        <pt x="92" y="537" on="1"/>
        <pt x="92" y="701" on="0"/>
        <pt x="218" y="954" on="0"/>
        <pt x="444" y="1092" on="0"/>
        <pt x="586" y="1092" on="1"/>
        <pt x="678" y="1092" on="0"/>
        <pt x="798" y="1050" on="0"/>
        <pt x="846" y="1010" on="1"/>
        <pt x="854" y="1010" on="1"/>
        <pt x="821" y="1321" on="0"/>
      </contour>
    </TTGlyph>
    <TTGlyph name="uni10DC" xMin="92" yMin="-20" xMax="1176" yMax="1556">
      <contour>
        <pt x="403" y="561" on="1"/>
        <pt x="403" y="399" on="0"/>
        <pt x="520" y="225" on="0"/>
        <pt x="635" y="225" on="1"/>
        <pt x="757" y="225" on="0"/>
        <pt x="864" y="394" on="0"/>
        <pt x="864" y="561" on="1"/>
        <pt x="864" y="727" on="0"/>
        <pt x="756" y="893" on="0"/>
        <pt x="633" y="893" on="1"/>
        <pt x="511" y="893" on="0"/>
        <pt x="403" y="728" on="0"/>
      </contour>
      <contour>
        <pt x="631" y="-20" on="1"/>
        <pt x="360" y="-20" on="0"/>
        <pt x="92" y="346" on="0"/>
        <pt x="92" y="729" on="1"/>
        <pt x="92" y="1145" on="0"/>
        <pt x="360" y="1556" on="0"/>
        <pt x="639" y="1556" on="1"/>
        <pt x="1063" y="1556" on="1"/>
        <pt x="1063" y="1311" on="1"/>
        <pt x="655" y="1311" on="1"/>
        <pt x="533" y="1311" on="0"/>
        <pt x="430" y="1197" on="0"/>
        <pt x="414" y="1057" on="1"/>
        <pt x="422" y="1057" on="1"/>
        <pt x="469" y="1097" on="0"/>
        <pt x="590" y="1139" on="0"/>
        <pt x="682" y="1139" on="1"/>
        <pt x="823" y="1139" on="0"/>
        <pt x="1050" y="996" on="0"/>
        <pt x="1176" y="731" on="0"/>
        <pt x="1176" y="561" on="1"/>
        <pt x="1176" y="288" on="0"/>
        <pt x="888" y="-20" on="0"/>
      </contour>
    </TTGlyph>
    <TTGlyph name="uni10DD" xMin="111" yMin="0" xMax="1765" yMax="1139">
      <contour>
        <pt x="786" y="625" on="1"/>
        <pt x="786" y="771" on="0"/>
        <pt x="704" y="893" on="0"/>
        <pt x="618" y="893" on="1"/>
        <pt x="526" y="893" on="0"/>
        <pt x="422" y="720" on="0"/>
        <pt x="422" y="569" on="1"/>
        <pt x="422" y="425" on="0"/>
        <pt x="492" y="159" on="0"/>
        <pt x="567" y="0" on="1"/>
        <pt x="250" y="0" on="1"/>
        <pt x="171" y="165" on="0"/>
        <pt x="111" y="425" on="0"/>
        <pt x="111" y="575" on="1"/>
        <pt x="111" y="833" on="0"/>
        <pt x="373" y="1139" on="0"/>
        <pt x="598" y="1139" on="1"/>
        <pt x="715" y="1139" on="0"/>
        <pt x="878" y="1059" on="0"/>
        <pt x="934" y="969" on="1"/>
        <pt x="942" y="969" on="1"/>
        <pt x="1041" y="1139" on="0"/>
        <pt x="1278" y="1139" on="1"/>
        <pt x="1507" y="1139" on="0"/>
        <pt x="1765" y="838" on="0"/>
        <pt x="1765" y="575" on="1"/>
        <pt x="1765" y="417" on="0"/>
        <pt x="1702" y="161" on="0"/>
        <pt x="1626" y="0" on="1"/>
        <pt x="1309" y="0" on="1"/>
        <pt x="1454" y="261" on="0"/>
        <pt x="1454" y="565" on="1"/>
        <pt x="1454" y="719" on="0"/>
        <pt x="1349" y="893" on="0"/>
        <pt x="1255" y="893" on="1"/>
        <pt x="1171" y="893" on="0"/>
        <pt x="1090" y="766" on="0"/>
        <pt x="1090" y="625" on="1"/>
        <pt x="1090" y="418" on="1"/>
        <pt x="786" y="418" on="1"/>
      </contour>
    </TTGlyph>
    <TTGlyph name="uni10DE" xMin="72" yMin="-20" xMax="1174" yMax="1567">
      <contour>
        <pt x="905" y="782" on="1"/>
        <pt x="1030" y="740" on="0"/>
        <pt x="1174" y="550" on="0"/>
        <pt x="1174" y="424" on="1"/>
        <pt x="1174" y="215" on="0"/>
        <pt x="879" y="-20" on="0"/>
        <pt x="618" y="-20" on="1"/>
        <pt x="363" y="-20" on="0"/>
        <pt x="72" y="196" on="0"/>
        <pt x="72" y="383" on="1"/>
        <pt x="72" y="465" on="0"/>
        <pt x="100" y="537" on="1"/>
        <pt x="412" y="537" on="1"/>
        <pt x="394" y="499" on="0"/>
        <pt x="383" y="437" on="0"/>
        <pt x="383" y="401" on="1"/>
        <pt x="383" y="312" on="0"/>
        <pt x="507" y="225" on="0"/>
        <pt x="618" y="225" on="1"/>
        <pt x="862" y="225" on="0"/>
        <pt x="862" y="436" on="1"/>
        <pt x="862" y="553" on="0"/>
        <pt x="724" y="657" on="0"/>
        <pt x="569" y="657" on="1"/>
        <pt x="434" y="657" on="1"/>
        <pt x="434" y="903" on="1"/>
        <pt x="571" y="903" on="1"/>
        <pt x="693" y="903" on="0"/>
        <pt x="834" y="997" on="0"/>
        <pt x="834" y="1081" on="1"/>
        <pt x="834" y="1249" on="0"/>
        <pt x="633" y="1249" on="1"/>
        <pt x="501" y="1249" on="0"/>
        <pt x="383" y="1267" on="0"/>
        <pt x="276" y="1306" on="0"/>
        <pt x="227" y="1341" on="1"/>
        <pt x="342" y="1567" on="1"/>
        <pt x="374" y="1539" on="0"/>
        <pt x="446" y="1508" on="0"/>
        <pt x="527" y="1495" on="0"/>
        <pt x="633" y="1495" on="1"/>
        <pt x="880" y="1495" on="0"/>
        <pt x="1145" y="1296" on="0"/>
        <pt x="1145" y="1104" on="1"/>
        <pt x="1145" y="989" on="0"/>
        <pt x="1027" y="833" on="0"/>
      </contour>
    </TTGlyph>
    <TTGlyph name="uni10DF" xMin="74" yMin="-492" xMax="1190" yMax="1118">
      <contour>
        <pt x="1190" y="37" on="1"/>
        <pt x="1190" y="-215" on="0"/>
        <pt x="906" y="-492" on="0"/>
        <pt x="647" y="-492" on="1"/>
        <pt x="394" y="-492" on="0"/>
        <pt x="111" y="-256" on="0"/>
        <pt x="111" y="-35" on="1"/>
        <pt x="111" y="38" on="0"/>
        <pt x="135" y="106" on="1"/>
        <pt x="446" y="106" on="1"/>
        <pt x="434" y="78" on="0"/>
        <pt x="422" y="-6" on="0"/>
        <pt x="422" y="-33" on="1"/>
        <pt x="422" y="-149" on="0"/>
        <pt x="537" y="-246" on="0"/>
        <pt x="647" y="-246" on="1"/>
        <pt x="885" y="-246" on="0"/>
        <pt x="885" y="41" on="1"/>
        <pt x="885" y="860" on="1"/>
        <pt x="680" y="825" on="1"/>
        <pt x="727" y="750" on="0"/>
        <pt x="727" y="649" on="1"/>
        <pt x="727" y="508" on="0"/>
        <pt x="549" y="346" on="0"/>
        <pt x="401" y="346" on="1"/>
        <pt x="250" y="346" on="0"/>
        <pt x="74" y="504" on="0"/>
        <pt x="74" y="645" on="1"/>
        <pt x="74" y="687" on="0"/>
        <pt x="82" y="717" on="1"/>
        <pt x="311" y="717" on="1"/>
        <pt x="303" y="680" on="0"/>
        <pt x="303" y="647" on="1"/>
        <pt x="303" y="599" on="0"/>
        <pt x="359" y="551" on="0"/>
        <pt x="401" y="551" on="1"/>
        <pt x="443" y="551" on="0"/>
        <pt x="498" y="610" on="0"/>
        <pt x="498" y="657" on="1"/>
        <pt x="498" y="722" on="0"/>
        <pt x="448" y="784" on="0"/>
        <pt x="416" y="791" on="1"/>
        <pt x="416" y="1008" on="1"/>
        <pt x="930" y="1118" on="1"/>
        <pt x="1190" y="1118" on="1"/>
      </contour>
    </TTGlyph>
    <TTGlyph name="uni10E0" xMin="111" yMin="0" xMax="1765" yMax="1567">
      <contour>
        <pt x="584" y="1139" on="1"/>
        <pt x="713" y="1139" on="0"/>
        <pt x="879" y="1062" on="0"/>
        <pt x="934" y="969" on="1"/>
        <pt x="942" y="969" on="1"/>
        <pt x="1036" y="1139" on="0"/>
        <pt x="1278" y="1139" on="1"/>
        <pt x="1506" y="1139" on="0"/>
        <pt x="1765" y="836" on="0"/>
        <pt x="1765" y="575" on="1"/>
        <pt x="1765" y="417" on="0"/>
        <pt x="1702" y="161" on="0"/>
        <pt x="1626" y="0" on="1"/>
        <pt x="1309" y="0" on="1"/>
        <pt x="1454" y="261" on="0"/>
        <pt x="1454" y="565" on="1"/>
        <pt x="1454" y="719" on="0"/>
        <pt x="1349" y="893" on="0"/>
        <pt x="1255" y="893" on="1"/>
        <pt x="1171" y="893" on="0"/>
        <pt x="1090" y="766" on="0"/>
        <pt x="1090" y="625" on="1"/>
        <pt x="1090" y="418" on="1"/>
        <pt x="786" y="418" on="1"/>
        <pt x="786" y="625" on="1"/>
        <pt x="786" y="771" on="0"/>
        <pt x="704" y="893" on="0"/>
        <pt x="618" y="893" on="1"/>
        <pt x="526" y="893" on="0"/>
        <pt x="422" y="720" on="0"/>
        <pt x="422" y="569" on="1"/>
        <pt x="422" y="425" on="0"/>
        <pt x="492" y="159" on="0"/>
        <pt x="567" y="0" on="1"/>
        <pt x="250" y="0" on="1"/>
        <pt x="171" y="165" on="0"/>
        <pt x="111" y="425" on="0"/>
        <pt x="111" y="575" on="1"/>
        <pt x="111" y="837" on="0"/>
        <pt x="244" y="1174" on="0"/>
        <pt x="517" y="1401" on="0"/>
        <pt x="960" y="1541" on="0"/>
        <pt x="1270" y="1567" on="1"/>
        <pt x="1303" y="1329" on="1"/>
        <pt x="1074" y="1312" on="0"/>
        <pt x="717" y="1227" on="0"/>
        <pt x="584" y="1147" on="1"/>
      </contour>
    </TTGlyph>
    <TTGlyph name="uni10E1" xMin="154" yMin="-20" xMax="1227" yMax="1556">
      <contour>
        <pt x="1227" y="573" on="1"/>
        <pt x="1227" y="-20" on="0"/>
        <pt x="668" y="-20" on="1"/>
        <pt x="409" y="-20" on="0"/>
        <pt x="154" y="238" on="0"/>
        <pt x="154" y="508" on="1"/>
        <pt x="154" y="1556" on="1"/>
        <pt x="459" y="1556" on="1"/>
        <pt x="459" y="498" on="1"/>
        <pt x="459" y="352" on="0"/>
        <pt x="564" y="223" on="0"/>
        <pt x="678" y="223" on="1"/>
        <pt x="804" y="223" on="0"/>
        <pt x="915" y="401" on="0"/>
        <pt x="915" y="586" on="1"/>
        <pt x="915" y="721" on="0"/>
        <pt x="846" y="968" on="0"/>
        <pt x="770" y="1118" on="1"/>
        <pt x="1094" y="1118" on="1"/>
        <pt x="1169" y="971" on="0"/>
        <pt x="1227" y="721" on="0"/>
      </contour>
    </TTGlyph>
    <TTGlyph name="uni10E2" xMin="92" yMin="-492" xMax="1477" yMax="1556">
      <contour>
        <pt x="936" y="1556" on="1"/>
        <pt x="936" y="1139" on="1"/>
        <pt x="1192" y="1096" on="0"/>
        <pt x="1477" y="667" on="0"/>
        <pt x="1477" y="332" on="1"/>
        <pt x="1477" y="-61" on="0"/>
        <pt x="1118" y="-492" on="0"/>
        <pt x="782" y="-492" on="1"/>
        <pt x="449" y="-492" on="0"/>
        <pt x="92" y="-64" on="0"/>
        <pt x="92" y="334" on="1"/>
        <pt x="92" y="670" on="0"/>
        <pt x="376" y="1094" on="0"/>
        <pt x="631" y="1139" on="1"/>
        <pt x="631" y="1556" on="1"/>
      </contour>
      <contour>
        <pt x="403" y="334" on="1"/>
        <pt x="403" y="54" on="0"/>
        <pt x="600" y="-246" on="0"/>
        <pt x="782" y="-246" on="1"/>
        <pt x="968" y="-246" on="0"/>
        <pt x="1165" y="54" on="0"/>
        <pt x="1165" y="334" on="1"/>
        <pt x="1165" y="569" on="0"/>
        <pt x="1049" y="862" on="0"/>
        <pt x="936" y="895" on="1"/>
        <pt x="936" y="379" on="1"/>
        <pt x="631" y="379" on="1"/>
        <pt x="631" y="893" on="1"/>
        <pt x="524" y="870" on="0"/>
        <pt x="403" y="562" on="0"/>
      </contour>
    </TTGlyph>
    <TTGlyph name="uni10E3" xMin="-10" yMin="-492" xMax="1178" yMax="1139">
      <contour>
        <pt x="-10" y="1077" on="1"/>
        <pt x="33" y="1108" on="0"/>
        <pt x="138" y="1139" on="0"/>
        <pt x="184" y="1139" on="1"/>
        <pt x="286" y="1139" on="0"/>
        <pt x="418" y="1064" on="0"/>
        <pt x="469" y="969" on="1"/>
        <pt x="477" y="969" on="1"/>
        <pt x="518" y="1054" on="0"/>
        <pt x="682" y="1139" on="0"/>
        <pt x="791" y="1139" on="1"/>
        <pt x="974" y="1139" on="0"/>
        <pt x="1178" y="891" on="0"/>
        <pt x="1178" y="670" on="1"/>
        <pt x="1178" y="37" on="1"/>
        <pt x="1178" y="-216" on="0"/>
        <pt x="901" y="-492" on="0"/>
        <pt x="643" y="-492" on="1"/>
        <pt x="390" y="-492" on="0"/>
        <pt x="106" y="-235" on="0"/>
        <pt x="106" y="-14" on="1"/>
        <pt x="106" y="78" on="0"/>
        <pt x="135" y="168" on="1"/>
        <pt x="446" y="168" on="1"/>
        <pt x="428" y="111" on="0"/>
        <pt x="418" y="34" on="0"/>
        <pt x="418" y="-12" on="1"/>
        <pt x="418" y="-246" on="0"/>
        <pt x="645" y="-246" on="1"/>
        <pt x="763" y="-246" on="0"/>
        <pt x="872" y="-103" on="0"/>
        <pt x="872" y="41" on="1"/>
        <pt x="872" y="621" on="1"/>
        <pt x="872" y="755" on="0"/>
        <pt x="809" y="893" on="0"/>
        <pt x="748" y="893" on="1"/>
        <pt x="679" y="893" on="0"/>
        <pt x="623" y="766" on="0"/>
        <pt x="623" y="625" on="1"/>
        <pt x="623" y="541" on="1"/>
        <pt x="319" y="541" on="1"/>
        <pt x="319" y="625" on="1"/>
        <pt x="319" y="773" on="0"/>
        <pt x="253" y="893" on="0"/>
        <pt x="180" y="893" on="1"/>
        <pt x="143" y="893" on="0"/>
        <pt x="115" y="877" on="1"/>
      </contour>
    </TTGlyph>
    <TTGlyph name="uni10E4" xMin="92" yMin="-492" xMax="1839" yMax="1141">
      <contour>
        <pt x="92" y="651" on="1"/>
        <pt x="92" y="883" on="0"/>
        <pt x="361" y="1141" on="0"/>
        <pt x="606" y="1141" on="1"/>
        <pt x="801" y="1141" on="0"/>
        <pt x="928" y="1038" on="1"/>
        <pt x="1065" y="1139" on="0"/>
        <pt x="1298" y="1139" on="1"/>
        <pt x="1538" y="1139" on="0"/>
        <pt x="1810" y="916" on="0"/>
        <pt x="1810" y="725" on="1"/>
        <pt x="1810" y="604" on="0"/>
        <pt x="1684" y="423" on="0"/>
        <pt x="1571" y="373" on="1"/>
        <pt x="1699" y="331" on="0"/>
        <pt x="1839" y="149" on="0"/>
        <pt x="1839" y="12" on="1"/>
        <pt x="1839" y="-228" on="0"/>
        <pt x="1500" y="-492" on="0"/>
        <pt x="1184" y="-492" on="1"/>
        <pt x="871" y="-492" on="0"/>
        <pt x="537" y="-284" on="0"/>
        <pt x="537" y="-94" on="1"/>
        <pt x="537" y="-19" on="0"/>
        <pt x="561" y="35" on="1"/>
        <pt x="868" y="35" on="1"/>
        <pt x="848" y="-16" on="0"/>
        <pt x="848" y="-63" on="1"/>
        <pt x="848" y="-246" on="0"/>
        <pt x="1182" y="-246" on="1"/>
        <pt x="1528" y="-246" on="0"/>
        <pt x="1528" y="8" on="1"/>
        <pt x="1528" y="131" on="0"/>
        <pt x="1384" y="238" on="0"/>
        <pt x="1235" y="238" on="1"/>
        <pt x="1182" y="238" on="1"/>
        <pt x="1182" y="483" on="1"/>
        <pt x="1237" y="483" on="1"/>
        <pt x="1358" y="483" on="0"/>
        <pt x="1499" y="597" on="0"/>
        <pt x="1499" y="702" on="1"/>
        <pt x="1499" y="796" on="0"/>
        <pt x="1384" y="893" on="0"/>
        <pt x="1282" y="893" on="1"/>
        <pt x="1130" y="893" on="0"/>
        <pt x="1067" y="823" on="1"/>
        <pt x="1090" y="744" on="0"/>
        <pt x="1090" y="651" on="1"/>
        <pt x="1090" y="415" on="0"/>
        <pt x="825" y="162" on="0"/>
        <pt x="584" y="162" on="1"/>
        <pt x="361" y="162" on="0"/>
        <pt x="92" y="423" on="0"/>
      </contour>
      <contour>
        <pt x="786" y="651" on="1"/>
        <pt x="786" y="772" on="0"/>
        <pt x="693" y="895" on="0"/>
        <pt x="590" y="895" on="1"/>
        <pt x="487" y="895" on="0"/>
        <pt x="403" y="771" on="0"/>
        <pt x="403" y="651" on="1"/>
        <pt x="403" y="531" on="0"/>
        <pt x="497" y="408" on="0"/>
        <pt x="600" y="408" on="1"/>
        <pt x="697" y="408" on="0"/>
        <pt x="786" y="525" on="0"/>
      </contour>
    </TTGlyph>
    <TTGlyph name="uni10E5" xMin="66" yMin="-492" xMax="1153" yMax="1556">
      <contour>
        <pt x="420" y="651" on="1"/>
        <pt x="420" y="577" on="0"/>
        <pt x="449" y="512" on="1"/>
        <pt x="137" y="512" on="1"/>
        <pt x="109" y="586" on="0"/>
        <pt x="109" y="668" on="1"/>
        <pt x="109" y="882" on="0"/>
        <pt x="327" y="1139" on="0"/>
        <pt x="516" y="1139" on="1"/>
        <pt x="638" y="1139" on="0"/>
        <pt x="795" y="1055" on="0"/>
        <pt x="846" y="969" on="1"/>
        <pt x="862" y="969" on="1"/>
        <pt x="848" y="1123" on="0"/>
        <pt x="848" y="1233" on="1"/>
        <pt x="848" y="1556" on="1"/>
        <pt x="1153" y="1556" on="1"/>
        <pt x="1153" y="37" on="1"/>
        <pt x="1153" y="-215" on="0"/>
        <pt x="869" y="-492" on="0"/>
        <pt x="610" y="-492" on="1"/>
        <pt x="358" y="-492" on="0"/>
        <pt x="66" y="-223" on="0"/>
        <pt x="66" y="10" on="1"/>
        <pt x="66" y="114" on="0"/>
        <pt x="94" y="203" on="1"/>
        <pt x="406" y="203" on="1"/>
        <pt x="377" y="111" on="0"/>
        <pt x="377" y="8" on="1"/>
        <pt x="377" y="-120" on="0"/>
        <pt x="499" y="-246" on="0"/>
        <pt x="610" y="-246" on="1"/>
        <pt x="848" y="-246" on="0"/>
        <pt x="848" y="41" on="1"/>
        <pt x="848" y="559" on="1"/>
        <pt x="848" y="728" on="0"/>
        <pt x="739" y="881" on="0"/>
        <pt x="621" y="881" on="1"/>
        <pt x="523" y="881" on="0"/>
        <pt x="420" y="758" on="0"/>
      </contour>
    </TTGlyph>
    <TTGlyph name="uni10E6" xMin="111" yMin="-492" xMax="1765" yMax="1139">
      <contour>
        <pt x="422" y="565" on="1"/>
        <pt x="422" y="286" on="0"/>
        <pt x="609" y="2" on="0"/>
        <pt x="819" y="-43" on="1"/>
        <pt x="1024" y="-86" on="0"/>
        <pt x="1259" y="-230" on="0"/>
        <pt x="1331" y="-346" on="1"/>
        <pt x="1122" y="-492" on="1"/>
        <pt x="1047" y="-387" on="0"/>
        <pt x="828" y="-283" on="0"/>
        <pt x="670" y="-283" on="1"/>
        <pt x="582" y="-283" on="0"/>
        <pt x="395" y="-336" on="0"/>
        <pt x="313" y="-381" on="1"/>
        <pt x="205" y="-154" on="1"/>
        <pt x="276" y="-109" on="0"/>
        <pt x="391" y="-76" on="1"/>
        <pt x="249" y="15" on="0"/>
        <pt x="111" y="332" on="0"/>
        <pt x="111" y="575" on="1"/>
        <pt x="111" y="828" on="0"/>
        <pt x="371" y="1139" on="0"/>
        <pt x="588" y="1139" on="1"/>
        <pt x="720" y="1139" on="0"/>
        <pt x="886" y="1051" on="0"/>
        <pt x="934" y="969" on="1"/>
        <pt x="942" y="969" on="1"/>
        <pt x="1003" y="1060" on="0"/>
        <pt x="1165" y="1139" on="0"/>
        <pt x="1274" y="1139" on="1"/>
        <pt x="1506" y="1139" on="0"/>
        <pt x="1765" y="840" on="0"/>
        <pt x="1765" y="575" on="1"/>
        <pt x="1765" y="417" on="0"/>
        <pt x="1702" y="161" on="0"/>
        <pt x="1626" y="0" on="1"/>
        <pt x="1309" y="0" on="1"/>
        <pt x="1454" y="261" on="0"/>
        <pt x="1454" y="565" on="1"/>
        <pt x="1454" y="719" on="0"/>
        <pt x="1349" y="893" on="0"/>
        <pt x="1255" y="893" on="1"/>
        <pt x="1171" y="893" on="0"/>
        <pt x="1090" y="766" on="0"/>
        <pt x="1090" y="625" on="1"/>
        <pt x="1090" y="418" on="1"/>
        <pt x="786" y="418" on="1"/>
        <pt x="786" y="625" on="1"/>
        <pt x="786" y="771" on="0"/>
        <pt x="704" y="893" on="0"/>
        <pt x="618" y="893" on="1"/>
        <pt x="528" y="893" on="0"/>
        <pt x="422" y="717" on="0"/>
      </contour>
    </TTGlyph>
    <TTGlyph name="uni10E7" xMin="111" yMin="-492" xMax="1190" yMax="1118">
      <contour>
        <pt x="422" y="754" on="1"/>
        <pt x="422" y="643" on="0"/>
        <pt x="531" y="524" on="0"/>
        <pt x="635" y="524" on="1"/>
        <pt x="762" y="524" on="0"/>
        <pt x="879" y="677" on="0"/>
        <pt x="879" y="846" on="1"/>
        <pt x="879" y="1118" on="1"/>
        <pt x="1190" y="1118" on="1"/>
        <pt x="1190" y="37" on="1"/>
        <pt x="1190" y="-215" on="0"/>
        <pt x="906" y="-492" on="0"/>
        <pt x="647" y="-492" on="1"/>
        <pt x="394" y="-492" on="0"/>
        <pt x="111" y="-256" on="0"/>
        <pt x="111" y="-35" on="1"/>
        <pt x="111" y="38" on="0"/>
        <pt x="135" y="106" on="1"/>
        <pt x="446" y="106" on="1"/>
        <pt x="434" y="78" on="0"/>
        <pt x="422" y="-6" on="0"/>
        <pt x="422" y="-33" on="1"/>
        <pt x="422" y="-149" on="0"/>
        <pt x="537" y="-246" on="0"/>
        <pt x="647" y="-246" on="1"/>
        <pt x="766" y="-246" on="0"/>
        <pt x="879" y="-104" on="0"/>
        <pt x="879" y="41" on="1"/>
        <pt x="879" y="172" on="1"/>
        <pt x="879" y="282" on="0"/>
        <pt x="893" y="436" on="1"/>
        <pt x="877" y="436" on="1"/>
        <pt x="823" y="350" on="0"/>
        <pt x="659" y="266" on="0"/>
        <pt x="532" y="266" on="1"/>
        <pt x="335" y="266" on="0"/>
        <pt x="111" y="521" on="0"/>
        <pt x="111" y="737" on="1"/>
        <pt x="111" y="841" on="0"/>
        <pt x="169" y="1055" on="0"/>
        <pt x="215" y="1118" on="1"/>
        <pt x="526" y="1118" on="1"/>
        <pt x="476" y="1051" on="0"/>
        <pt x="422" y="851" on="0"/>
      </contour>
    </TTGlyph>
    <TTGlyph name="uni10E8" xMin="23" yMin="-20" xMax="1176" yMax="1567">
      <contour>
        <pt x="864" y="506" on="1"/>
        <pt x="864" y="645" on="0"/>
        <pt x="757" y="782" on="0"/>
        <pt x="635" y="782" on="1"/>
        <pt x="512" y="782" on="0"/>
        <pt x="403" y="644" on="0"/>
        <pt x="403" y="506" on="1"/>
        <pt x="403" y="367" on="0"/>
        <pt x="511" y="225" on="0"/>
        <pt x="633" y="225" on="1"/>
        <pt x="747" y="225" on="0"/>
        <pt x="864" y="370" on="0"/>
      </contour>
      <contour>
        <pt x="1176" y="729" on="1"/>
        <pt x="1176" y="350" on="0"/>
        <pt x="908" y="-20" on="0"/>
        <pt x="633" y="-20" on="1"/>
        <pt x="376" y="-20" on="0"/>
        <pt x="92" y="260" on="0"/>
        <pt x="92" y="506" on="1"/>
        <pt x="92" y="660" on="0"/>
        <pt x="217" y="898" on="0"/>
        <pt x="445" y="1028" on="0"/>
        <pt x="586" y="1028" on="1"/>
        <pt x="747" y="1028" on="0"/>
        <pt x="856" y="932" on="1"/>
        <pt x="864" y="932" on="1"/>
        <pt x="864" y="1127" on="0"/>
        <pt x="812" y="1321" on="0"/>
        <pt x="745" y="1321" on="1"/>
        <pt x="689" y="1321" on="0"/>
        <pt x="639" y="1244" on="0"/>
        <pt x="639" y="1153" on="1"/>
        <pt x="639" y="1139" on="1"/>
        <pt x="352" y="1139" on="1"/>
        <pt x="352" y="1153" on="1"/>
        <pt x="352" y="1242" on="0"/>
        <pt x="302" y="1321" on="0"/>
        <pt x="248" y="1321" on="1"/>
        <pt x="196" y="1321" on="0"/>
        <pt x="147" y="1284" on="1"/>
        <pt x="23" y="1485" on="1"/>
        <pt x="105" y="1567" on="0"/>
        <pt x="233" y="1567" on="1"/>
        <pt x="325" y="1567" on="0"/>
        <pt x="444" y="1490" on="0"/>
        <pt x="494" y="1397" on="1"/>
        <pt x="502" y="1397" on="1"/>
        <pt x="580" y="1567" on="0"/>
        <pt x="791" y="1567" on="1"/>
        <pt x="984" y="1567" on="0"/>
        <pt x="1176" y="1159" on="0"/>
      </contour>
    </TTGlyph>
    <TTGlyph name="uni10E9" xMin="160" yMin="0" xMax="1233" yMax="1567">
      <contour>
        <pt x="467" y="682" on="1"/>
        <pt x="524" y="772" on="0"/>
        <pt x="689" y="852" on="0"/>
        <pt x="811" y="852" on="1"/>
        <pt x="1007" y="852" on="0"/>
        <pt x="1233" y="600" on="0"/>
        <pt x="1233" y="381" on="1"/>
        <pt x="1233" y="278" on="0"/>
        <pt x="1176" y="66" on="0"/>
        <pt x="1128" y="0" on="1"/>
        <pt x="817" y="0" on="1"/>
        <pt x="869" y="70" on="0"/>
        <pt x="922" y="268" on="0"/>
        <pt x="922" y="365" on="1"/>
        <pt x="922" y="474" on="0"/>
        <pt x="812" y="594" on="0"/>
        <pt x="709" y="594" on="1"/>
        <pt x="582" y="594" on="0"/>
        <pt x="465" y="444" on="0"/>
        <pt x="465" y="272" on="1"/>
        <pt x="465" y="0" on="1"/>
        <pt x="160" y="0" on="1"/>
        <pt x="160" y="1171" on="1"/>
        <pt x="160" y="1364" on="0"/>
        <pt x="381" y="1567" on="0"/>
        <pt x="590" y="1567" on="1"/>
        <pt x="792" y="1567" on="0"/>
        <pt x="991" y="1415" on="0"/>
        <pt x="991" y="1272" on="1"/>
        <pt x="991" y="1113" on="0"/>
        <pt x="758" y="961" on="0"/>
        <pt x="520" y="961" on="1"/>
        <pt x="465" y="961" on="1"/>
        <pt x="465" y="929" on="1"/>
        <pt x="451" y="682" on="1"/>
      </contour>
      <contour>
        <pt x="465" y="1159" on="1"/>
        <pt x="516" y="1159" on="1"/>
        <pt x="613" y="1159" on="0"/>
        <pt x="709" y="1218" on="0"/>
        <pt x="709" y="1268" on="1"/>
        <pt x="709" y="1368" on="0"/>
        <pt x="586" y="1368" on="1"/>
        <pt x="465" y="1368" on="0"/>
        <pt x="465" y="1210" on="1"/>
      </contour>
    </TTGlyph>
    <TTGlyph name="uni10EA" xMin="102" yMin="-492" xMax="1303" yMax="1159">
      <contour>
        <pt x="573" y="471" on="1"/>
        <pt x="700" y="471" on="1"/>
        <pt x="823" y="471" on="0"/>
        <pt x="963" y="584" on="0"/>
        <pt x="963" y="680" on="1"/>
        <pt x="963" y="764" on="0"/>
        <pt x="848" y="849" on="0"/>
        <pt x="705" y="860" on="1"/>
        <pt x="646" y="865" on="0"/>
        <pt x="569" y="923" on="0"/>
        <pt x="557" y="961" on="1"/>
        <pt x="719" y="1159" on="1"/>
        <pt x="745" y="1127" on="0"/>
        <pt x="801" y="1098" on="0"/>
        <pt x="846" y="1094" on="1"/>
        <pt x="1070" y="1074" on="0"/>
        <pt x="1274" y="892" on="0"/>
        <pt x="1274" y="713" on="1"/>
        <pt x="1274" y="598" on="0"/>
        <pt x="1148" y="413" on="0"/>
        <pt x="1034" y="360" on="1"/>
        <pt x="1159" y="314" on="0"/>
        <pt x="1303" y="123" on="0"/>
        <pt x="1303" y="-14" on="1"/>
        <pt x="1303" y="-233" on="0"/>
        <pt x="999" y="-492" on="0"/>
        <pt x="739" y="-492" on="1"/>
        <pt x="403" y="-492" on="0"/>
        <pt x="102" y="-104" on="0"/>
        <pt x="102" y="328" on="1"/>
        <pt x="102" y="566" on="0"/>
        <pt x="192" y="1006" on="0"/>
        <pt x="270" y="1139" on="1"/>
        <pt x="575" y="1139" on="1"/>
        <pt x="494" y="996" on="0"/>
        <pt x="414" y="578" on="0"/>
        <pt x="414" y="328" on="1"/>
        <pt x="414" y="116" on="0"/>
        <pt x="478" y="-132" on="0"/>
        <pt x="613" y="-246" on="0"/>
        <pt x="739" y="-246" on="1"/>
        <pt x="858" y="-246" on="0"/>
        <pt x="991" y="-121" on="0"/>
        <pt x="991" y="-10" on="1"/>
        <pt x="991" y="115" on="0"/>
        <pt x="863" y="225" on="0"/>
        <pt x="698" y="225" on="1"/>
        <pt x="573" y="225" on="1"/>
      </contour>
    </TTGlyph>
    <TTGlyph name="uni10EB" xMin="92" yMin="-20" xMax="1169" yMax="1556">
      <contour>
        <pt x="864" y="561" on="1"/>
        <pt x="864" y="728" on="0"/>
        <pt x="757" y="893" on="0"/>
        <pt x="635" y="893" on="1"/>
        <pt x="512" y="893" on="0"/>
        <pt x="403" y="727" on="0"/>
        <pt x="403" y="561" on="1"/>
        <pt x="403" y="394" on="0"/>
        <pt x="511" y="225" on="0"/>
        <pt x="633" y="225" on="1"/>
        <pt x="754" y="225" on="0"/>
        <pt x="864" y="387" on="0"/>
      </contour>
      <contour>
        <pt x="879" y="985" on="1"/>
        <pt x="864" y="1154" on="0"/>
        <pt x="864" y="1249" on="1"/>
        <pt x="864" y="1556" on="1"/>
        <pt x="1169" y="1556" on="1"/>
        <pt x="1169" y="618" on="1"/>
        <pt x="1169" y="-20" on="0"/>
        <pt x="631" y="-20" on="1"/>
        <pt x="378" y="-20" on="0"/>
        <pt x="92" y="288" on="0"/>
        <pt x="92" y="561" on="1"/>
        <pt x="92" y="820" on="0"/>
        <pt x="348" y="1139" on="0"/>
        <pt x="555" y="1139" on="1"/>
        <pt x="664" y="1139" on="0"/>
        <pt x="811" y="1064" on="0"/>
        <pt x="862" y="985" on="1"/>
      </contour>
    </TTGlyph>
    <TTGlyph name="uni10EC" xMin="92" yMin="-20" xMax="1245" yMax="1567">
      <contour>
        <pt x="403" y="506" on="1"/>
        <pt x="403" y="370" on="0"/>
        <pt x="520" y="225" on="0"/>
        <pt x="635" y="225" on="1"/>
        <pt x="757" y="225" on="0"/>
        <pt x="864" y="367" on="0"/>
        <pt x="864" y="506" on="1"/>
        <pt x="864" y="644" on="0"/>
        <pt x="756" y="782" on="0"/>
        <pt x="633" y="782" on="1"/>
        <pt x="511" y="782" on="0"/>
        <pt x="403" y="645" on="0"/>
      </contour>
      <contour>
        <pt x="92" y="729" on="1"/>
        <pt x="92" y="1158" on="0"/>
        <pt x="284" y="1567" on="0"/>
        <pt x="477" y="1567" on="1"/>
        <pt x="688" y="1567" on="0"/>
        <pt x="766" y="1397" on="1"/>
        <pt x="774" y="1397" on="1"/>
        <pt x="825" y="1492" on="0"/>
        <pt x="945" y="1567" on="0"/>
        <pt x="1034" y="1567" on="1"/>
        <pt x="1163" y="1567" on="0"/>
        <pt x="1245" y="1485" on="1"/>
        <pt x="1120" y="1284" on="1"/>
        <pt x="1071" y="1321" on="0"/>
        <pt x="1020" y="1321" on="1"/>
        <pt x="966" y="1321" on="0"/>
        <pt x="915" y="1241" on="0"/>
        <pt x="915" y="1153" on="1"/>
        <pt x="915" y="1139" on="1"/>
        <pt x="629" y="1139" on="1"/>
        <pt x="629" y="1153" on="1"/>
        <pt x="629" y="1242" on="0"/>
        <pt x="580" y="1321" on="0"/>
        <pt x="522" y="1321" on="1"/>
        <pt x="403" y="1321" on="0"/>
        <pt x="403" y="932" on="1"/>
        <pt x="412" y="932" on="1"/>
        <pt x="514" y="1028" on="0"/>
        <pt x="682" y="1028" on="1"/>
        <pt x="822" y="1028" on="0"/>
        <pt x="1051" y="898" on="0"/>
        <pt x="1176" y="660" on="0"/>
        <pt x="1176" y="506" on="1"/>
        <pt x="1176" y="265" on="0"/>
        <pt x="883" y="-20" on="0"/>
        <pt x="631" y="-20" on="1"/>
        <pt x="355" y="-20" on="0"/>
        <pt x="92" y="349" on="0"/>
      </contour>
    </TTGlyph>
    <TTGlyph name="uni10ED" xMin="86" yMin="-492" xMax="1206" yMax="1556">
      <contour>
        <pt x="369" y="807" on="1"/>
        <pt x="369" y="756" on="0"/>
        <pt x="432" y="702" on="0"/>
        <pt x="485" y="702" on="1"/>
        <pt x="534" y="702" on="0"/>
        <pt x="598" y="760" on="0"/>
        <pt x="598" y="805" on="1"/>
        <pt x="598" y="850" on="0"/>
        <pt x="532" y="909" on="0"/>
        <pt x="485" y="909" on="1"/>
        <pt x="432" y="909" on="0"/>
        <pt x="369" y="855" on="0"/>
      </contour>
      <contour>
        <pt x="598" y="532" on="1"/>
        <pt x="517" y="473" on="0"/>
        <pt x="403" y="473" on="1"/>
        <pt x="264" y="473" on="0"/>
        <pt x="86" y="659" on="0"/>
        <pt x="86" y="805" on="1"/>
        <pt x="86" y="954" on="0"/>
        <pt x="262" y="1139" on="0"/>
        <pt x="408" y="1139" on="1"/>
        <pt x="515" y="1139" on="0"/>
        <pt x="598" y="1075" on="1"/>
        <pt x="598" y="1556" on="1"/>
        <pt x="903" y="1556" on="1"/>
        <pt x="903" y="930" on="1"/>
        <pt x="1143" y="930" on="1"/>
        <pt x="1143" y="684" on="1"/>
        <pt x="903" y="684" on="1"/>
        <pt x="903" y="557" on="1"/>
        <pt x="903" y="473" on="0"/>
        <pt x="954" y="374" on="0"/>
        <pt x="1012" y="336" on="1"/>
        <pt x="1114" y="268" on="0"/>
        <pt x="1206" y="89" on="0"/>
        <pt x="1206" y="-35" on="1"/>
        <pt x="1206" y="-251" on="0"/>
        <pt x="909" y="-492" on="0"/>
        <pt x="649" y="-492" on="1"/>
        <pt x="372" y="-492" on="0"/>
        <pt x="86" y="-250" on="0"/>
        <pt x="86" y="-16" on="1"/>
        <pt x="86" y="55" on="0"/>
        <pt x="119" y="152" on="1"/>
        <pt x="432" y="152" on="1"/>
        <pt x="415" y="111" on="0"/>
        <pt x="397" y="17" on="0"/>
        <pt x="397" y="-14" on="1"/>
        <pt x="397" y="-130" on="0"/>
        <pt x="522" y="-246" on="0"/>
        <pt x="653" y="-246" on="1"/>
        <pt x="764" y="-246" on="0"/>
        <pt x="895" y="-152" on="0"/>
        <pt x="895" y="-74" on="1"/>
        <pt x="895" y="-2" on="0"/>
        <pt x="843" y="97" on="0"/>
        <pt x="770" y="150" on="1"/>
        <pt x="693" y="206" on="0"/>
        <pt x="629" y="300" on="0"/>
        <pt x="599" y="435" on="0"/>
      </contour>
    </TTGlyph>
    <TTGlyph name="uni10EE" xMin="143" yMin="-20" xMax="1221" yMax="1556">
      <contour>
        <pt x="449" y="561" on="1"/>
        <pt x="449" y="386" on="0"/>
        <pt x="559" y="225" on="0"/>
        <pt x="680" y="225" on="1"/>
        <pt x="802" y="225" on="0"/>
        <pt x="909" y="394" on="0"/>
        <pt x="909" y="561" on="1"/>
        <pt x="909" y="727" on="0"/>
        <pt x="801" y="893" on="0"/>
        <pt x="678" y="893" on="1"/>
        <pt x="556" y="893" on="0"/>
        <pt x="449" y="728" on="0"/>
      </contour>
      <contour>
        <pt x="758" y="1139" on="1"/>
        <pt x="893" y="1139" on="0"/>
        <pt x="1105" y="994" on="0"/>
        <pt x="1221" y="730" on="0"/>
        <pt x="1221" y="561" on="1"/>
        <pt x="1221" y="289" on="0"/>
        <pt x="936" y="-20" on="0"/>
        <pt x="682" y="-20" on="1"/>
        <pt x="422" y="-20" on="0"/>
        <pt x="143" y="281" on="0"/>
        <pt x="143" y="569" on="1"/>
        <pt x="143" y="1556" on="1"/>
        <pt x="449" y="1556" on="1"/>
        <pt x="449" y="1249" on="1"/>
        <pt x="449" y="1180" on="0"/>
        <pt x="434" y="985" on="1"/>
        <pt x="451" y="985" on="1"/>
        <pt x="500" y="1063" on="0"/>
        <pt x="649" y="1139" on="0"/>
      </contour>
    </TTGlyph>
    <TTGlyph name="uni10EF" xMin="86" yMin="-492" xMax="1155" yMax="1118">
      <contour>
        <pt x="737" y="578" on="1"/>
        <pt x="737" y="509" on="0"/>
        <pt x="762" y="443" on="0"/>
        <pt x="819" y="389" on="0"/>
        <pt x="868" y="362" on="1"/>
        <pt x="1008" y="287" on="0"/>
        <pt x="1155" y="76" on="0"/>
        <pt x="1155" y="-55" on="1"/>
        <pt x="1155" y="-257" on="0"/>
        <pt x="869" y="-492" on="0"/>
        <pt x="623" y="-492" on="1"/>
        <pt x="360" y="-492" on="0"/>
        <pt x="86" y="-251" on="0"/>
        <pt x="86" y="-16" on="1"/>
        <pt x="86" y="55" on="0"/>
        <pt x="119" y="152" on="1"/>
        <pt x="432" y="152" on="1"/>
        <pt x="415" y="111" on="0"/>
        <pt x="397" y="17" on="0"/>
        <pt x="397" y="-14" on="1"/>
        <pt x="397" y="-130" on="0"/>
        <pt x="509" y="-246" on="0"/>
        <pt x="627" y="-246" on="1"/>
        <pt x="726" y="-246" on="0"/>
        <pt x="844" y="-153" on="0"/>
        <pt x="844" y="-74" on="1"/>
        <pt x="844" y="-3" on="0"/>
        <pt x="773" y="95" on="0"/>
        <pt x="670" y="150" on="1"/>
        <pt x="531" y="222" on="0"/>
        <pt x="432" y="406" on="0"/>
        <pt x="432" y="582" on="1"/>
        <pt x="432" y="670" on="1"/>
        <pt x="111" y="768" on="1"/>
        <pt x="172" y="987" on="1"/>
        <pt x="432" y="907" on="1"/>
        <pt x="432" y="1118" on="1"/>
        <pt x="737" y="1118" on="1"/>
        <pt x="737" y="817" on="1"/>
        <pt x="1077" y="717" on="1"/>
        <pt x="1016" y="496" on="1"/>
      </contour>
    </TTGlyph>
    <TTGlyph name="uni10F0" xMin="72" yMin="-20" xMax="1169" yMax="1591">
      <contour>
        <pt x="389" y="414" on="1"/>
        <pt x="383" y="384" on="0"/>
        <pt x="383" y="350" on="1"/>
        <pt x="383" y="284" on="0"/>
        <pt x="505" y="209" on="0"/>
        <pt x="616" y="209" on="1"/>
        <pt x="733" y="209" on="0"/>
        <pt x="858" y="261" on="0"/>
        <pt x="858" y="309" on="1"/>
        <pt x="858" y="371" on="0"/>
        <pt x="703" y="422" on="0"/>
        <pt x="547" y="422" on="1"/>
        <pt x="475" y="422" on="1"/>
        <pt x="475" y="651" on="1"/>
        <pt x="537" y="651" on="1"/>
        <pt x="829" y="651" on="0"/>
        <pt x="829" y="745" on="1"/>
        <pt x="829" y="799" on="0"/>
        <pt x="703" y="846" on="0"/>
        <pt x="541" y="846" on="1"/>
        <pt x="475" y="846" on="1"/>
        <pt x="475" y="1075" on="1"/>
        <pt x="537" y="1075" on="1"/>
        <pt x="645" y="1075" on="0"/>
        <pt x="771" y="1096" on="0"/>
        <pt x="829" y="1136" on="0"/>
        <pt x="829" y="1176" on="1"/>
        <pt x="829" y="1226" on="0"/>
        <pt x="722" y="1273" on="0"/>
        <pt x="602" y="1276" on="1"/>
        <pt x="461" y="1279" on="0"/>
        <pt x="364" y="1297" on="0"/>
        <pt x="271" y="1336" on="0"/>
        <pt x="225" y="1370" on="1"/>
        <pt x="340" y="1591" on="1"/>
        <pt x="398" y="1542" on="0"/>
        <pt x="541" y="1504" on="0"/>
        <pt x="690" y="1501" on="1"/>
        <pt x="909" y="1496" on="0"/>
        <pt x="1141" y="1351" on="0"/>
        <pt x="1141" y="1217" on="1"/>
        <pt x="1141" y="1126" on="0"/>
        <pt x="1015" y="1008" on="0"/>
        <pt x="887" y="973" on="1"/>
        <pt x="1014" y="952" on="0"/>
        <pt x="1141" y="843" on="0"/>
        <pt x="1141" y="748" on="1"/>
        <pt x="1141" y="592" on="0"/>
        <pt x="887" y="549" on="1"/>
        <pt x="1019" y="532" on="0"/>
        <pt x="1169" y="399" on="0"/>
        <pt x="1169" y="295" on="1"/>
        <pt x="1169" y="145" on="0"/>
        <pt x="874" y="-20" on="0"/>
        <pt x="616" y="-20" on="1"/>
        <pt x="366" y="-20" on="0"/>
        <pt x="72" y="171" on="0"/>
        <pt x="72" y="340" on="1"/>
        <pt x="72" y="382" on="0"/>
        <pt x="80" y="414" on="1"/>
      </contour>
      <contour>
        <pt x="589" y="1556" on="1"/>
      </contour>
    </TTGlyph>
    <TTGlyph name="uni10F1" xMin="154" yMin="-20" xMax="1251" yMax="1591">
      <contour>
        <pt x="465" y="1556" on="1"/>
        <pt x="465" y="393" on="1"/>
        <pt x="465" y="290" on="0"/>
        <pt x="573" y="209" on="0"/>
        <pt x="698" y="209" on="1"/>
        <pt x="815" y="209" on="0"/>
        <pt x="940" y="261" on="0"/>
        <pt x="940" y="309" on="1"/>
        <pt x="940" y="356" on="0"/>
        <pt x="886" y="400" on="0"/>
        <pt x="762" y="422" on="0"/>
        <pt x="659" y="422" on="1"/>
        <pt x="639" y="422" on="1"/>
        <pt x="639" y="651" on="1"/>
        <pt x="649" y="651" on="1"/>
        <pt x="784" y="651" on="0"/>
        <pt x="911" y="693" on="0"/>
        <pt x="911" y="745" on="1"/>
        <pt x="911" y="788" on="0"/>
        <pt x="863" y="828" on="0"/>
        <pt x="759" y="846" on="0"/>
        <pt x="653" y="846" on="1"/>
        <pt x="639" y="846" on="1"/>
        <pt x="639" y="1075" on="1"/>
        <pt x="649" y="1075" on="1"/>
        <pt x="777" y="1075" on="0"/>
        <pt x="911" y="1127" on="0"/>
        <pt x="911" y="1176" on="1"/>
        <pt x="911" y="1227" on="0"/>
        <pt x="852" y="1273" on="0"/>
        <pt x="786" y="1276" on="1"/>
        <pt x="702" y="1279" on="0"/>
        <pt x="613" y="1324" on="0"/>
        <pt x="578" y="1370" on="1"/>
        <pt x="692" y="1591" on="1"/>
        <pt x="727" y="1546" on="0"/>
        <pt x="827" y="1503" on="0"/>
        <pt x="924" y="1501" on="1"/>
        <pt x="1065" y="1497" on="0"/>
        <pt x="1223" y="1362" on="0"/>
        <pt x="1223" y="1239" on="1"/>
        <pt x="1223" y="1132" on="0"/>
        <pt x="1096" y="1008" on="0"/>
        <pt x="969" y="973" on="1"/>
        <pt x="1223" y="931" on="0"/>
        <pt x="1223" y="760" on="1"/>
        <pt x="1223" y="675" on="0"/>
        <pt x="1100" y="571" on="0"/>
        <pt x="969" y="549" on="1"/>
        <pt x="1101" y="532" on="0"/>
        <pt x="1251" y="399" on="0"/>
        <pt x="1251" y="295" on="1"/>
        <pt x="1251" y="145" on="0"/>
        <pt x="956" y="-20" on="0"/>
        <pt x="698" y="-20" on="1"/>
        <pt x="154" y="-20" on="0"/>
        <pt x="154" y="383" on="1"/>
        <pt x="154" y="1556" on="1"/>
      </contour>
    </TTGlyph>
    <TTGlyph name="uni10F2" xMin="23" yMin="-209" xMax="1260" yMax="1139">
      <contour>
        <pt x="23" y="53" on="1"/>
        <pt x="161" y="76" on="0"/>
        <pt x="375" y="160" on="1"/>
        <pt x="98" y="381" on="0"/>
        <pt x="98" y="662" on="1"/>
        <pt x="98" y="890" on="0"/>
        <pt x="384" y="1139" on="0"/>
        <pt x="641" y="1139" on="1"/>
        <pt x="898" y="1139" on="0"/>
        <pt x="1184" y="891" on="0"/>
        <pt x="1184" y="662" on="1"/>
        <pt x="1184" y="519" on="0"/>
        <pt x="1054" y="275" on="0"/>
        <pt x="915" y="166" on="1"/>
        <pt x="993" y="138" on="0"/>
        <pt x="1164" y="76" on="0"/>
        <pt x="1260" y="51" on="1"/>
        <pt x="1186" y="-209" on="1"/>
        <pt x="920" y="-144" on="0"/>
        <pt x="637" y="0" on="1"/>
        <pt x="352" y="-137" on="0"/>
        <pt x="96" y="-209" on="1"/>
      </contour>
      <contour>
        <pt x="410" y="662" on="1"/>
        <pt x="410" y="542" on="0"/>
        <pt x="526" y="369" on="0"/>
        <pt x="637" y="299" on="1"/>
        <pt x="872" y="465" on="0"/>
        <pt x="872" y="662" on="1"/>
        <pt x="872" y="768" on="0"/>
        <pt x="754" y="893" on="0"/>
        <pt x="641" y="893" on="1"/>
        <pt x="529" y="893" on="0"/>
        <pt x="410" y="773" on="0"/>
      </contour>
    </TTGlyph>
    <TTGlyph name="uni10F3" xMin="61" yMin="-492" xMax="1163" yMax="1118">
      <contour>
        <pt x="803" y="872" on="1"/>
        <pt x="397" y="872" on="1"/>
        <pt x="397" y="760" on="1"/>
        <pt x="115" y="760" on="1"/>
        <pt x="115" y="1118" on="1"/>
        <pt x="1108" y="1118" on="1"/>
        <pt x="1108" y="877" on="1"/>
        <pt x="1108" y="702" on="0"/>
        <pt x="1007" y="497" on="0"/>
        <pt x="887" y="442" on="1"/>
        <pt x="1012" y="394" on="0"/>
        <pt x="1163" y="164" on="0"/>
        <pt x="1163" y="20" on="1"/>
        <pt x="1163" y="-221" on="0"/>
        <pt x="871" y="-492" on="0"/>
        <pt x="608" y="-492" on="1"/>
        <pt x="354" y="-492" on="0"/>
        <pt x="61" y="-260" on="0"/>
        <pt x="61" y="-59" on="1"/>
        <pt x="61" y="28" on="0"/>
        <pt x="90" y="106" on="1"/>
        <pt x="401" y="106" on="1"/>
        <pt x="383" y="58" on="0"/>
        <pt x="373" y="-10" on="0"/>
        <pt x="373" y="-47" on="1"/>
        <pt x="373" y="-147" on="0"/>
        <pt x="497" y="-246" on="0"/>
        <pt x="608" y="-246" on="1"/>
        <pt x="852" y="-246" on="0"/>
        <pt x="852" y="20" on="1"/>
        <pt x="852" y="168" on="0"/>
        <pt x="715" y="301" on="0"/>
        <pt x="559" y="301" on="1"/>
        <pt x="342" y="301" on="1"/>
        <pt x="342" y="547" on="1"/>
        <pt x="541" y="547" on="1"/>
        <pt x="677" y="547" on="0"/>
        <pt x="803" y="685" on="0"/>
        <pt x="803" y="821" on="1"/>
      </contour>
    </TTGlyph>
    <TTGlyph name="uni10F4" xMin="31" yMin="-492" xMax="1133" yMax="1567">
      <contour>
        <pt x="864" y="373" on="1"/>
        <pt x="989" y="327" on="0"/>
        <pt x="1133" y="123" on="0"/>
        <pt x="1133" y="-14" on="1"/>
        <pt x="1133" y="-239" on="0"/>
        <pt x="839" y="-492" on="0"/>
        <pt x="578" y="-492" on="1"/>
        <pt x="325" y="-492" on="0"/>
        <pt x="31" y="-276" on="0"/>
        <pt x="31" y="-88" on="1"/>
        <pt x="31" y="-6" on="0"/>
        <pt x="59" y="66" on="1"/>
        <pt x="371" y="66" on="1"/>
        <pt x="353" y="28" on="0"/>
        <pt x="342" y="-34" on="0"/>
        <pt x="342" y="-70" on="1"/>
        <pt x="342" y="-159" on="0"/>
        <pt x="466" y="-246" on="0"/>
        <pt x="578" y="-246" on="1"/>
        <pt x="821" y="-246" on="0"/>
        <pt x="821" y="-10" on="1"/>
        <pt x="821" y="120" on="0"/>
        <pt x="685" y="238" on="0"/>
        <pt x="528" y="238" on="1"/>
        <pt x="332" y="238" on="1"/>
        <pt x="332" y="483" on="1"/>
        <pt x="530" y="483" on="1"/>
        <pt x="793" y="483" on="0"/>
        <pt x="793" y="664" on="1"/>
        <pt x="793" y="732" on="0"/>
        <pt x="677" y="812" on="0"/>
        <pt x="545" y="844" on="1"/>
        <pt x="361" y="890" on="0"/>
        <pt x="203" y="1067" on="0"/>
        <pt x="203" y="1221" on="1"/>
        <pt x="203" y="1381" on="0"/>
        <pt x="449" y="1567" on="0"/>
        <pt x="664" y="1567" on="1"/>
        <pt x="848" y="1567" on="0"/>
        <pt x="1038" y="1475" on="1"/>
        <pt x="944" y="1251" on="1"/>
        <pt x="777" y="1329" on="0"/>
        <pt x="662" y="1329" on="1"/>
        <pt x="595" y="1329" on="0"/>
        <pt x="514" y="1274" on="0"/>
        <pt x="514" y="1231" on="1"/>
        <pt x="514" y="1188" on="0"/>
        <pt x="551" y="1141" on="0"/>
        <pt x="635" y="1103" on="0"/>
        <pt x="715" y="1083" on="1"/>
        <pt x="910" y="1036" on="0"/>
        <pt x="1104" y="864" on="0"/>
        <pt x="1104" y="721" on="1"/>
        <pt x="1104" y="597" on="0"/>
        <pt x="984" y="419" on="0"/>
      </contour>
    </TTGlyph>
    <TTGlyph name="uni10F5" xMin="82" yMin="-20" xMax="1288" yMax="1565">
      <contour>
        <pt x="776" y="694" on="1"/>
        <pt x="776" y="860" on="1"/>
        <pt x="516" y="860" on="1"/>
        <pt x="302" y="860" on="0"/>
        <pt x="82" y="1033" on="0"/>
        <pt x="82" y="1204" on="1"/>
        <pt x="82" y="1380" on="0"/>
        <pt x="340" y="1565" on="0"/>
        <pt x="582" y="1565" on="1"/>
        <pt x="823" y="1565" on="0"/>
        <pt x="1079" y="1334" on="0"/>
        <pt x="1081" y="1106" on="1"/>
        <pt x="1288" y="1106" on="1"/>
        <pt x="1288" y="860" on="1"/>
        <pt x="1081" y="860" on="1"/>
        <pt x="1081" y="694" on="1"/>
        <pt x="1288" y="694" on="1"/>
        <pt x="1288" y="449" on="1"/>
        <pt x="1081" y="449" on="1"/>
        <pt x="1081" y="440" on="1"/>
        <pt x="1081" y="214" on="0"/>
        <pt x="827" y="-20" on="0"/>
        <pt x="582" y="-20" on="1"/>
        <pt x="340" y="-20" on="0"/>
        <pt x="82" y="166" on="0"/>
        <pt x="82" y="340" on="1"/>
        <pt x="82" y="512" on="0"/>
        <pt x="304" y="694" on="0"/>
        <pt x="516" y="694" on="1"/>
      </contour>
      <contour>
        <pt x="557" y="225" on="1"/>
        <pt x="672" y="225" on="0"/>
        <pt x="776" y="327" on="0"/>
        <pt x="776" y="440" on="1"/>
        <pt x="776" y="449" on="1"/>
        <pt x="555" y="449" on="1"/>
        <pt x="467" y="449" on="0"/>
        <pt x="393" y="397" on="0"/>
        <pt x="393" y="340" on="1"/>
        <pt x="393" y="225" on="0"/>
      </contour>
      <contour>
        <pt x="393" y="1206" on="1"/>
        <pt x="393" y="1151" on="0"/>
        <pt x="460" y="1106" on="0"/>
        <pt x="551" y="1106" on="1"/>
        <pt x="776" y="1106" on="1"/>
        <pt x="774" y="1220" on="0"/>
        <pt x="669" y="1319" on="0"/>
        <pt x="559" y="1319" on="1"/>
        <pt x="483" y="1319" on="0"/>
        <pt x="393" y="1260" on="0"/>
      </contour>
    </TTGlyph>
    <TTGlyph name="uni10F6" xMin="92" yMin="-492" xMax="1892" yMax="1139">
      <contour>
        <pt x="541" y="-20" on="1"/>
        <pt x="339" y="-20" on="0"/>
        <pt x="92" y="299" on="0"/>
        <pt x="92" y="557" on="1"/>
        <pt x="92" y="831" on="0"/>
        <pt x="371" y="1139" on="0"/>
        <pt x="618" y="1139" on="1"/>
        <pt x="743" y="1139" on="0"/>
        <pt x="933" y="1030" on="0"/>
        <pt x="993" y="930" on="1"/>
        <pt x="1118" y="1139" on="0"/>
        <pt x="1366" y="1139" on="1"/>
        <pt x="1613" y="1139" on="0"/>
        <pt x="1892" y="830" on="0"/>
        <pt x="1892" y="557" on="1"/>
        <pt x="1892" y="386" on="0"/>
        <pt x="1779" y="122" on="0"/>
        <pt x="1575" y="-20" on="0"/>
        <pt x="1444" y="-20" on="1"/>
        <pt x="1338" y="-20" on="0"/>
        <pt x="1196" y="54" on="0"/>
        <pt x="1147" y="133" on="1"/>
        <pt x="1130" y="133" on="1"/>
        <pt x="1137" y="43" on="1"/>
        <pt x="1145" y="-61" on="0"/>
        <pt x="1145" y="-131" on="1"/>
        <pt x="1145" y="-492" on="1"/>
        <pt x="840" y="-492" on="1"/>
        <pt x="840" y="-131" on="1"/>
        <pt x="840" y="-21" on="0"/>
        <pt x="854" y="133" on="1"/>
        <pt x="838" y="133" on="1"/>
        <pt x="788" y="53" on="0"/>
        <pt x="645" y="-20" on="0"/>
      </contour>
      <contour>
        <pt x="840" y="557" on="1"/>
        <pt x="840" y="730" on="0"/>
        <pt x="736" y="893" on="0"/>
        <pt x="621" y="893" on="1"/>
        <pt x="505" y="893" on="0"/>
        <pt x="403" y="724" on="0"/>
        <pt x="403" y="557" on="1"/>
        <pt x="403" y="391" on="0"/>
        <pt x="506" y="225" on="0"/>
        <pt x="623" y="225" on="1"/>
        <pt x="738" y="225" on="0"/>
        <pt x="840" y="390" on="0"/>
      </contour>
      <contour>
        <pt x="1145" y="557" on="1"/>
        <pt x="1145" y="390" on="0"/>
        <pt x="1246" y="225" on="0"/>
        <pt x="1362" y="225" on="1"/>
        <pt x="1479" y="225" on="0"/>
        <pt x="1581" y="391" on="0"/>
        <pt x="1581" y="557" on="1"/>
        <pt x="1581" y="724" on="0"/>
        <pt x="1480" y="893" on="0"/>
        <pt x="1364" y="893" on="1"/>
        <pt x="1249" y="893" on="0"/>
        <pt x="1145" y="733" on="0"/>
      </contour>
    </TTGlyph>
    <TTGlyph name="uni10F7" xMin="25" yMin="-492" xMax="1126" yMax="1139">
      <contour>
        <pt x="1104" y="117" on="1"/>
        <pt x="1126" y="47" on="0"/>
        <pt x="1126" y="-29" on="1"/>
        <pt x="1126" y="-257" on="0"/>
        <pt x="842" y="-492" on="0"/>
        <pt x="569" y="-492" on="1"/>
        <pt x="302" y="-492" on="0"/>
        <pt x="25" y="-257" on="0"/>
        <pt x="25" y="-29" on="1"/>
        <pt x="25" y="116" on="0"/>
        <pt x="114" y="292" on="0"/>
        <pt x="318" y="444" on="0"/>
        <pt x="500" y="522" on="1"/>
        <pt x="619" y="572" on="0"/>
        <pt x="733" y="685" on="0"/>
        <pt x="733" y="760" on="1"/>
        <pt x="733" y="824" on="0"/>
        <pt x="654" y="893" on="0"/>
        <pt x="582" y="893" on="1"/>
        <pt x="428" y="893" on="0"/>
        <pt x="428" y="760" on="1"/>
        <pt x="428" y="714" on="0"/>
        <pt x="442" y="674" on="1"/>
        <pt x="129" y="674" on="1"/>
        <pt x="117" y="720" on="0"/>
        <pt x="117" y="762" on="1"/>
        <pt x="117" y="948" on="0"/>
        <pt x="354" y="1139" on="0"/>
        <pt x="578" y="1139" on="1"/>
        <pt x="806" y="1139" on="0"/>
        <pt x="1044" y="946" on="0"/>
        <pt x="1044" y="762" on="1"/>
        <pt x="1044" y="603" on="0"/>
        <pt x="861" y="374" on="0"/>
        <pt x="672" y="295" on="1"/>
        <pt x="538" y="238" on="0"/>
        <pt x="398" y="147" on="0"/>
        <pt x="336" y="49" on="0"/>
        <pt x="336" y="-37" on="1"/>
        <pt x="336" y="-246" on="0"/>
        <pt x="573" y="-246" on="1"/>
        <pt x="685" y="-246" on="0"/>
        <pt x="815" y="-117" on="0"/>
        <pt x="815" y="-14" on="1"/>
        <pt x="815" y="56" on="0"/>
        <pt x="793" y="117" on="1"/>
      </contour>
    </TTGlyph>
    <TTGlyph name="uni10F8" xMin="160" yMin="-492" xMax="1239" yMax="1118">
      <contour>
        <pt x="928" y="754" on="1"/>
        <pt x="928" y="852" on="0"/>
        <pt x="874" y="1049" on="0"/>
        <pt x="823" y="1118" on="1"/>
        <pt x="1135" y="1118" on="1"/>
        <pt x="1181" y="1054" on="0"/>
        <pt x="1239" y="838" on="0"/>
        <pt x="1239" y="737" on="1"/>
        <pt x="1239" y="521" on="0"/>
        <pt x="1010" y="266" on="0"/>
        <pt x="813" y="266" on="1"/>
        <pt x="690" y="266" on="0"/>
        <pt x="524" y="346" on="0"/>
        <pt x="467" y="436" on="1"/>
        <pt x="451" y="436" on="1"/>
        <pt x="458" y="333" on="0"/>
        <pt x="465" y="224" on="0"/>
        <pt x="465" y="172" on="1"/>
        <pt x="465" y="41" on="1"/>
        <pt x="465" y="-101" on="0"/>
        <pt x="579" y="-246" on="0"/>
        <pt x="698" y="-246" on="1"/>
        <pt x="809" y="-246" on="0"/>
        <pt x="928" y="-149" on="0"/>
        <pt x="928" y="-33" on="1"/>
        <pt x="928" y="-3" on="0"/>
        <pt x="915" y="83" on="0"/>
        <pt x="903" y="106" on="1"/>
        <pt x="1214" y="106" on="1"/>
        <pt x="1239" y="41" on="0"/>
        <pt x="1239" y="-35" on="1"/>
        <pt x="1239" y="-254" on="0"/>
        <pt x="958" y="-492" on="0"/>
        <pt x="702" y="-492" on="1"/>
        <pt x="443" y="-492" on="0"/>
        <pt x="160" y="-214" on="0"/>
        <pt x="160" y="37" on="1"/>
        <pt x="160" y="1118" on="1"/>
        <pt x="465" y="1118" on="1"/>
        <pt x="465" y="846" on="1"/>
        <pt x="465" y="677" on="0"/>
        <pt x="583" y="524" on="0"/>
        <pt x="711" y="524" on="1"/>
        <pt x="817" y="524" on="0"/>
        <pt x="928" y="647" on="0"/>
      </contour>
    </TTGlyph>
    <TTGlyph name="uni10F9" xMin="92" yMin="-492" xMax="1176" yMax="1139">
      <contour>
        <pt x="92" y="557" on="1"/>
        <pt x="92" y="832" on="0"/>
        <pt x="381" y="1139" on="0"/>
        <pt x="637" y="1139" on="1"/>
        <pt x="798" y="1139" on="0"/>
        <pt x="1044" y="997" on="0"/>
        <pt x="1176" y="734" on="0"/>
        <pt x="1176" y="557" on="1"/>
        <pt x="1176" y="283" on="0"/>
        <pt x="889" y="-20" on="0"/>
        <pt x="631" y="-20" on="1"/>
        <pt x="582" y="-18" on="1"/>
        <pt x="545" y="-87" on="0"/>
        <pt x="545" y="-162" on="1"/>
        <pt x="545" y="-222" on="0"/>
        <pt x="605" y="-274" on="0"/>
        <pt x="651" y="-274" on="1"/>
        <pt x="752" y="-274" on="0"/>
        <pt x="752" y="-172" on="1"/>
        <pt x="752" y="-147" on="0"/>
        <pt x="745" y="-123" on="1"/>
        <pt x="989" y="-123" on="1"/>
        <pt x="997" y="-152" on="0"/>
        <pt x="997" y="-195" on="1"/>
        <pt x="997" y="-335" on="0"/>
        <pt x="816" y="-492" on="0"/>
        <pt x="651" y="-492" on="1"/>
        <pt x="484" y="-492" on="0"/>
        <pt x="299" y="-320" on="0"/>
        <pt x="299" y="-168" on="1"/>
        <pt x="299" y="-55" on="0"/>
        <pt x="358" y="45" on="1"/>
        <pt x="227" y="117" on="0"/>
        <pt x="92" y="384" on="0"/>
      </contour>
      <contour>
        <pt x="864" y="557" on="1"/>
        <pt x="864" y="723" on="0"/>
        <pt x="756" y="893" on="0"/>
        <pt x="633" y="893" on="1"/>
        <pt x="511" y="893" on="0"/>
        <pt x="403" y="724" on="0"/>
        <pt x="403" y="557" on="1"/>
        <pt x="403" y="391" on="0"/>
        <pt x="512" y="225" on="0"/>
        <pt x="635" y="225" on="1"/>
        <pt x="757" y="225" on="0"/>
        <pt x="864" y="390" on="0"/>
      </contour>
    </TTGlyph>
    <TTGlyph name="uni10FA" xMin="92" yMin="-246" xMax="1178" yMax="1139">
      <contour>
        <pt x="866" y="608" on="1"/>
        <pt x="866" y="748" on="0"/>
        <pt x="749" y="893" on="0"/>
        <pt x="633" y="893" on="1"/>
        <pt x="403" y="893" on="0"/>
        <pt x="403" y="596" on="1"/>
        <pt x="403" y="425" on="0"/>
        <pt x="513" y="262" on="0"/>
        <pt x="655" y="242" on="1"/>
        <pt x="816" y="217" on="0"/>
        <pt x="1053" y="42" on="0"/>
        <pt x="1139" y="-121" on="1"/>
        <pt x="899" y="-246" on="1"/>
        <pt x="831" y="-120" on="0"/>
        <pt x="670" y="0" on="0"/>
        <pt x="567" y="0" on="1"/>
        <pt x="396" y="0" on="0"/>
        <pt x="258" y="-96" on="1"/>
        <pt x="125" y="102" on="1"/>
        <pt x="212" y="156" on="0"/>
        <pt x="268" y="180" on="1"/>
        <pt x="92" y="321" on="0"/>
        <pt x="92" y="586" on="1"/>
        <pt x="92" y="847" on="0"/>
        <pt x="386" y="1139" on="0"/>
        <pt x="639" y="1139" on="1"/>
        <pt x="892" y="1139" on="0"/>
        <pt x="1178" y="859" on="0"/>
        <pt x="1178" y="614" on="1"/>
        <pt x="1178" y="544" on="0"/>
        <pt x="1159" y="471" on="1"/>
        <pt x="842" y="473" on="1"/>
        <pt x="866" y="550" on="0"/>
      </contour>
    </TTGlyph>
    <TTGlyph name="uni10FB" xMin="117" yMin="-27" xMax="1075" yMax="1139">
      <contour>
        <pt x="117" y="143" on="1"/>
        <pt x="117" y="227" on="0"/>
        <pt x="207" y="313" on="0"/>
        <pt x="293" y="313" on="1"/>
        <pt x="376" y="313" on="0"/>
        <pt x="467" y="225" on="0"/>
        <pt x="467" y="143" on="1"/>
        <pt x="467" y="64" on="0"/>
        <pt x="375" y="-27" on="0"/>
        <pt x="293" y="-27" on="1"/>
        <pt x="209" y="-27" on="0"/>
        <pt x="117" y="62" on="0"/>
      </contour>
      <contour>
        <pt x="117" y="969" on="1"/>
        <pt x="117" y="1053" on="0"/>
        <pt x="207" y="1139" on="0"/>
        <pt x="293" y="1139" on="1"/>
        <pt x="376" y="1139" on="0"/>
        <pt x="467" y="1051" on="0"/>
        <pt x="467" y="969" on="1"/>
        <pt x="467" y="888" on="0"/>
        <pt x="374" y="799" on="0"/>
        <pt x="293" y="799" on="1"/>
        <pt x="209" y="799" on="0"/>
        <pt x="117" y="887" on="0"/>
      </contour>
      <contour>
        <pt x="725" y="557" on="1"/>
        <pt x="725" y="641" on="0"/>
        <pt x="815" y="727" on="0"/>
        <pt x="901" y="727" on="1"/>
        <pt x="984" y="727" on="0"/>
        <pt x="1075" y="639" on="0"/>
        <pt x="1075" y="557" on="1"/>
        <pt x="1075" y="476" on="0"/>
        <pt x="982" y="387" on="0"/>
        <pt x="901" y="387" on="1"/>
        <pt x="817" y="387" on="0"/>
        <pt x="725" y="475" on="0"/>
      </contour>
    </TTGlyph>
    <TTGlyph name="uni10FC" xMin="92" yMin="881" xMax="823" yMax="1866">
      <contour>
        <pt x="758" y="1696" on="1"/>
        <pt x="479" y="1696" on="1"/>
        <pt x="402" y="1696" on="0"/>
        <pt x="325" y="1619" on="0"/>
        <pt x="311" y="1538" on="1"/>
        <pt x="319" y="1538" on="1"/>
        <pt x="374" y="1593" on="0"/>
        <pt x="483" y="1593" on="1"/>
        <pt x="638" y="1593" on="0"/>
        <pt x="823" y="1399" on="0"/>
        <pt x="823" y="1237" on="1"/>
        <pt x="823" y="1074" on="0"/>
        <pt x="627" y="881" on="0"/>
        <pt x="469" y="881" on="1"/>
        <pt x="92" y="881" on="0"/>
        <pt x="92" y="1339" on="1"/>
        <pt x="92" y="1597" on="0"/>
        <pt x="284" y="1866" on="0"/>
        <pt x="471" y="1866" on="1"/>
        <pt x="758" y="1866" on="1"/>
      </contour>
      <contour>
        <pt x="598" y="1237" on="1"/>
        <pt x="598" y="1430" on="0"/>
        <pt x="459" y="1430" on="1"/>
        <pt x="389" y="1430" on="0"/>
        <pt x="315" y="1338" on="0"/>
        <pt x="315" y="1253" on="1"/>
        <pt x="315" y="1154" on="0"/>
        <pt x="389" y="1051" on="0"/>
        <pt x="457" y="1051" on="1"/>
        <pt x="598" y="1051" on="0"/>
      </contour>
    </TTGlyph>
    <TTGlyph name="uni2D00" xMin="20" yMin="-20" xMax="1116" yMax="1118">
      <contour>
        <pt x="670" y="889" on="1"/>
        <pt x="670" y="408" on="1"/>
        <pt x="670" y="300" on="0"/>
        <pt x="743" y="223" on="0"/>
        <pt x="850" y="223" on="1"/>
        <pt x="955" y="223" on="0"/>
        <pt x="1114" y="258" on="1"/>
        <pt x="1114" y="31" on="1"/>
        <pt x="982" y="-20" on="0"/>
        <pt x="805" y="-20" on="1"/>
        <pt x="645" y="-20" on="0"/>
        <pt x="460" y="64" on="0"/>
        <pt x="365" y="242" on="0"/>
        <pt x="365" y="385" on="1"/>
        <pt x="365" y="889" on="1"/>
        <pt x="20" y="889" on="1"/>
        <pt x="20" y="1118" on="1"/>
        <pt x="1116" y="1118" on="1"/>
        <pt x="1116" y="889" on="1"/>
      </contour>
    </TTGlyph>
    <TTGlyph name="uni2D01" xMin="154" yMin="-492" xMax="1307" yMax="1118">
      <contour>
        <pt x="901" y="164" on="1"/>
        <pt x="858" y="77" on="0"/>
        <pt x="671" y="-20" on="0"/>
        <pt x="551" y="-20" on="1"/>
        <pt x="354" y="-20" on="0"/>
        <pt x="154" y="191" on="0"/>
        <pt x="154" y="389" on="1"/>
        <pt x="154" y="1118" on="1"/>
        <pt x="459" y="1118" on="1"/>
        <pt x="459" y="465" on="1"/>
        <pt x="459" y="344" on="0"/>
        <pt x="545" y="223" on="0"/>
        <pt x="639" y="223" on="1"/>
        <pt x="767" y="223" on="0"/>
        <pt x="881" y="394" on="0"/>
        <pt x="881" y="592" on="1"/>
        <pt x="881" y="1118" on="1"/>
        <pt x="1186" y="1118" on="1"/>
        <pt x="1186" y="385" on="1"/>
        <pt x="1186" y="328" on="0"/>
        <pt x="1214" y="222" on="0"/>
        <pt x="1247" y="155" on="1"/>
        <pt x="1307" y="30" on="0"/>
        <pt x="1307" y="-80" on="1"/>
        <pt x="1307" y="-282" on="0"/>
        <pt x="978" y="-492" on="0"/>
        <pt x="666" y="-492" on="1"/>
        <pt x="535" y="-492" on="0"/>
        <pt x="309" y="-463" on="0"/>
        <pt x="201" y="-426" on="1"/>
        <pt x="201" y="-160" on="1"/>
        <pt x="440" y="-246" on="0"/>
        <pt x="676" y="-246" on="1"/>
        <pt x="842" y="-246" on="0"/>
        <pt x="1001" y="-158" on="0"/>
        <pt x="1001" y="-68" on="1"/>
        <pt x="1001" y="-26" on="0"/>
        <pt x="976" y="39" on="0"/>
        <pt x="946" y="94" on="0"/>
        <pt x="919" y="141" on="0"/>
        <pt x="918" y="164" on="1"/>
      </contour>
    </TTGlyph>
    <TTGlyph name="uni2D02" xMin="20" yMin="-492" xMax="1358" yMax="1139">
      <contour>
        <pt x="1243" y="313" on="1"/>
        <pt x="1243" y="276" on="0"/>
        <pt x="1266" y="207" on="0"/>
        <pt x="1301" y="142" on="1"/>
        <pt x="1358" y="35" on="0"/>
        <pt x="1358" y="-80" on="1"/>
        <pt x="1358" y="-492" on="0"/>
        <pt x="707" y="-492" on="1"/>
        <pt x="565" y="-492" on="0"/>
        <pt x="364" y="-461" on="0"/>
        <pt x="252" y="-420" on="1"/>
        <pt x="252" y="-160" on="1"/>
        <pt x="361" y="-197" on="0"/>
        <pt x="575" y="-246" on="0"/>
        <pt x="692" y="-246" on="1"/>
        <pt x="884" y="-246" on="0"/>
        <pt x="1053" y="-162" on="0"/>
        <pt x="1053" y="-66" on="1"/>
        <pt x="1053" y="-28" on="0"/>
        <pt x="1028" y="43" on="0"/>
        <pt x="996" y="101" on="1"/>
        <pt x="938" y="202" on="0"/>
        <pt x="938" y="307" on="1"/>
        <pt x="938" y="653" on="1"/>
        <pt x="938" y="774" on="0"/>
        <pt x="852" y="895" on="0"/>
        <pt x="758" y="895" on="1"/>
        <pt x="630" y="895" on="0"/>
        <pt x="516" y="724" on="0"/>
        <pt x="516" y="526" on="1"/>
        <pt x="516" y="0" on="1"/>
        <pt x="211" y="0" on="1"/>
        <pt x="211" y="768" on="1"/>
        <pt x="211" y="827" on="0"/>
        <pt x="165" y="872" on="0"/>
        <pt x="111" y="872" on="1"/>
        <pt x="20" y="872" on="1"/>
        <pt x="20" y="1118" on="1"/>
        <pt x="252" y="1118" on="1"/>
        <pt x="363" y="1118" on="0"/>
        <pt x="472" y="1033" on="0"/>
        <pt x="475" y="942" on="1"/>
        <pt x="485" y="942" on="1"/>
        <pt x="577" y="1139" on="0"/>
        <pt x="846" y="1139" on="1"/>
        <pt x="1041" y="1139" on="0"/>
        <pt x="1243" y="928" on="0"/>
        <pt x="1243" y="729" on="1"/>
      </contour>
    </TTGlyph>
    <TTGlyph name="uni2D03" xMin="92" yMin="-20" xMax="1176" yMax="1462">
      <contour>
        <pt x="434" y="1217" on="1"/>
        <pt x="133" y="1217" on="1"/>
        <pt x="133" y="1462" on="1"/>
        <pt x="1116" y="1462" on="1"/>
        <pt x="1116" y="1217" on="1"/>
        <pt x="729" y="1217" on="1"/>
        <pt x="729" y="1192" on="1"/>
        <pt x="729" y="1129" on="0"/>
        <pt x="797" y="1022" on="0"/>
        <pt x="871" y="967" on="1"/>
        <pt x="1009" y="862" on="0"/>
        <pt x="1119" y="724" on="0"/>
        <pt x="1176" y="548" on="0"/>
        <pt x="1176" y="438" on="1"/>
        <pt x="1176" y="223" on="0"/>
        <pt x="881" y="-20" on="0"/>
        <pt x="629" y="-20" on="1"/>
        <pt x="385" y="-20" on="0"/>
        <pt x="92" y="228" on="0"/>
        <pt x="92" y="438" on="1"/>
        <pt x="92" y="613" on="0"/>
        <pt x="303" y="897" on="0"/>
        <pt x="475" y="963" on="1"/>
        <pt x="434" y="1038" on="0"/>
        <pt x="434" y="1174" on="1"/>
      </contour>
      <contour>
        <pt x="864" y="451" on="1"/>
        <pt x="864" y="562" on="0"/>
        <pt x="769" y="716" on="0"/>
        <pt x="651" y="791" on="1"/>
        <pt x="627" y="809" on="1"/>
        <pt x="523" y="768" on="0"/>
        <pt x="403" y="579" on="0"/>
        <pt x="403" y="451" on="1"/>
        <pt x="403" y="351" on="0"/>
        <pt x="526" y="225" on="0"/>
        <pt x="631" y="225" on="1"/>
        <pt x="738" y="225" on="0"/>
        <pt x="864" y="348" on="0"/>
      </contour>
    </TTGlyph>
    <TTGlyph name="uni2D04" xMin="20" yMin="-492" xMax="1356" yMax="1139">
      <contour>
        <pt x="938" y="653" on="1"/>
        <pt x="938" y="774" on="0"/>
        <pt x="852" y="895" on="0"/>
        <pt x="758" y="895" on="1"/>
        <pt x="630" y="895" on="0"/>
        <pt x="516" y="724" on="0"/>
        <pt x="516" y="526" on="1"/>
        <pt x="516" y="0" on="1"/>
        <pt x="211" y="0" on="1"/>
        <pt x="211" y="768" on="1"/>
        <pt x="211" y="827" on="0"/>
        <pt x="165" y="872" on="0"/>
        <pt x="111" y="872" on="1"/>
        <pt x="20" y="872" on="1"/>
        <pt x="20" y="1118" on="1"/>
        <pt x="252" y="1118" on="1"/>
        <pt x="363" y="1118" on="0"/>
        <pt x="472" y="1033" on="0"/>
        <pt x="475" y="942" on="1"/>
        <pt x="485" y="942" on="1"/>
        <pt x="577" y="1139" on="0"/>
        <pt x="846" y="1139" on="1"/>
        <pt x="1041" y="1139" on="0"/>
        <pt x="1243" y="928" on="0"/>
        <pt x="1243" y="729" on="1"/>
        <pt x="1243" y="0" on="1"/>
        <pt x="1243" y="-290" on="0"/>
        <pt x="1356" y="-492" on="1"/>
        <pt x="1032" y="-492" on="1"/>
        <pt x="938" y="-310" on="0"/>
        <pt x="938" y="-6" on="1"/>
      </contour>
    </TTGlyph>
    <TTGlyph name="uni2D05" xMin="20" yMin="-492" xMax="1909" yMax="1139">
      <contour>
        <pt x="485" y="942" on="1"/>
        <pt x="535" y="1035" on="0"/>
        <pt x="713" y="1139" on="0"/>
        <pt x="827" y="1139" on="1"/>
        <pt x="1078" y="1139" on="0"/>
        <pt x="1167" y="975" on="1"/>
        <pt x="1194" y="975" on="1"/>
        <pt x="1238" y="1051" on="0"/>
        <pt x="1414" y="1139" on="0"/>
        <pt x="1524" y="1139" on="1"/>
        <pt x="1721" y="1139" on="0"/>
        <pt x="1909" y="938" on="0"/>
        <pt x="1909" y="729" on="1"/>
        <pt x="1909" y="0" on="1"/>
        <pt x="1604" y="0" on="1"/>
        <pt x="1604" y="653" on="1"/>
        <pt x="1604" y="895" on="0"/>
        <pt x="1436" y="895" on="1"/>
        <pt x="1322" y="895" on="0"/>
        <pt x="1212" y="734" on="0"/>
        <pt x="1212" y="561" on="1"/>
        <pt x="1212" y="0" on="1"/>
        <pt x="1212" y="-290" on="0"/>
        <pt x="1325" y="-492" on="1"/>
        <pt x="1001" y="-492" on="1"/>
        <pt x="907" y="-304" on="0"/>
        <pt x="907" y="-6" on="1"/>
        <pt x="907" y="653" on="1"/>
        <pt x="907" y="774" on="0"/>
        <pt x="826" y="895" on="0"/>
        <pt x="739" y="895" on="1"/>
        <pt x="622" y="895" on="0"/>
        <pt x="516" y="723" on="0"/>
        <pt x="516" y="526" on="1"/>
        <pt x="516" y="0" on="1"/>
        <pt x="211" y="0" on="1"/>
        <pt x="211" y="768" on="1"/>
        <pt x="211" y="827" on="0"/>
        <pt x="165" y="872" on="0"/>
        <pt x="111" y="872" on="1"/>
        <pt x="20" y="872" on="1"/>
        <pt x="20" y="1118" on="1"/>
        <pt x="252" y="1118" on="1"/>
        <pt x="363" y="1118" on="0"/>
        <pt x="472" y="1033" on="0"/>
        <pt x="475" y="942" on="1"/>
      </contour>
    </TTGlyph>
    <TTGlyph name="uni2D06" xMin="-51" yMin="-20" xMax="1221" yMax="1556">
      <contour>
        <pt x="449" y="1237" on="1"/>
        <pt x="449" y="1214" on="0"/>
        <pt x="447" y="1165" on="0"/>
        <pt x="434" y="985" on="1"/>
        <pt x="451" y="985" on="1"/>
        <pt x="500" y="1063" on="0"/>
        <pt x="649" y="1139" on="0"/>
        <pt x="758" y="1139" on="1"/>
        <pt x="893" y="1139" on="0"/>
        <pt x="1105" y="994" on="0"/>
        <pt x="1221" y="730" on="0"/>
        <pt x="1221" y="561" on="1"/>
        <pt x="1221" y="289" on="0"/>
        <pt x="936" y="-20" on="0"/>
        <pt x="682" y="-20" on="1"/>
        <pt x="422" y="-20" on="0"/>
        <pt x="143" y="281" on="0"/>
        <pt x="143" y="569" on="1"/>
        <pt x="143" y="1190" on="1"/>
        <pt x="143" y="1256" on="0"/>
        <pt x="89" y="1311" on="0"/>
        <pt x="35" y="1311" on="1"/>
        <pt x="-51" y="1311" on="1"/>
        <pt x="-51" y="1556" on="1"/>
        <pt x="76" y="1556" on="1"/>
        <pt x="214" y="1556" on="0"/>
        <pt x="375" y="1495" on="0"/>
        <pt x="449" y="1362" on="0"/>
      </contour>
      <contour>
        <pt x="449" y="561" on="1"/>
        <pt x="449" y="386" on="0"/>
        <pt x="559" y="225" on="0"/>
        <pt x="680" y="225" on="1"/>
        <pt x="802" y="225" on="0"/>
        <pt x="909" y="394" on="0"/>
        <pt x="909" y="561" on="1"/>
        <pt x="909" y="727" on="0"/>
        <pt x="801" y="893" on="0"/>
        <pt x="678" y="893" on="1"/>
        <pt x="556" y="893" on="0"/>
        <pt x="449" y="728" on="0"/>
      </contour>
    </TTGlyph>
    <TTGlyph name="uni2D07" xMin="154" yMin="-20" xMax="1851" yMax="1139">
      <contour>
        <pt x="459" y="465" on="1"/>
        <pt x="459" y="344" on="0"/>
        <pt x="540" y="223" on="0"/>
        <pt x="627" y="223" on="1"/>
        <pt x="744" y="223" on="0"/>
        <pt x="850" y="395" on="0"/>
        <pt x="850" y="592" on="1"/>
        <pt x="850" y="653" on="1"/>
        <pt x="850" y="774" on="0"/>
        <pt x="769" y="895" on="0"/>
        <pt x="682" y="895" on="1"/>
        <pt x="565" y="895" on="0"/>
        <pt x="459" y="723" on="0"/>
        <pt x="459" y="526" on="1"/>
      </contour>
      <contour>
        <pt x="154" y="1118" on="1"/>
        <pt x="387" y="1118" on="1"/>
        <pt x="428" y="975" on="1"/>
        <pt x="444" y="975" on="1"/>
        <pt x="489" y="1053" on="0"/>
        <pt x="663" y="1139" on="0"/>
        <pt x="770" y="1139" on="1"/>
        <pt x="1021" y="1139" on="0"/>
        <pt x="1110" y="975" on="1"/>
        <pt x="1137" y="975" on="1"/>
        <pt x="1182" y="1053" on="0"/>
        <pt x="1357" y="1139" on="0"/>
        <pt x="1466" y="1139" on="1"/>
        <pt x="1663" y="1139" on="0"/>
        <pt x="1851" y="938" on="0"/>
        <pt x="1851" y="729" on="1"/>
        <pt x="1851" y="0" on="1"/>
        <pt x="1546" y="0" on="1"/>
        <pt x="1546" y="653" on="1"/>
        <pt x="1546" y="774" on="0"/>
        <pt x="1465" y="895" on="0"/>
        <pt x="1378" y="895" on="1"/>
        <pt x="1266" y="895" on="0"/>
        <pt x="1155" y="735" on="0"/>
        <pt x="1155" y="561" on="1"/>
        <pt x="1155" y="0" on="1"/>
        <pt x="922" y="0" on="1"/>
        <pt x="881" y="143" on="1"/>
        <pt x="864" y="143" on="1"/>
        <pt x="820" y="67" on="0"/>
        <pt x="648" y="-20" on="0"/>
        <pt x="539" y="-20" on="1"/>
        <pt x="348" y="-20" on="0"/>
        <pt x="154" y="174" on="0"/>
        <pt x="154" y="389" on="1"/>
      </contour>
    </TTGlyph>
    <TTGlyph name="uni2D08" xMin="20" yMin="0" xMax="889" yMax="1118">
      <contour>
        <pt x="20" y="872" on="1"/>
        <pt x="20" y="1118" on="1"/>
        <pt x="436" y="1118" on="1"/>
        <pt x="608" y="1118" on="0"/>
        <pt x="802" y="1034" on="0"/>
        <pt x="889" y="853" on="0"/>
        <pt x="889" y="680" on="1"/>
        <pt x="889" y="0" on="1"/>
        <pt x="584" y="0" on="1"/>
        <pt x="584" y="655" on="1"/>
        <pt x="584" y="736" on="0"/>
        <pt x="550" y="830" on="0"/>
        <pt x="476" y="872" on="0"/>
        <pt x="399" y="872" on="1"/>
      </contour>
    </TTGlyph>
    <TTGlyph name="uni2D09" xMin="160" yMin="-492" xMax="1305" yMax="1556">
      <contour>
        <pt x="160" y="1556" on="1"/>
        <pt x="465" y="1556" on="1"/>
        <pt x="465" y="1239" on="1"/>
        <pt x="465" y="1202" on="0"/>
        <pt x="458" y="1065" on="1"/>
        <pt x="451" y="975" on="1"/>
        <pt x="467" y="975" on="1"/>
        <pt x="569" y="1139" on="0"/>
        <pt x="791" y="1139" on="1"/>
        <pt x="988" y="1139" on="0"/>
        <pt x="1192" y="927" on="0"/>
        <pt x="1192" y="729" on="1"/>
        <pt x="1192" y="0" on="1"/>
        <pt x="1192" y="-290" on="0"/>
        <pt x="1305" y="-492" on="1"/>
        <pt x="981" y="-492" on="1"/>
        <pt x="938" y="-408" on="0"/>
        <pt x="887" y="-178" on="0"/>
        <pt x="887" y="-51" on="1"/>
        <pt x="887" y="0" on="0"/>
        <pt x="899" y="85" on="0"/>
        <pt x="918" y="143" on="1"/>
        <pt x="901" y="143" on="1"/>
        <pt x="852" y="65" on="0"/>
        <pt x="672" y="-20" on="0"/>
        <pt x="557" y="-20" on="1"/>
        <pt x="360" y="-20" on="0"/>
        <pt x="160" y="191" on="0"/>
        <pt x="160" y="389" on="1"/>
      </contour>
      <contour>
        <pt x="465" y="465" on="1"/>
        <pt x="465" y="344" on="0"/>
        <pt x="551" y="223" on="0"/>
        <pt x="645" y="223" on="1"/>
        <pt x="773" y="223" on="0"/>
        <pt x="887" y="394" on="0"/>
        <pt x="887" y="592" on="1"/>
        <pt x="887" y="653" on="1"/>
        <pt x="887" y="895" on="0"/>
        <pt x="707" y="895" on="1"/>
        <pt x="579" y="895" on="0"/>
        <pt x="465" y="721" on="0"/>
        <pt x="465" y="526" on="1"/>
      </contour>
    </TTGlyph>
    <TTGlyph name="uni2D0A" xMin="160" yMin="-20" xMax="1858" yMax="1139">
      <contour>
        <pt x="856" y="653" on="1"/>
        <pt x="856" y="774" on="0"/>
        <pt x="775" y="895" on="0"/>
        <pt x="688" y="895" on="1"/>
        <pt x="571" y="895" on="0"/>
        <pt x="465" y="723" on="0"/>
        <pt x="465" y="526" on="1"/>
        <pt x="465" y="0" on="1"/>
        <pt x="160" y="0" on="1"/>
        <pt x="160" y="1118" on="1"/>
        <pt x="393" y="1118" on="1"/>
        <pt x="434" y="975" on="1"/>
        <pt x="451" y="975" on="1"/>
        <pt x="496" y="1052" on="0"/>
        <pt x="666" y="1139" on="0"/>
        <pt x="776" y="1139" on="1"/>
        <pt x="1027" y="1139" on="0"/>
        <pt x="1116" y="975" on="1"/>
        <pt x="1143" y="975" on="1"/>
        <pt x="1188" y="1053" on="0"/>
        <pt x="1363" y="1139" on="0"/>
        <pt x="1473" y="1139" on="1"/>
        <pt x="1663" y="1139" on="0"/>
        <pt x="1858" y="944" on="0"/>
        <pt x="1858" y="729" on="1"/>
        <pt x="1858" y="0" on="1"/>
        <pt x="1624" y="0" on="1"/>
        <pt x="1583" y="143" on="1"/>
        <pt x="1567" y="143" on="1"/>
        <pt x="1519" y="64" on="0"/>
        <pt x="1347" y="-20" on="0"/>
        <pt x="1241" y="-20" on="1"/>
        <pt x="1050" y="-20" on="0"/>
        <pt x="856" y="174" on="0"/>
        <pt x="856" y="389" on="1"/>
      </contour>
      <contour>
        <pt x="1161" y="465" on="1"/>
        <pt x="1161" y="344" on="0"/>
        <pt x="1242" y="223" on="0"/>
        <pt x="1329" y="223" on="1"/>
        <pt x="1446" y="223" on="0"/>
        <pt x="1552" y="395" on="0"/>
        <pt x="1552" y="592" on="1"/>
        <pt x="1552" y="653" on="1"/>
        <pt x="1552" y="774" on="0"/>
        <pt x="1471" y="895" on="0"/>
        <pt x="1384" y="895" on="1"/>
        <pt x="1272" y="895" on="0"/>
        <pt x="1161" y="735" on="0"/>
        <pt x="1161" y="561" on="1"/>
      </contour>
    </TTGlyph>
    <TTGlyph name="uni2D0B" xMin="92" yMin="-20" xMax="1352" yMax="1556">
      <contour>
        <pt x="831" y="1163" on="1"/>
        <pt x="831" y="1242" on="0"/>
        <pt x="764" y="1311" on="0"/>
        <pt x="690" y="1311" on="1"/>
        <pt x="154" y="1311" on="1"/>
        <pt x="154" y="1556" on="1"/>
        <pt x="721" y="1556" on="1"/>
        <pt x="932" y="1556" on="0"/>
        <pt x="1137" y="1371" on="0"/>
        <pt x="1137" y="1176" on="1"/>
        <pt x="1137" y="1118" on="1"/>
        <pt x="1352" y="1118" on="1"/>
        <pt x="1352" y="872" on="1"/>
        <pt x="1137" y="872" on="1"/>
        <pt x="1137" y="561" on="1"/>
        <pt x="1137" y="263" on="0"/>
        <pt x="882" y="-20" on="0"/>
        <pt x="612" y="-20" on="1"/>
        <pt x="368" y="-20" on="0"/>
        <pt x="92" y="294" on="0"/>
        <pt x="92" y="559" on="1"/>
        <pt x="92" y="837" on="0"/>
        <pt x="324" y="1118" on="0"/>
        <pt x="551" y="1118" on="1"/>
        <pt x="831" y="1118" on="1"/>
      </contour>
      <contour>
        <pt x="598" y="872" on="1"/>
        <pt x="493" y="872" on="0"/>
        <pt x="401" y="720" on="0"/>
        <pt x="401" y="559" on="1"/>
        <pt x="401" y="394" on="0"/>
        <pt x="515" y="223" on="0"/>
        <pt x="621" y="223" on="1"/>
        <pt x="701" y="223" on="0"/>
        <pt x="787" y="288" on="0"/>
        <pt x="831" y="431" on="0"/>
        <pt x="831" y="553" on="1"/>
        <pt x="831" y="872" on="1"/>
      </contour>
    </TTGlyph>
    <TTGlyph name="uni2D0C" xMin="160" yMin="0" xMax="1192" yMax="1556">
      <contour>
        <pt x="451" y="975" on="1"/>
        <pt x="467" y="975" on="1"/>
        <pt x="569" y="1139" on="0"/>
        <pt x="791" y="1139" on="1"/>
        <pt x="988" y="1139" on="0"/>
        <pt x="1192" y="927" on="0"/>
        <pt x="1192" y="729" on="1"/>
        <pt x="1192" y="0" on="1"/>
        <pt x="887" y="0" on="1"/>
        <pt x="887" y="653" on="1"/>
        <pt x="887" y="895" on="0"/>
        <pt x="707" y="895" on="1"/>
        <pt x="579" y="895" on="0"/>
        <pt x="465" y="721" on="0"/>
        <pt x="465" y="526" on="1"/>
        <pt x="465" y="0" on="1"/>
        <pt x="160" y="0" on="1"/>
        <pt x="160" y="1176" on="1"/>
        <pt x="160" y="1370" on="0"/>
        <pt x="363" y="1556" on="0"/>
        <pt x="575" y="1556" on="1"/>
        <pt x="1143" y="1556" on="1"/>
        <pt x="1143" y="1311" on="1"/>
        <pt x="606" y="1311" on="1"/>
        <pt x="532" y="1311" on="0"/>
        <pt x="465" y="1242" on="0"/>
        <pt x="465" y="1163" on="1"/>
        <pt x="458" y="1049" on="1"/>
      </contour>
    </TTGlyph>
    <TTGlyph name="uni2D0D" xMin="154" yMin="-20" xMax="1851" yMax="1118">
      <contour>
        <pt x="850" y="1118" on="1"/>
        <pt x="1155" y="1118" on="1"/>
        <pt x="1155" y="465" on="1"/>
        <pt x="1155" y="344" on="0"/>
        <pt x="1236" y="223" on="0"/>
        <pt x="1323" y="223" on="1"/>
        <pt x="1440" y="223" on="0"/>
        <pt x="1546" y="395" on="0"/>
        <pt x="1546" y="592" on="1"/>
        <pt x="1546" y="1118" on="1"/>
        <pt x="1851" y="1118" on="1"/>
        <pt x="1851" y="0" on="1"/>
        <pt x="1618" y="0" on="1"/>
        <pt x="1577" y="143" on="1"/>
        <pt x="1561" y="143" on="1"/>
        <pt x="1513" y="64" on="0"/>
        <pt x="1341" y="-20" on="0"/>
        <pt x="1235" y="-20" on="1"/>
        <pt x="983" y="-20" on="0"/>
        <pt x="895" y="143" on="1"/>
        <pt x="868" y="143" on="1"/>
        <pt x="824" y="67" on="0"/>
        <pt x="647" y="-20" on="0"/>
        <pt x="539" y="-20" on="1"/>
        <pt x="348" y="-20" on="0"/>
        <pt x="154" y="174" on="0"/>
        <pt x="154" y="389" on="1"/>
        <pt x="154" y="1118" on="1"/>
        <pt x="459" y="1118" on="1"/>
        <pt x="459" y="465" on="1"/>
        <pt x="459" y="344" on="0"/>
        <pt x="540" y="223" on="0"/>
        <pt x="627" y="223" on="1"/>
        <pt x="739" y="223" on="0"/>
        <pt x="850" y="383" on="0"/>
        <pt x="850" y="557" on="1"/>
      </contour>
    </TTGlyph>
    <TTGlyph name="uni2D0E" xMin="20" yMin="-20" xMax="1247" yMax="1118">
      <contour>
        <pt x="520" y="465" on="1"/>
        <pt x="520" y="344" on="0"/>
        <pt x="606" y="223" on="0"/>
        <pt x="700" y="223" on="1"/>
        <pt x="828" y="223" on="0"/>
        <pt x="942" y="394" on="0"/>
        <pt x="942" y="592" on="1"/>
        <pt x="942" y="1118" on="1"/>
        <pt x="1247" y="1118" on="1"/>
        <pt x="1247" y="0" on="1"/>
        <pt x="1014" y="0" on="1"/>
        <pt x="973" y="143" on="1"/>
        <pt x="956" y="143" on="1"/>
        <pt x="906" y="64" on="0"/>
        <pt x="727" y="-20" on="0"/>
        <pt x="612" y="-20" on="1"/>
        <pt x="417" y="-20" on="0"/>
        <pt x="215" y="189" on="0"/>
        <pt x="215" y="389" on="1"/>
        <pt x="215" y="752" on="1"/>
        <pt x="215" y="818" on="0"/>
        <pt x="160" y="872" on="0"/>
        <pt x="106" y="872" on="1"/>
        <pt x="20" y="872" on="1"/>
        <pt x="20" y="1118" on="1"/>
        <pt x="147" y="1118" on="1"/>
        <pt x="351" y="1118" on="0"/>
        <pt x="520" y="969" on="0"/>
        <pt x="520" y="784" on="1"/>
      </contour>
    </TTGlyph>
    <TTGlyph name="uni2D0F" xMin="20" yMin="-492" xMax="1360" yMax="1118">
      <contour>
        <pt x="942" y="-51" on="1"/>
        <pt x="942" y="0" on="0"/>
        <pt x="954" y="85" on="0"/>
        <pt x="973" y="143" on="1"/>
        <pt x="956" y="143" on="1"/>
        <pt x="906" y="64" on="0"/>
        <pt x="727" y="-20" on="0"/>
        <pt x="612" y="-20" on="1"/>
        <pt x="417" y="-20" on="0"/>
        <pt x="215" y="189" on="0"/>
        <pt x="215" y="389" on="1"/>
        <pt x="215" y="752" on="1"/>
        <pt x="215" y="818" on="0"/>
        <pt x="160" y="872" on="0"/>
        <pt x="106" y="872" on="1"/>
        <pt x="20" y="872" on="1"/>
        <pt x="20" y="1118" on="1"/>
        <pt x="147" y="1118" on="1"/>
        <pt x="351" y="1118" on="0"/>
        <pt x="520" y="969" on="0"/>
        <pt x="520" y="784" on="1"/>
        <pt x="520" y="465" on="1"/>
        <pt x="520" y="344" on="0"/>
        <pt x="606" y="223" on="0"/>
        <pt x="700" y="223" on="1"/>
        <pt x="828" y="223" on="0"/>
        <pt x="942" y="394" on="0"/>
        <pt x="942" y="592" on="1"/>
        <pt x="942" y="1118" on="1"/>
        <pt x="1247" y="1118" on="1"/>
        <pt x="1247" y="0" on="1"/>
        <pt x="1247" y="-290" on="0"/>
        <pt x="1360" y="-492" on="1"/>
        <pt x="1036" y="-492" on="1"/>
        <pt x="942" y="-304" on="0"/>
      </contour>
    </TTGlyph>
    <TTGlyph name="uni2D10" xMin="154" yMin="-20" xMax="1851" yMax="1556">
      <contour>
        <pt x="1147" y="975" on="1"/>
        <pt x="1247" y="1139" on="0"/>
        <pt x="1470" y="1139" on="1"/>
        <pt x="1657" y="1139" on="0"/>
        <pt x="1851" y="931" on="0"/>
        <pt x="1851" y="729" on="1"/>
        <pt x="1851" y="0" on="1"/>
        <pt x="1546" y="0" on="1"/>
        <pt x="1546" y="653" on="1"/>
        <pt x="1546" y="774" on="0"/>
        <pt x="1466" y="895" on="0"/>
        <pt x="1378" y="895" on="1"/>
        <pt x="1261" y="895" on="0"/>
        <pt x="1155" y="726" on="0"/>
        <pt x="1155" y="526" on="1"/>
        <pt x="1155" y="0" on="1"/>
        <pt x="895" y="0" on="1"/>
        <pt x="866" y="143" on="1"/>
        <pt x="858" y="143" on="1"/>
        <pt x="805" y="57" on="0"/>
        <pt x="635" y="-20" on="0"/>
        <pt x="535" y="-20" on="1"/>
        <pt x="348" y="-20" on="0"/>
        <pt x="154" y="188" on="0"/>
        <pt x="154" y="389" on="1"/>
        <pt x="154" y="1118" on="1"/>
        <pt x="459" y="1118" on="1"/>
        <pt x="459" y="465" on="1"/>
        <pt x="459" y="344" on="0"/>
        <pt x="539" y="223" on="0"/>
        <pt x="627" y="223" on="1"/>
        <pt x="744" y="223" on="0"/>
        <pt x="850" y="393" on="0"/>
        <pt x="850" y="592" on="1"/>
        <pt x="850" y="1556" on="1"/>
        <pt x="1155" y="1556" on="1"/>
        <pt x="1155" y="1237" on="1"/>
        <pt x="1155" y="1046" on="0"/>
        <pt x="1139" y="975" on="1"/>
      </contour>
    </TTGlyph>
    <TTGlyph name="uni2D11" xMin="154" yMin="-20" xMax="1186" yMax="1556">
      <contour>
        <pt x="952" y="0" on="1"/>
        <pt x="911" y="143" on="1"/>
        <pt x="895" y="143" on="1"/>
        <pt x="846" y="65" on="0"/>
        <pt x="666" y="-20" on="0"/>
        <pt x="551" y="-20" on="1"/>
        <pt x="354" y="-20" on="0"/>
        <pt x="154" y="191" on="0"/>
        <pt x="154" y="389" on="1"/>
        <pt x="154" y="1556" on="1"/>
        <pt x="459" y="1556" on="1"/>
        <pt x="459" y="465" on="1"/>
        <pt x="459" y="344" on="0"/>
        <pt x="545" y="223" on="0"/>
        <pt x="639" y="223" on="1"/>
        <pt x="767" y="223" on="0"/>
        <pt x="881" y="394" on="0"/>
        <pt x="881" y="592" on="1"/>
        <pt x="881" y="1118" on="1"/>
        <pt x="1186" y="1118" on="1"/>
        <pt x="1186" y="0" on="1"/>
      </contour>
    </TTGlyph>
    <TTGlyph name="uni2D12" xMin="143" yMin="-492" xMax="1221" yMax="1139">
      <contour>
        <pt x="449" y="557" on="1"/>
        <pt x="449" y="390" on="0"/>
        <pt x="556" y="225" on="0"/>
        <pt x="678" y="225" on="1"/>
        <pt x="801" y="225" on="0"/>
        <pt x="909" y="391" on="0"/>
        <pt x="909" y="557" on="1"/>
        <pt x="909" y="724" on="0"/>
        <pt x="802" y="893" on="0"/>
        <pt x="680" y="893" on="1"/>
        <pt x="559" y="893" on="0"/>
        <pt x="449" y="731" on="0"/>
      </contour>
      <contour>
        <pt x="684" y="-246" on="1"/>
        <pt x="920" y="-246" on="0"/>
        <pt x="1120" y="-174" on="1"/>
        <pt x="1120" y="-426" on="1"/>
        <pt x="995" y="-464" on="0"/>
        <pt x="785" y="-492" on="0"/>
        <pt x="647" y="-492" on="1"/>
        <pt x="388" y="-492" on="0"/>
        <pt x="143" y="-255" on="0"/>
        <pt x="143" y="-2" on="1"/>
        <pt x="143" y="500" on="1"/>
        <pt x="143" y="820" on="0"/>
        <pt x="416" y="1139" on="0"/>
        <pt x="682" y="1139" on="1"/>
        <pt x="935" y="1139" on="0"/>
        <pt x="1221" y="831" on="0"/>
        <pt x="1221" y="557" on="1"/>
        <pt x="1221" y="301" on="0"/>
        <pt x="967" y="-20" on="0"/>
        <pt x="758" y="-20" on="1"/>
        <pt x="647" y="-20" on="0"/>
        <pt x="499" y="55" on="0"/>
        <pt x="451" y="133" on="1"/>
        <pt x="434" y="133" on="1"/>
        <pt x="441" y="82" on="1"/>
        <pt x="449" y="23" on="0"/>
        <pt x="449" y="-14" on="1"/>
        <pt x="449" y="-135" on="0"/>
        <pt x="565" y="-246" on="0"/>
      </contour>
    </TTGlyph>
    <TTGlyph name="uni2D13" xMin="154" yMin="-492" xMax="1964" yMax="1556">
      <contour>
        <pt x="1235" y="-20" on="1"/>
        <pt x="983" y="-20" on="0"/>
        <pt x="895" y="143" on="1"/>
        <pt x="868" y="143" on="1"/>
        <pt x="824" y="67" on="0"/>
        <pt x="647" y="-20" on="0"/>
        <pt x="539" y="-20" on="1"/>
        <pt x="348" y="-20" on="0"/>
        <pt x="154" y="174" on="0"/>
        <pt x="154" y="389" on="1"/>
        <pt x="154" y="1118" on="1"/>
        <pt x="459" y="1118" on="1"/>
        <pt x="459" y="465" on="1"/>
        <pt x="459" y="344" on="0"/>
        <pt x="540" y="223" on="0"/>
        <pt x="627" y="223" on="1"/>
        <pt x="739" y="223" on="0"/>
        <pt x="850" y="383" on="0"/>
        <pt x="850" y="557" on="1"/>
        <pt x="850" y="1118" on="1"/>
        <pt x="1155" y="1118" on="1"/>
        <pt x="1155" y="465" on="1"/>
        <pt x="1155" y="344" on="0"/>
        <pt x="1236" y="223" on="0"/>
        <pt x="1323" y="223" on="1"/>
        <pt x="1440" y="223" on="0"/>
        <pt x="1546" y="395" on="0"/>
        <pt x="1546" y="592" on="1"/>
        <pt x="1546" y="1556" on="1"/>
        <pt x="1851" y="1556" on="1"/>
        <pt x="1851" y="0" on="1"/>
        <pt x="1851" y="-290" on="0"/>
        <pt x="1964" y="-492" on="1"/>
        <pt x="1640" y="-492" on="1"/>
        <pt x="1546" y="-304" on="0"/>
        <pt x="1546" y="-51" on="1"/>
        <pt x="1546" y="50" on="0"/>
        <pt x="1577" y="143" on="1"/>
        <pt x="1561" y="143" on="1"/>
        <pt x="1513" y="67" on="0"/>
        <pt x="1337" y="-20" on="0"/>
      </contour>
    </TTGlyph>
    <TTGlyph name="uni2D14" xMin="92" yMin="-492" xMax="1892" yMax="1139">
      <contour>
        <pt x="1130" y="133" on="1"/>
        <pt x="1137" y="53" on="1"/>
        <pt x="1145" y="-40" on="0"/>
        <pt x="1145" y="-100" on="1"/>
        <pt x="1145" y="-204" on="0"/>
        <pt x="1207" y="-414" on="0"/>
        <pt x="1257" y="-492" on="1"/>
        <pt x="934" y="-492" on="1"/>
        <pt x="890" y="-416" on="0"/>
        <pt x="840" y="-212" on="0"/>
        <pt x="840" y="-100" on="1"/>
        <pt x="840" y="-7" on="0"/>
        <pt x="854" y="133" on="1"/>
        <pt x="838" y="133" on="1"/>
        <pt x="788" y="53" on="0"/>
        <pt x="645" y="-20" on="0"/>
        <pt x="541" y="-20" on="1"/>
        <pt x="339" y="-20" on="0"/>
        <pt x="92" y="299" on="0"/>
        <pt x="92" y="557" on="1"/>
        <pt x="92" y="831" on="0"/>
        <pt x="371" y="1139" on="0"/>
        <pt x="618" y="1139" on="1"/>
        <pt x="743" y="1139" on="0"/>
        <pt x="933" y="1030" on="0"/>
        <pt x="993" y="930" on="1"/>
        <pt x="1118" y="1139" on="0"/>
        <pt x="1366" y="1139" on="1"/>
        <pt x="1613" y="1139" on="0"/>
        <pt x="1892" y="830" on="0"/>
        <pt x="1892" y="557" on="1"/>
        <pt x="1892" y="386" on="0"/>
        <pt x="1779" y="122" on="0"/>
        <pt x="1575" y="-20" on="0"/>
        <pt x="1444" y="-20" on="1"/>
        <pt x="1338" y="-20" on="0"/>
        <pt x="1196" y="54" on="0"/>
        <pt x="1147" y="133" on="1"/>
      </contour>
      <contour>
        <pt x="840" y="557" on="1"/>
        <pt x="840" y="730" on="0"/>
        <pt x="736" y="893" on="0"/>
        <pt x="621" y="893" on="1"/>
        <pt x="505" y="893" on="0"/>
        <pt x="403" y="724" on="0"/>
        <pt x="403" y="557" on="1"/>
        <pt x="403" y="391" on="0"/>
        <pt x="506" y="225" on="0"/>
        <pt x="623" y="225" on="1"/>
        <pt x="738" y="225" on="0"/>
        <pt x="840" y="390" on="0"/>
      </contour>
      <contour>
        <pt x="1145" y="557" on="1"/>
        <pt x="1145" y="390" on="0"/>
        <pt x="1246" y="225" on="0"/>
        <pt x="1362" y="225" on="1"/>
        <pt x="1479" y="225" on="0"/>
        <pt x="1581" y="391" on="0"/>
        <pt x="1581" y="557" on="1"/>
        <pt x="1581" y="724" on="0"/>
        <pt x="1480" y="893" on="0"/>
        <pt x="1364" y="893" on="1"/>
        <pt x="1249" y="893" on="0"/>
        <pt x="1145" y="733" on="0"/>
      </contour>
    </TTGlyph>
    <TTGlyph name="uni2D15" xMin="31" yMin="0" xMax="1053" yMax="1556">
      <contour>
        <pt x="389" y="0" on="1"/>
        <pt x="389" y="893" on="1"/>
        <pt x="31" y="893" on="1"/>
        <pt x="31" y="1139" on="1"/>
        <pt x="389" y="1139" on="1"/>
        <pt x="389" y="1556" on="1"/>
        <pt x="694" y="1556" on="1"/>
        <pt x="694" y="1139" on="1"/>
        <pt x="1053" y="1139" on="1"/>
        <pt x="1053" y="893" on="1"/>
        <pt x="694" y="893" on="1"/>
        <pt x="694" y="0" on="1"/>
      </contour>
    </TTGlyph>
    <TTGlyph name="uni2D16" xMin="20" yMin="0" xMax="1243" yMax="1139">
      <contour>
        <pt x="485" y="942" on="1"/>
        <pt x="577" y="1139" on="0"/>
        <pt x="846" y="1139" on="1"/>
        <pt x="1041" y="1139" on="0"/>
        <pt x="1243" y="928" on="0"/>
        <pt x="1243" y="729" on="1"/>
        <pt x="1243" y="0" on="1"/>
        <pt x="938" y="0" on="1"/>
        <pt x="938" y="653" on="1"/>
        <pt x="938" y="774" on="0"/>
        <pt x="852" y="895" on="0"/>
        <pt x="758" y="895" on="1"/>
        <pt x="630" y="895" on="0"/>
        <pt x="516" y="724" on="0"/>
        <pt x="516" y="526" on="1"/>
        <pt x="516" y="0" on="1"/>
        <pt x="211" y="0" on="1"/>
        <pt x="211" y="768" on="1"/>
        <pt x="211" y="827" on="0"/>
        <pt x="165" y="872" on="0"/>
        <pt x="111" y="872" on="1"/>
        <pt x="20" y="872" on="1"/>
        <pt x="20" y="1118" on="1"/>
        <pt x="252" y="1118" on="1"/>
        <pt x="363" y="1118" on="0"/>
        <pt x="472" y="1033" on="0"/>
        <pt x="475" y="942" on="1"/>
      </contour>
    </TTGlyph>
    <TTGlyph name="uni2D17" xMin="154" yMin="-492" xMax="1298" yMax="1118">
      <contour>
        <pt x="551" y="-20" on="1"/>
        <pt x="354" y="-20" on="0"/>
        <pt x="154" y="191" on="0"/>
        <pt x="154" y="389" on="1"/>
        <pt x="154" y="1118" on="1"/>
        <pt x="459" y="1118" on="1"/>
        <pt x="459" y="465" on="1"/>
        <pt x="459" y="344" on="0"/>
        <pt x="545" y="223" on="0"/>
        <pt x="639" y="223" on="1"/>
        <pt x="767" y="223" on="0"/>
        <pt x="881" y="394" on="0"/>
        <pt x="881" y="592" on="1"/>
        <pt x="881" y="1118" on="1"/>
        <pt x="1186" y="1118" on="1"/>
        <pt x="1186" y="0" on="1"/>
        <pt x="1186" y="-292" on="0"/>
        <pt x="1298" y="-492" on="1"/>
        <pt x="975" y="-492" on="1"/>
        <pt x="932" y="-408" on="0"/>
        <pt x="881" y="-178" on="0"/>
        <pt x="881" y="-51" on="1"/>
        <pt x="881" y="53" on="0"/>
        <pt x="911" y="143" on="1"/>
        <pt x="895" y="143" on="1"/>
        <pt x="846" y="65" on="0"/>
        <pt x="666" y="-20" on="0"/>
      </contour>
    </TTGlyph>
    <TTGlyph name="uni2D18" xMin="154" yMin="-492" xMax="1186" yMax="1118">
      <contour>
        <pt x="551" y="-20" on="1"/>
        <pt x="354" y="-20" on="0"/>
        <pt x="154" y="191" on="0"/>
        <pt x="154" y="389" on="1"/>
        <pt x="154" y="1118" on="1"/>
        <pt x="459" y="1118" on="1"/>
        <pt x="459" y="465" on="1"/>
        <pt x="459" y="344" on="0"/>
        <pt x="545" y="223" on="0"/>
        <pt x="639" y="223" on="1"/>
        <pt x="767" y="223" on="0"/>
        <pt x="881" y="394" on="0"/>
        <pt x="881" y="592" on="1"/>
        <pt x="881" y="1118" on="1"/>
        <pt x="1186" y="1118" on="1"/>
        <pt x="1186" y="35" on="1"/>
        <pt x="1186" y="-242" on="0"/>
        <pt x="937" y="-492" on="0"/>
        <pt x="655" y="-492" on="1"/>
        <pt x="386" y="-492" on="0"/>
        <pt x="209" y="-426" on="1"/>
        <pt x="209" y="-174" on="1"/>
        <pt x="398" y="-246" on="0"/>
        <pt x="614" y="-246" on="1"/>
        <pt x="756" y="-246" on="0"/>
        <pt x="881" y="-134" on="0"/>
        <pt x="881" y="-14" on="1"/>
        <pt x="881" y="46" on="0"/>
        <pt x="895" y="133" on="1"/>
        <pt x="879" y="133" on="1"/>
        <pt x="780" y="-20" on="0"/>
      </contour>
    </TTGlyph>
    <TTGlyph name="uni2D19" xMin="160" yMin="-492" xMax="1192" yMax="1556">
      <contour>
        <pt x="160" y="1556" on="1"/>
        <pt x="465" y="1556" on="1"/>
        <pt x="465" y="1239" on="1"/>
        <pt x="465" y="1202" on="0"/>
        <pt x="458" y="1065" on="1"/>
        <pt x="451" y="975" on="1"/>
        <pt x="467" y="975" on="1"/>
        <pt x="569" y="1139" on="0"/>
        <pt x="791" y="1139" on="1"/>
        <pt x="988" y="1139" on="0"/>
        <pt x="1192" y="927" on="0"/>
        <pt x="1192" y="729" on="1"/>
        <pt x="1192" y="0" on="1"/>
        <pt x="887" y="0" on="1"/>
        <pt x="887" y="653" on="1"/>
        <pt x="887" y="895" on="0"/>
        <pt x="707" y="895" on="1"/>
        <pt x="579" y="895" on="0"/>
        <pt x="465" y="721" on="0"/>
        <pt x="465" y="526" on="1"/>
        <pt x="465" y="0" on="1"/>
        <pt x="465" y="-290" on="0"/>
        <pt x="578" y="-492" on="1"/>
        <pt x="254" y="-492" on="1"/>
        <pt x="160" y="-310" on="0"/>
        <pt x="160" y="-6" on="1"/>
      </contour>
    </TTGlyph>
    <TTGlyph name="uni2D1A" xMin="160" yMin="-492" xMax="1192" yMax="1139">
      <contour>
        <pt x="465" y="-14" on="1"/>
        <pt x="465" y="-135" on="0"/>
        <pt x="582" y="-246" on="0"/>
        <pt x="700" y="-246" on="1"/>
        <pt x="815" y="-246" on="0"/>
        <pt x="1020" y="-205" on="0"/>
        <pt x="1124" y="-174" on="1"/>
        <pt x="1124" y="-426" on="1"/>
        <pt x="922" y="-492" on="0"/>
        <pt x="664" y="-492" on="1"/>
        <pt x="403" y="-492" on="0"/>
        <pt x="160" y="-251" on="0"/>
        <pt x="160" y="0" on="1"/>
        <pt x="160" y="1118" on="1"/>
        <pt x="393" y="1118" on="1"/>
        <pt x="434" y="975" on="1"/>
        <pt x="451" y="975" on="1"/>
        <pt x="502" y="1056" on="0"/>
        <pt x="681" y="1139" on="0"/>
        <pt x="795" y="1139" on="1"/>
        <pt x="990" y="1139" on="0"/>
        <pt x="1192" y="928" on="0"/>
        <pt x="1192" y="729" on="1"/>
        <pt x="1192" y="0" on="1"/>
        <pt x="887" y="0" on="1"/>
        <pt x="887" y="653" on="1"/>
        <pt x="887" y="774" on="0"/>
        <pt x="801" y="895" on="0"/>
        <pt x="707" y="895" on="1"/>
        <pt x="579" y="895" on="0"/>
        <pt x="465" y="724" on="0"/>
        <pt x="465" y="526" on="1"/>
      </contour>
    </TTGlyph>
    <TTGlyph name="uni2D1B" xMin="92" yMin="-20" xMax="1802" yMax="1556">
      <contour>
        <pt x="1106" y="1556" on="1"/>
        <pt x="1106" y="1237" on="1"/>
        <pt x="1106" y="1067" on="0"/>
        <pt x="1083" y="975" on="1"/>
        <pt x="1094" y="975" on="1"/>
        <pt x="1142" y="1054" on="0"/>
        <pt x="1311" y="1139" on="0"/>
        <pt x="1421" y="1139" on="1"/>
        <pt x="1608" y="1139" on="0"/>
        <pt x="1802" y="931" on="0"/>
        <pt x="1802" y="729" on="1"/>
        <pt x="1802" y="0" on="1"/>
        <pt x="1497" y="0" on="1"/>
        <pt x="1497" y="653" on="1"/>
        <pt x="1497" y="774" on="0"/>
        <pt x="1417" y="895" on="0"/>
        <pt x="1329" y="895" on="1"/>
        <pt x="1212" y="895" on="0"/>
        <pt x="1106" y="726" on="0"/>
        <pt x="1106" y="526" on="1"/>
        <pt x="1106" y="0" on="1"/>
        <pt x="872" y="0" on="1"/>
        <pt x="813" y="145" on="1"/>
        <pt x="801" y="145" on="1"/>
        <pt x="697" y="-20" on="0"/>
        <pt x="496" y="-20" on="1"/>
        <pt x="308" y="-20" on="0"/>
        <pt x="92" y="286" on="0"/>
        <pt x="92" y="557" on="1"/>
        <pt x="92" y="831" on="0"/>
        <pt x="312" y="1139" on="0"/>
        <pt x="504" y="1139" on="1"/>
        <pt x="707" y="1139" on="0"/>
        <pt x="813" y="975" on="1"/>
        <pt x="823" y="975" on="1"/>
        <pt x="801" y="1091" on="0"/>
        <pt x="801" y="1235" on="1"/>
        <pt x="801" y="1556" on="1"/>
      </contour>
      <contour>
        <pt x="606" y="223" on="1"/>
        <pt x="714" y="223" on="0"/>
        <pt x="816" y="358" on="0"/>
        <pt x="821" y="522" on="1"/>
        <pt x="821" y="555" on="1"/>
        <pt x="821" y="737" on="0"/>
        <pt x="715" y="891" on="0"/>
        <pt x="602" y="891" on="1"/>
        <pt x="506" y="891" on="0"/>
        <pt x="401" y="718" on="0"/>
        <pt x="401" y="553" on="1"/>
        <pt x="401" y="388" on="0"/>
        <pt x="507" y="223" on="0"/>
      </contour>
    </TTGlyph>
    <TTGlyph name="uni2D1C" xMin="160" yMin="-492" xMax="1858" yMax="1139">
      <contour>
        <pt x="465" y="0" on="1"/>
        <pt x="465" y="-290" on="0"/>
        <pt x="578" y="-492" on="1"/>
        <pt x="254" y="-492" on="1"/>
        <pt x="160" y="-310" on="0"/>
        <pt x="160" y="0" on="1"/>
        <pt x="160" y="1118" on="1"/>
        <pt x="393" y="1118" on="1"/>
        <pt x="434" y="975" on="1"/>
        <pt x="451" y="975" on="1"/>
        <pt x="496" y="1052" on="0"/>
        <pt x="666" y="1139" on="0"/>
        <pt x="776" y="1139" on="1"/>
        <pt x="1027" y="1139" on="0"/>
        <pt x="1116" y="975" on="1"/>
        <pt x="1143" y="975" on="1"/>
        <pt x="1188" y="1053" on="0"/>
        <pt x="1363" y="1139" on="0"/>
        <pt x="1473" y="1139" on="1"/>
        <pt x="1663" y="1139" on="0"/>
        <pt x="1858" y="944" on="0"/>
        <pt x="1858" y="729" on="1"/>
        <pt x="1858" y="0" on="1"/>
        <pt x="1552" y="0" on="1"/>
        <pt x="1552" y="653" on="1"/>
        <pt x="1552" y="774" on="0"/>
        <pt x="1471" y="895" on="0"/>
        <pt x="1384" y="895" on="1"/>
        <pt x="1272" y="895" on="0"/>
        <pt x="1161" y="735" on="0"/>
        <pt x="1161" y="561" on="1"/>
        <pt x="1161" y="0" on="1"/>
        <pt x="856" y="0" on="1"/>
        <pt x="856" y="653" on="1"/>
        <pt x="856" y="774" on="0"/>
        <pt x="775" y="895" on="0"/>
        <pt x="688" y="895" on="1"/>
        <pt x="571" y="895" on="0"/>
        <pt x="465" y="723" on="0"/>
        <pt x="465" y="526" on="1"/>
      </contour>
    </TTGlyph>
    <TTGlyph name="uni2D1D" xMin="20" yMin="-492" xMax="1280" yMax="1139">
      <contour>
        <pt x="211" y="768" on="1"/>
        <pt x="211" y="827" on="0"/>
        <pt x="165" y="872" on="0"/>
        <pt x="111" y="872" on="1"/>
        <pt x="20" y="872" on="1"/>
        <pt x="20" y="1118" on="1"/>
        <pt x="252" y="1118" on="1"/>
        <pt x="363" y="1118" on="0"/>
        <pt x="472" y="1033" on="0"/>
        <pt x="475" y="942" on="1"/>
        <pt x="485" y="942" on="1"/>
        <pt x="577" y="1139" on="0"/>
        <pt x="846" y="1139" on="1"/>
        <pt x="1041" y="1139" on="0"/>
        <pt x="1243" y="928" on="0"/>
        <pt x="1243" y="729" on="1"/>
        <pt x="1243" y="573" on="1"/>
        <pt x="938" y="573" on="1"/>
        <pt x="938" y="653" on="1"/>
        <pt x="938" y="774" on="0"/>
        <pt x="852" y="895" on="0"/>
        <pt x="758" y="895" on="1"/>
        <pt x="630" y="895" on="0"/>
        <pt x="516" y="724" on="0"/>
        <pt x="516" y="526" on="1"/>
        <pt x="516" y="494" on="1"/>
        <pt x="666" y="494" on="1"/>
        <pt x="967" y="494" on="0"/>
        <pt x="1280" y="247" on="0"/>
        <pt x="1280" y="0" on="1"/>
        <pt x="1280" y="-238" on="0"/>
        <pt x="991" y="-492" on="0"/>
        <pt x="717" y="-492" on="1"/>
        <pt x="444" y="-492" on="0"/>
        <pt x="154" y="-278" on="0"/>
        <pt x="154" y="-76" on="1"/>
        <pt x="154" y="-41" on="0"/>
        <pt x="169" y="55" on="0"/>
        <pt x="182" y="84" on="1"/>
        <pt x="494" y="84" on="1"/>
        <pt x="480" y="59" on="0"/>
        <pt x="465" y="-26" on="0"/>
        <pt x="465" y="-55" on="1"/>
        <pt x="465" y="-246" on="0"/>
        <pt x="717" y="-246" on="1"/>
        <pt x="842" y="-246" on="0"/>
        <pt x="969" y="-121" on="0"/>
        <pt x="969" y="0" on="1"/>
        <pt x="969" y="132" on="0"/>
        <pt x="821" y="248" on="0"/>
        <pt x="657" y="248" on="1"/>
        <pt x="211" y="248" on="1"/>
      </contour>
    </TTGlyph>
    <TTGlyph name="uni2D1E" xMin="160" yMin="-492" xMax="1192" yMax="1118">
      <contour>
        <pt x="795" y="-20" on="1"/>
        <pt x="562" y="-20" on="0"/>
        <pt x="467" y="133" on="1"/>
        <pt x="451" y="133" on="1"/>
        <pt x="458" y="82" on="1"/>
        <pt x="465" y="5" on="0"/>
        <pt x="465" y="-14" on="1"/>
        <pt x="465" y="-141" on="0"/>
        <pt x="571" y="-246" on="0"/>
        <pt x="700" y="-246" on="1"/>
        <pt x="919" y="-246" on="0"/>
        <pt x="1137" y="-174" on="1"/>
        <pt x="1137" y="-426" on="1"/>
        <pt x="939" y="-492" on="0"/>
        <pt x="664" y="-492" on="1"/>
        <pt x="402" y="-492" on="0"/>
        <pt x="160" y="-263" on="0"/>
        <pt x="160" y="0" on="1"/>
        <pt x="160" y="1118" on="1"/>
        <pt x="465" y="1118" on="1"/>
        <pt x="465" y="592" on="1"/>
        <pt x="465" y="393" on="0"/>
        <pt x="580" y="223" on="0"/>
        <pt x="707" y="223" on="1"/>
        <pt x="801" y="223" on="0"/>
        <pt x="887" y="344" on="0"/>
        <pt x="887" y="465" on="1"/>
        <pt x="887" y="1118" on="1"/>
        <pt x="1192" y="1118" on="1"/>
        <pt x="1192" y="389" on="1"/>
        <pt x="1192" y="190" on="0"/>
        <pt x="990" y="-20" on="0"/>
      </contour>
    </TTGlyph>
    <TTGlyph name="uni2D1F" xMin="-133" yMin="-492" xMax="1122" yMax="1118">
      <contour>
        <pt x="813" y="461" on="1"/>
        <pt x="1122" y="0" on="1"/>
        <pt x="780" y="0" on="1"/>
        <pt x="629" y="246" on="1"/>
        <pt x="213" y="-492" on="1"/>
        <pt x="-133" y="-492" on="1"/>
        <pt x="434" y="444" on="1"/>
        <pt x="205" y="772" on="1"/>
        <pt x="541" y="772" on="1"/>
        <pt x="623" y="647" on="1"/>
        <pt x="760" y="872" on="1"/>
        <pt x="49" y="872" on="1"/>
        <pt x="49" y="1118" on="1"/>
        <pt x="1120" y="1118" on="1"/>
        <pt x="1120" y="907" on="1"/>
      </contour>
    </TTGlyph>
    <TTGlyph name="uni2D20" xMin="20" yMin="-20" xMax="1909" yMax="1139">
      <contour>
        <pt x="1212" y="465" on="1"/>
        <pt x="1212" y="344" on="0"/>
        <pt x="1292" y="223" on="0"/>
        <pt x="1380" y="223" on="1"/>
        <pt x="1499" y="223" on="0"/>
        <pt x="1604" y="395" on="0"/>
        <pt x="1604" y="592" on="1"/>
        <pt x="1604" y="1118" on="1"/>
        <pt x="1909" y="1118" on="1"/>
        <pt x="1909" y="0" on="1"/>
        <pt x="1675" y="0" on="1"/>
        <pt x="1634" y="143" on="1"/>
        <pt x="1618" y="143" on="1"/>
        <pt x="1572" y="67" on="0"/>
        <pt x="1399" y="-20" on="0"/>
        <pt x="1288" y="-20" on="1"/>
        <pt x="1101" y="-20" on="0"/>
        <pt x="907" y="191" on="0"/>
        <pt x="907" y="389" on="1"/>
        <pt x="907" y="653" on="1"/>
        <pt x="907" y="774" on="0"/>
        <pt x="827" y="895" on="0"/>
        <pt x="739" y="895" on="1"/>
        <pt x="622" y="895" on="0"/>
        <pt x="516" y="726" on="0"/>
        <pt x="516" y="526" on="1"/>
        <pt x="516" y="0" on="1"/>
        <pt x="211" y="0" on="1"/>
        <pt x="211" y="768" on="1"/>
        <pt x="211" y="827" on="0"/>
        <pt x="165" y="872" on="0"/>
        <pt x="111" y="872" on="1"/>
        <pt x="20" y="872" on="1"/>
        <pt x="20" y="1118" on="1"/>
        <pt x="252" y="1118" on="1"/>
        <pt x="363" y="1118" on="0"/>
        <pt x="472" y="1033" on="0"/>
        <pt x="475" y="942" on="1"/>
        <pt x="485" y="942" on="1"/>
        <pt x="575" y="1139" on="0"/>
        <pt x="831" y="1139" on="1"/>
        <pt x="1018" y="1139" on="0"/>
        <pt x="1212" y="931" on="0"/>
        <pt x="1212" y="729" on="1"/>
      </contour>
    </TTGlyph>
    <TTGlyph name="uni2D21" xMin="160" yMin="-492" xMax="1184" yMax="1556">
      <contour>
        <pt x="1184" y="786" on="1"/>
        <pt x="1184" y="545" on="1"/>
        <pt x="1034" y="545" on="1"/>
        <pt x="876" y="545" on="0"/>
        <pt x="721" y="672" on="0"/>
        <pt x="721" y="803" on="1"/>
        <pt x="721" y="897" on="0"/>
        <pt x="633" y="897" on="1"/>
        <pt x="465" y="897" on="0"/>
        <pt x="465" y="522" on="1"/>
        <pt x="465" y="0" on="1"/>
        <pt x="465" y="-289" on="0"/>
        <pt x="623" y="-492" on="1"/>
        <pt x="299" y="-492" on="1"/>
        <pt x="160" y="-307" on="0"/>
        <pt x="160" y="-6" on="1"/>
        <pt x="160" y="1556" on="1"/>
        <pt x="465" y="1556" on="1"/>
        <pt x="465" y="1260" on="1"/>
        <pt x="465" y="1177" on="0"/>
        <pt x="451" y="995" on="1"/>
        <pt x="467" y="995" on="1"/>
        <pt x="517" y="1069" on="0"/>
        <pt x="648" y="1139" on="0"/>
        <pt x="750" y="1139" on="1"/>
        <pt x="882" y="1139" on="0"/>
        <pt x="1026" y="1008" on="0"/>
        <pt x="1026" y="883" on="1"/>
        <pt x="1026" y="841" on="0"/>
        <pt x="1069" y="786" on="0"/>
        <pt x="1112" y="786" on="1"/>
      </contour>
    </TTGlyph>
    <TTGlyph name="uni2D22" xMin="92" yMin="-20" xMax="1219" yMax="1118">
      <contour>
        <pt x="147" y="1118" on="1"/>
        <pt x="604" y="1118" on="1"/>
        <pt x="905" y="1118" on="0"/>
        <pt x="1219" y="834" on="0"/>
        <pt x="1219" y="547" on="1"/>
        <pt x="1219" y="271" on="0"/>
        <pt x="930" y="-20" on="0"/>
        <pt x="655" y="-20" on="1"/>
        <pt x="381" y="-20" on="0"/>
        <pt x="92" y="241" on="0"/>
        <pt x="92" y="492" on="1"/>
        <pt x="92" y="601" on="0"/>
        <pt x="125" y="688" on="1"/>
        <pt x="436" y="688" on="1"/>
        <pt x="421" y="653" on="0"/>
        <pt x="403" y="539" on="0"/>
        <pt x="403" y="492" on="1"/>
        <pt x="403" y="225" on="0"/>
        <pt x="655" y="225" on="1"/>
        <pt x="907" y="225" on="0"/>
        <pt x="907" y="547" on="1"/>
        <pt x="907" y="718" on="0"/>
        <pt x="761" y="872" on="0"/>
        <pt x="596" y="872" on="1"/>
        <pt x="147" y="872" on="1"/>
      </contour>
    </TTGlyph>
    <TTGlyph name="uni2D23" xMin="154" yMin="-492" xMax="1298" yMax="1556">
      <contour>
        <pt x="459" y="465" on="1"/>
        <pt x="459" y="344" on="0"/>
        <pt x="545" y="223" on="0"/>
        <pt x="639" y="223" on="1"/>
        <pt x="767" y="223" on="0"/>
        <pt x="881" y="394" on="0"/>
        <pt x="881" y="592" on="1"/>
        <pt x="881" y="1556" on="1"/>
        <pt x="1186" y="1556" on="1"/>
        <pt x="1186" y="0" on="1"/>
        <pt x="1186" y="-292" on="0"/>
        <pt x="1298" y="-492" on="1"/>
        <pt x="975" y="-492" on="1"/>
        <pt x="932" y="-408" on="0"/>
        <pt x="881" y="-178" on="0"/>
        <pt x="881" y="-51" on="1"/>
        <pt x="881" y="53" on="0"/>
        <pt x="911" y="143" on="1"/>
        <pt x="895" y="143" on="1"/>
        <pt x="846" y="65" on="0"/>
        <pt x="666" y="-20" on="0"/>
        <pt x="551" y="-20" on="1"/>
        <pt x="354" y="-20" on="0"/>
        <pt x="154" y="191" on="0"/>
        <pt x="154" y="389" on="1"/>
        <pt x="154" y="1118" on="1"/>
        <pt x="459" y="1118" on="1"/>
      </contour>
    </TTGlyph>
    <TTGlyph name="uni2D24" xMin="154" yMin="-492" xMax="1186" yMax="1118">
      <contour>
        <pt x="1186" y="465" on="1"/>
        <pt x="1186" y="265" on="0"/>
        <pt x="997" y="28" on="0"/>
        <pt x="823" y="-6" on="1"/>
        <pt x="823" y="-297" on="0"/>
        <pt x="934" y="-492" on="1"/>
        <pt x="610" y="-492" on="1"/>
        <pt x="516" y="-307" on="0"/>
        <pt x="516" y="-6" on="1"/>
        <pt x="332" y="27" on="0"/>
        <pt x="154" y="263" on="0"/>
        <pt x="154" y="469" on="1"/>
        <pt x="154" y="1118" on="1"/>
        <pt x="459" y="1118" on="1"/>
        <pt x="459" y="467" on="1"/>
        <pt x="459" y="353" on="0"/>
        <pt x="571" y="225" on="0"/>
        <pt x="670" y="225" on="1"/>
        <pt x="769" y="225" on="0"/>
        <pt x="881" y="352" on="0"/>
        <pt x="881" y="467" on="1"/>
        <pt x="881" y="1118" on="1"/>
        <pt x="1186" y="1118" on="1"/>
      </contour>
    </TTGlyph>
    <TTGlyph name="uni2D25" xMin="92" yMin="-20" xMax="1835" yMax="1556">
      <contour>
        <pt x="834" y="561" on="1"/>
        <pt x="834" y="727" on="0"/>
        <pt x="732" y="893" on="0"/>
        <pt x="618" y="893" on="1"/>
        <pt x="504" y="893" on="0"/>
        <pt x="403" y="728" on="0"/>
        <pt x="403" y="561" on="1"/>
        <pt x="403" y="394" on="0"/>
        <pt x="504" y="225" on="0"/>
        <pt x="618" y="225" on="1"/>
        <pt x="729" y="225" on="0"/>
        <pt x="834" y="384" on="0"/>
      </contour>
      <contour>
        <pt x="1122" y="975" on="1"/>
        <pt x="1130" y="975" on="1"/>
        <pt x="1177" y="1053" on="0"/>
        <pt x="1344" y="1139" on="0"/>
        <pt x="1454" y="1139" on="1"/>
        <pt x="1641" y="1139" on="0"/>
        <pt x="1835" y="929" on="0"/>
        <pt x="1835" y="729" on="1"/>
        <pt x="1835" y="0" on="1"/>
        <pt x="1530" y="0" on="1"/>
        <pt x="1530" y="653" on="1"/>
        <pt x="1530" y="774" on="0"/>
        <pt x="1450" y="895" on="0"/>
        <pt x="1362" y="895" on="1"/>
        <pt x="1240" y="895" on="0"/>
        <pt x="1139" y="740" on="0"/>
        <pt x="1139" y="539" on="1"/>
        <pt x="1139" y="272" on="0"/>
        <pt x="864" y="-20" on="0"/>
        <pt x="614" y="-20" on="1"/>
        <pt x="369" y="-20" on="0"/>
        <pt x="92" y="288" on="0"/>
        <pt x="92" y="561" on="1"/>
        <pt x="92" y="730" on="0"/>
        <pt x="203" y="995" on="0"/>
        <pt x="407" y="1139" on="0"/>
        <pt x="537" y="1139" on="1"/>
        <pt x="643" y="1139" on="0"/>
        <pt x="784" y="1063" on="0"/>
        <pt x="831" y="985" on="1"/>
        <pt x="848" y="985" on="1"/>
        <pt x="834" y="1118" on="0"/>
        <pt x="834" y="1176" on="1"/>
        <pt x="834" y="1370" on="0"/>
        <pt x="1037" y="1556" on="0"/>
        <pt x="1249" y="1556" on="1"/>
        <pt x="1786" y="1556" on="1"/>
        <pt x="1786" y="1311" on="1"/>
        <pt x="1280" y="1311" on="1"/>
        <pt x="1206" y="1311" on="0"/>
        <pt x="1139" y="1242" on="0"/>
        <pt x="1139" y="1163" on="1"/>
        <pt x="1139" y="1043" on="0"/>
      </contour>
    </TTGlyph>
</ttFont>
